<?xml version="1.0" encoding="utf-8"?>
<!-- Generator: Adobe Illustrator 24.0.1, SVG Export Plug-In . SVG Version: 6.00 Build 0)  -->
<svg version="1.1" id="图层_1" xmlns="http://www.w3.org/2000/svg" xmlns:xlink="http://www.w3.org/1999/xlink" x="0px" y="0px"
	 viewBox="0 0 138 58.5" style="enable-background:new 0 0 138 58.5;" xml:space="preserve">
<style type="text/css">
	.st0{fill:#4BA383;}
</style>
<g>
	<path class="st0" d="M80.2,46.8H8c-3.9,0-7.2-3.2-7.2-7.2V7.5c0-3.9,3.2-7.2,7.2-7.2h122.1c3.9,0,7.2,3.2,7.2,7.2v32.1
		c0,3.9-3.2,7.2-7.2,7.2H96.7l-8.6,10L80.2,46.8z"/>
	<path d="M130.1,1.2c3.5,0,6.4,2.8,6.4,6.4v32.1c0,3.5-2.8,6.4-6.4,6.4h-33h-0.7l-0.5,0.6l-7.7,9l-7-9L80.6,46h-0.8H8
		c-3.5,0-6.4-2.8-6.4-6.4V7.5C1.7,4,4.5,1.2,8,1.2H130.1 M130.1-0.4H8c-4.4,0-8,3.6-8,8v32.1c0,4.4,3.6,8,8,8h71.8l8.3,10.5l9-10.5
		h33c4.4,0,8-3.6,8-8V7.5C138.1,3.1,134.5-0.4,130.1-0.4L130.1-0.4z"/>
</g>
</svg>
