<?xml version="1.0" encoding="utf-8"?>
<!-- Generator: Adobe Illustrator 24.0.1, SVG Export Plug-In . SVG Version: 6.00 Build 0)  -->
<svg version="1.1" id="图层_1" xmlns="http://www.w3.org/2000/svg" xmlns:xlink="http://www.w3.org/1999/xlink" x="0px" y="0px"
	 viewBox="0 0 138 58.5" style="enable-background:new 0 0 138 58.5;" xml:space="preserve">
<style type="text/css">
	.st0{fill:#4BA383;}
</style>
<g>
	<path class="st0" d="M41.4,47.2H8C4,47.2,0.8,44,0.8,40V8C0.8,4,4,0.8,8,0.8H130c3.9,0,7.2,3.2,7.2,7.2V40c0,3.9-3.2,7.2-7.2,7.2
		H57.9l-7.9,10L41.4,47.2z"/>
	<path d="M130,1.6c3.5,0,6.4,2.8,6.4,6.4V40c0,3.5-2.8,6.4-6.4,6.4H58.2h-0.8L57,47l-7,9l-7.7-9l-0.5-0.6H41H8
		c-3.5,0-6.4-2.8-6.4-6.4V8c0-3.5,2.8-6.4,6.4-6.4H130 M130,0H8C3.6,0,0,3.6,0,8V40c0,4.4,3.6,8,8,8h33l9,10.5L58.2,48H130
		c4.4,0,8-3.6,8-8V8C138,3.6,134.4,0,130,0L130,0z"/>
</g>
</svg>
