<?xml version="1.0" encoding="utf-8"?>
<!-- Generator: Adobe Illustrator 24.0.1, SVG Export Plug-In . SVG Version: 6.00 Build 0)  -->
<svg version="1.1" id="图层_1" xmlns="http://www.w3.org/2000/svg" xmlns:xlink="http://www.w3.org/1999/xlink" x="0px" y="0px"
	 viewBox="0 0 560 560" style="enable-background:new 0 0 560 560;" xml:space="preserve">
<style type="text/css">
	.st0{fill:#4BA383;}
	.st1{fill:#FFFFFF;}
</style>
<g>
	<path class="st0" d="M28,456.2c-8.4,0-15.2-6.8-15.2-15.2V77c0-8.4,6.8-15.2,15.2-15.2h512c8.4,0,15.2,6.8,15.2,15.2v364
		c0,8.4-6.8,15.2-15.2,15.2H28z"/>
	<path d="M540,62.6c7.9,0,14.4,6.5,14.4,14.4v364c0,7.9-6.5,14.4-14.4,14.4H28c-7.9,0-14.4-6.5-14.4-14.4V77
		c0-7.9,6.5-14.4,14.4-14.4H540 M540,61H28c-8.8,0-16,7.2-16,16v364c0,8.8,7.2,16,16,16h512c8.8,0,16-7.2,16-16V77
		C556,68.2,548.8,61,540,61L540,61z"/>
</g>
<g>
	<path class="st1" d="M19,448.2c-8.4,0-15.2-6.8-15.2-15.2V69c0-8.4,6.8-15.2,15.2-15.2h512c8.4,0,15.2,6.8,15.2,15.2v364
		c0,8.4-6.8,15.2-15.2,15.2H19z"/>
	<path d="M531,54.6c7.9,0,14.4,6.5,14.4,14.4v364c0,7.9-6.5,14.4-14.4,14.4H19c-7.9,0-14.4-6.5-14.4-14.4V69
		c0-7.9,6.5-14.4,14.4-14.4H531 M531,53H19c-8.8,0-16,7.2-16,16v364c0,8.8,7.2,16,16,16h512c8.8,0,16-7.2,16-16V69
		C547,60.2,539.8,53,531,53L531,53z"/>
</g>
</svg>
