<?xml version="1.0" encoding="utf-8"?>
<!-- Generator: Adobe Illustrator 24.0.1, SVG Export Plug-In . SVG Version: 6.00 Build 0)  -->
<svg version="1.1" id="图层_1" xmlns="http://www.w3.org/2000/svg" xmlns:xlink="http://www.w3.org/1999/xlink" x="0px" y="0px"
	 viewBox="0 0 560 560" style="enable-background:new 0 0 560 560;" xml:space="preserve">
<style type="text/css">
	.st0{fill:#4BA383;}
	.st1{fill:#FFFFFF;}
</style>
<g>
	<path class="st0" d="M28,368.2c-8.4,0-15.2-6.8-15.2-15.2V165c0-8.4,6.8-15.2,15.2-15.2h512c8.4,0,15.2,6.8,15.2,15.2v188
		c0,8.4-6.8,15.2-15.2,15.2H28z"/>
	<path d="M540,150.6c7.9,0,14.4,6.5,14.4,14.4v188c0,7.9-6.5,14.4-14.4,14.4H28c-7.9,0-14.4-6.5-14.4-14.4V165
		c0-7.9,6.5-14.4,14.4-14.4H540 M540,149H28c-8.8,0-16,7.2-16,16v188c0,8.8,7.2,16,16,16h512c8.8,0,16-7.2,16-16V165
		C556,156.2,548.8,149,540,149L540,149z"/>
</g>
<g>
	<path class="st1" d="M19,360.2c-8.4,0-15.2-6.8-15.2-15.2V157c0-8.4,6.8-15.2,15.2-15.2h512c8.4,0,15.2,6.8,15.2,15.2v188
		c0,8.4-6.8,15.2-15.2,15.2H19z"/>
	<path d="M531,142.6c7.9,0,14.4,6.5,14.4,14.4v188c0,7.9-6.5,14.4-14.4,14.4H19c-7.9,0-14.4-6.5-14.4-14.4V157
		c0-7.9,6.5-14.4,14.4-14.4H531 M531,141H19c-8.8,0-16,7.2-16,16v188c0,8.8,7.2,16,16,16h512c8.8,0,16-7.2,16-16V157
		C547,148.2,539.8,141,531,141L531,141z"/>
</g>
</svg>
