<?xml version="1.0" encoding="utf-8"?>
<!-- Generator: Adobe Illustrator 24.0.1, SVG Export Plug-In . SVG Version: 6.00 Build 0)  -->
<svg version="1.1" id="图层_1" xmlns="http://www.w3.org/2000/svg" xmlns:xlink="http://www.w3.org/1999/xlink" x="0px" y="0px"
	 viewBox="0 0 58.2 56.1" style="enable-background:new 0 0 58.2 56.1;" xml:space="preserve">
<style type="text/css">
	.st0{opacity:0.5;fill:#0071BE;}
	.st1{opacity:0.5;}
	.st2{fill:#0071BE;}
</style>
<path class="st0" d="M37.9,12.6c-2.1-0.9-4.2-1.3-6.5-1.3l0,0c-7.9,0-14.7,5.4-16.7,13.1l1.8-1c2.1-6.3,8.1-10.7,14.8-10.7
	c1.6,0,3.1,0.2,4.6,0.7L37.9,12.6z"/>
<path class="st0" d="M47.6,31.6c-0.6,2.2-1.5,4.2-2.8,6.1l0,0c-4.6,6.4-13.1,8.8-20.4,5.8l1.8-1c6.4,2,13.4-0.3,17.3-5.8
	c1-1.3,1.7-2.6,2.2-4.2L47.6,31.6z"/>
<g class="st1">
	<path class="st2" d="M23.7,37.1c1.4-0.7,1.4-1.1,0.6-3.1c0.6,0,1.3-0.1,1.9-0.2c1,2.6,0.8,3.7-1.7,4.9l-4.4,2.2
		c-2.6,1.3-3.6,1.2-4.6-0.8L12.5,34l1.6-0.9l0.9,1.8l6-3l-1.4-2.8l-8.1,4.2l-0.8-1.5l9.7-5l3.4,6.5L22.1,34l-0.3-0.6l-6,3l1.4,2.8
		c0.4,0.9,0.7,0.9,2.2,0.1L23.7,37.1z"/>
	<g transform="translate(39.596 16.642)">
		<path class="st2" d="M8.9,2.1L6.4-2.8L1.5-0.3L4,4.5L8.9,2.1z M5.6-0.6l1,2.1l-1.9,1l-1-2.1L5.6-0.6z"/>
		<path class="st2" d="M-1.6,8.4c1-1.5,1.1-3.5,0.5-5.2l1.3-0.7C0.9,3.7,1,4.4,0.9,4.6C0.9,4.8,0.8,4.9,0.6,4.9
			c-0.3,0.2-0.7,0.3-1,0.5C0,5.7,0.4,6.1,0.7,6.5c0.5-0.2,1-0.5,1.4-0.8c0.3-0.2,0.6-0.6,0.7-0.9c0.2-0.6-0.3-1.6-1.4-4.1
			C1.3,0.7,1.2,0.3,1.2,0.3l-2.8,1.4C-1.8,1.2-2,0.8-2.3,0.4l-1.5,0.8c0.2,0.4,0.5,0.9,0.6,1.3l-1.8,0.9l0.7,1.4l1.6-0.9
			C-2.2,5-2.4,6.5-3.2,7.5C-2.6,7.7-2,8.1-1.6,8.4z"/>
		<path class="st2" d="M10.1,8.6V6.9c-1.2,0.1-2.5,0-3.7-0.2l3.7-1.8v-1L9.7,3.2l-5,2.6L4.2,4.9L2.6,5.7l0.5,0.9l-5,2.6l0.7,1.4
			l4.2-2.2c-0.7,1.8-1.8,3.4-3.2,4.6c0.6,0.2,1.1,0.5,1.7,0.8c1.3-1.4,2.3-3.1,2.9-5l1.5,3L7.4,11l-1.5-3C7.3,8.5,8.7,8.7,10.1,8.6z
			"/>
	</g>
	<path class="st2" d="M28.8,24.6l1,2.1l0.1-0.5c2,0,3.9,0.1,5.9,0.4l-0.5,2.1c-1.6-0.3-3.3-0.6-4.9-0.6l3.2,6.3L32,35.2l-5-9.7
		L22.3,28l-0.9-1.6l11.8-6l0.9,1.6L28.8,24.6z"/>
</g>
<path class="st0" d="M30.2,0c-15.5,0-28,12.6-28,28s12.6,28,28,28s28-12.6,28-28S45.6,0,30.2,0z M30.2,53.7C16,53.7,4.5,42.2,4.5,28
	C4.5,13.9,16,2.4,30.2,2.4S55.8,13.9,55.8,28C55.8,42.2,44.3,53.7,30.2,53.7z"/>
<path class="st0" d="M30.2,3.2C16.4,3.2,5.3,14.3,5.3,28c0,13.7,11.1,24.8,24.8,24.8S55,41.8,55,28C55,14.3,43.9,3.2,30.2,3.2z
	 M30.2,52.1c-13.3,0-24-10.8-24-24s10.8-24,24-24s24,10.8,24,24S43.4,52.1,30.2,52.1z"/>
</svg>
