<?xml version="1.0" encoding="iso-8859-1"?>
<!-- Generator: Adobe Illustrator 22.0.0, SVG Export Plug-In . SVG Version: 6.00 Build 0)  -->
<svg version="1.1" id="&#x56FE;&#x5C42;_1" xmlns="http://www.w3.org/2000/svg" xmlns:xlink="http://www.w3.org/1999/xlink" x="0px"
	 y="0px" viewBox="0 0 52 52" style="enable-background:new 0 0 52 52;" xml:space="preserve">
<path style="fill:#FFFFFF;" d="M26,3.544c12.4,0,22.453,10.053,22.453,22.453C48.453,38.397,38.4,48.45,26,48.45
	C13.6,48.45,3.547,38.397,3.547,25.997C3.544,13.597,13.597,3.544,26,3.544 M26,0C11.641,0,0,11.641,0,26c0,14.359,11.641,26,26,26
	c14.358,0,26-11.641,26-26C52,11.641,40.359,0,26,0L26,0z M26,0"/>
<g>
	<path style="fill:#FFFFFF;" d="M24.908,25.081H11.607c-0.188,0-0.34-0.152-0.34-0.34V11.44c0-0.188,0.152-0.34,0.34-0.34h13.301
		c0.188,0,0.34,0.152,0.34,0.34v13.301C25.248,24.929,25.096,25.081,24.908,25.081z M14.564,22.124h7.386
		c0.188,0,0.34-0.152,0.34-0.34v-7.386c0-0.188-0.152-0.34-0.34-0.34h-7.386c-0.188,0-0.34,0.152-0.34,0.34v7.386
		C14.225,21.971,14.377,22.124,14.564,22.124z"/>
</g>
<g>
	<path style="fill:#FFFFFF;" d="M20.451,20.624h-4.387c-0.188,0-0.34-0.152-0.34-0.34v-4.387c0-0.188,0.152-0.34,0.34-0.34h4.387
		c0.188,0,0.34,0.152,0.34,0.34v4.387C20.791,20.472,20.639,20.624,20.451,20.624z"/>
</g>
<g>
	<path style="fill:#FFFFFF;" d="M40.637,25.081H27.336c-0.188,0-0.34-0.152-0.34-0.34V11.44c0-0.188,0.152-0.34,0.34-0.34h13.301
		c0.188,0,0.34,0.152,0.34,0.34v13.301C40.977,24.929,40.824,25.081,40.637,25.081z M30.293,22.124h7.386
		c0.188,0,0.34-0.152,0.34-0.34v-7.386c0-0.188-0.152-0.34-0.34-0.34h-7.386c-0.188,0-0.34,0.152-0.34,0.34v7.386
		C29.953,21.971,30.105,22.124,30.293,22.124z"/>
</g>
<g>
	<path style="fill:#FFFFFF;" d="M36.179,20.624h-4.387c-0.188,0-0.34-0.152-0.34-0.34v-4.387c0-0.188,0.152-0.34,0.34-0.34h4.387
		c0.188,0,0.34,0.152,0.34,0.34v4.387C36.519,20.472,36.367,20.624,36.179,20.624z"/>
</g>
<g>
	<path style="fill:#FFFFFF;" d="M24.908,40.81H11.607c-0.188,0-0.34-0.152-0.34-0.34V27.169c0-0.188,0.152-0.34,0.34-0.34h13.301
		c0.188,0,0.34,0.152,0.34,0.34V40.47C25.248,40.658,25.096,40.81,24.908,40.81z M14.564,37.852h7.386c0.188,0,0.34-0.152,0.34-0.34
		v-7.386c0-0.188-0.152-0.34-0.34-0.34h-7.386c-0.188,0-0.34,0.152-0.34,0.34v7.386C14.225,37.7,14.377,37.852,14.564,37.852z"/>
</g>
<g>
	<path style="fill:#FFFFFF;" d="M20.451,36.353h-4.387c-0.188,0-0.34-0.152-0.34-0.34v-4.387c0-0.188,0.152-0.34,0.34-0.34h4.387
		c0.188,0,0.34,0.152,0.34,0.34v4.387C20.791,36.2,20.639,36.353,20.451,36.353z"/>
</g>
<g>
	<path style="fill:#FFFFFF;" d="M26.996,29.769v-2.723c0-0.111,0.09-0.2,0.2-0.2h2.723v2.924H26.996z"/>
</g>
<g>
	<path style="fill:#FFFFFF;" d="M38.019,29.769v-2.924h2.721c0.112,0,0.203,0.091,0.203,0.203v2.721H38.019z"/>
</g>
<g>
	<path style="fill:#FFFFFF;" d="M26.996,40.615v-2.729h2.924v2.924h-2.729C27.083,40.81,26.996,40.722,26.996,40.615z"/>
</g>
<g>
	
		<rect x="33.969" y="32.617" transform="matrix(-1.836970e-16 1 -1 -1.836970e-16 69.5106 -1.352)" style="fill:#FFFFFF;" width="2.924" height="2.924"/>
</g>
<g>
	
		<rect x="27.329" y="32.36" transform="matrix(-1.836970e-16 1 -1 -1.836970e-16 65.2038 2.4409)" style="fill:#FFFFFF;" width="8.106" height="2.924"/>
</g>
<g>
	
		<rect x="36.508" y="34.129" transform="matrix(-1.836970e-16 1 -1 -1.836970e-16 75.0715 -3.8905)" style="fill:#FFFFFF;" width="5.946" height="2.924"/>
</g>
<g>
	<rect x="35.638" y="26.846" style="fill:#FFFFFF;" width="4.474" height="2.924"/>
</g>
<g>
	<path style="fill:#FFFFFF;" d="M40.722,40.799h-7.878v-2.924h8.083v2.72C40.926,40.708,40.835,40.799,40.722,40.799z"/>
</g>
</svg>
