<?xml version="1.0" encoding="iso-8859-1"?>
<!-- Generator: Adobe Illustrator 22.0.0, SVG Export Plug-In . SVG Version: 6.00 Build 0)  -->
<svg version="1.1" id="&#x56FE;&#x5C42;_1" xmlns="http://www.w3.org/2000/svg" xmlns:xlink="http://www.w3.org/1999/xlink" x="0px"
	 y="0px" viewBox="0 0 20 22" style="enable-background:new 0 0 20 22;" xml:space="preserve">
<g>
	<g>
		<path style="fill:#B1B1B1;" d="M19.595,3.771H0.405C0.239,3.77,0.081,3.703-0.035,3.585c-0.116-0.118-0.181-0.277-0.179-0.443
			c0-0.346,0.277-0.629,0.619-0.629h19.19c0.343,0,0.619,0.283,0.619,0.629C20.214,3.49,19.938,3.771,19.595,3.771L19.595,3.771z
			 M13.404,1.257H6.596c-0.165-0.001-0.324-0.068-0.44-0.186C6.041,0.953,5.976,0.794,5.977,0.629C5.977,0.283,6.255,0,6.596,0
			h6.811c0.343,0,0.619,0.283,0.619,0.629c0,0.347-0.277,0.629-0.619,0.629H13.404z M7.215,17.6V6.914
			c0-0.346,0.277-0.629,0.619-0.629c0.343,0,0.619,0.283,0.619,0.629V17.6c0,0.347-0.277,0.629-0.619,0.629
			c-0.165-0.001-0.324-0.068-0.44-0.186C7.279,17.925,7.214,17.765,7.215,17.6L7.215,17.6z M11.549,17.6V6.914
			c0-0.346,0.277-0.629,0.619-0.629c0.343,0,0.619,0.283,0.619,0.629V17.6c0,0.347-0.277,0.629-0.619,0.629
			c-0.165-0.001-0.324-0.068-0.44-0.186C11.613,17.925,11.548,17.765,11.549,17.6L11.549,17.6z M2.881,5.657
			c0.343,0,0.619,0.283,0.619,0.629v13.2c0,0.693,0.555,1.257,1.238,1.257h10.522c0.331-0.003,0.647-0.136,0.88-0.372
			c0.232-0.236,0.361-0.554,0.359-0.885v-13.2c0-0.346,0.277-0.629,0.619-0.629c0.343,0,0.619,0.283,0.619,0.629v13.829
			c0,1.042-0.831,1.886-1.857,1.886H4.12c-0.496-0.004-0.971-0.205-1.319-0.558c-0.348-0.354-0.542-0.831-0.538-1.327V6.286
			C2.262,5.94,2.539,5.657,2.881,5.657L2.881,5.657z M2.881,5.657"/>
	</g>
</g>
</svg>
