<?xml version="1.0" encoding="utf-8"?>
<!-- Generator: Adobe Illustrator 22.0.0, SVG Export Plug-In . SVG Version: 6.00 Build 0)  -->
<svg version="1.1" id="设计996_www.sheji996.com_海量优质设计素材模板"
	 xmlns="http://www.w3.org/2000/svg" xmlns:xlink="http://www.w3.org/1999/xlink" x="0px" y="0px" viewBox="0 0 700 500"
	 style="enable-background:new 0 0 700 500;" xml:space="preserve">
<style type="text/css">
	.st0{fill:#FEA03E;stroke:#651413;stroke-width:5;stroke-linejoin:round;}
	.st1{fill:#FFFFFF;}
	.st2{fill:none;stroke:#651413;stroke-width:5;stroke-linejoin:round;}
	.st3{fill:#FEA03E;stroke:#651413;stroke-width:3;stroke-linejoin:round;}
	.st4{fill:#FFEDAF;stroke:#651413;stroke-linejoin:round;}
	.st5{fill:#FB5557;stroke:#651413;stroke-linejoin:round;}
</style>
<g id="组_2">
	<path id="圆角矩形_1" class="st0" d="M47.8,32.2h635c5.3,0,9.6,4.3,9.6,9.6V484c0,5.3-4.3,9.6-9.6,9.6h-635
		c-5.3,0-9.6-4.3-9.6-9.6V41.8C38.2,36.5,42.5,32.2,47.8,32.2z"/>
	<path id="圆角矩形_1_拷贝_2" class="st0" d="M26.7,14h634c5.3,0,9.6,4.3,9.6,9.6v442.2c0,5.3-4.3,9.6-9.6,9.6h-634
		c-5.3,0-9.6-4.3-9.6-9.6V23.6C17.1,18.3,21.4,14,26.7,14z"/>
	<g>
		<path id="圆角矩形_1_拷贝" class="st1" d="M56.4,47.6h577.4c5.3,0,9.6,4.3,9.6,9.6v386.5c0,5.3-4.3,9.6-9.6,9.6H56.4
			c-5.3,0-9.6-4.3-9.6-9.6V57.2C46.8,51.9,51.1,47.6,56.4,47.6z"/>
	</g>
	<g>
		<path id="圆角矩形_1_拷贝_1_" class="st2" d="M56.4,47.6h577.4c5.3,0,9.6,4.3,9.6,9.6v386.5c0,5.3-4.3,9.6-9.6,9.6H56.4
			c-5.3,0-9.6-4.3-9.6-9.6V57.2C46.8,51.9,51.1,47.6,56.4,47.6z"/>
	</g>
	<path id="圆角矩形_2_拷贝" class="st3" d="M665.1,472c1.6-1.5,4.1-1.6,5.8-0.1l14.3,13.1c1.5,1.4,1.6,3.7,0.3,5.2
		c-0.1,0.1-0.2,0.2-0.2,0.2c-1.6,1.5-4.1,1.6-5.8,0.1l-14.3-13.1c-1.5-1.4-1.6-3.7-0.3-5.2C664.9,472.2,665,472.1,665.1,472z"/>
	<path id="多边形_1" class="st4" d="M204.7,42.4l-7.9-4.6l-6.9,6l2-8.8l-7.9-4.6l9.2-0.8l2-8.8l3.6,8.3l9.2-0.9l-6.9,5.9
		L204.7,42.4z"/>
	<path id="多边形_1_拷贝_5" class="st4" d="M43.6,53.9l-7.9-4.6l-6.9,6l2-8.8l-7.9-4.6L32,41l2-8.8l3.6,8.3l9.2-0.9l-6.9,5.9
		L43.6,53.9z"/>
	<path id="多边形_1_拷贝_7" class="st4" d="M43.6,203.5l-7.9-4.6l-6.9,6l2-8.8l-7.9-4.6l9.2-0.8l2-8.8l3.6,8.3l9.2-0.9
		l-6.9,5.9L43.6,203.5z"/>
	<path id="多边形_1_拷贝_9" class="st4" d="M43.6,360.8l-7.9-4.6l-6.9,6l2-8.8l-7.9-4.6L32,348l2-8.8l3.6,8.3l9.2-0.9l-6.9,5.9
		L43.6,360.8z"/>
	<path id="多边形_1_拷贝" class="st5" d="M290.1,42.4l-7.9-4.6l-6.9,6l2-8.8l-7.9-4.6l9.2-0.8l2-8.8l3.6,8.3l9.2-0.9l-6.9,5.9
		L290.1,42.4z"/>
	<path id="多边形_1_拷贝_4" class="st5" d="M128.9,42.4l-7.9-4.6l-6.9,6l2-8.8l-7.9-4.6l9.2-0.8l2-8.8L123,29l9.2-0.9l-6.9,5.9
		L128.9,42.4z"/>
	<path id="多边形_1_拷贝_6" class="st5" d="M43.6,126.8l-7.9-4.6l-6.9,6l2-8.8l-7.9-4.6l9.2-0.8l2-8.8l3.6,8.3l9.2-0.9
		l-6.9,5.9L43.6,126.8z"/>
	<path id="多边形_1_拷贝_8" class="st5" d="M44.5,284.1l-7.9-4.6l-6.9,6l2-8.8l-7.9-4.6l9.2-0.8l2-8.8l3.6,8.3l9.2-0.9
		l-6.9,5.9L44.5,284.1z"/>
	<path id="多边形_1_拷贝_11" class="st5" d="M41.6,437.6l-7.9-4.6l-6.9,6l2-8.8l-7.9-4.6l9.2-0.8l2-8.8l3.6,8.3l9.2-0.9
		l-6.9,5.9L41.6,437.6z"/>
	<path id="多边形_1_拷贝_10" class="st4" d="M663.2,103.8l-7.9-4.6l-6.9,6l2-8.8l-7.9-4.6l9.2-0.8l2-8.8l3.6,8.3l9.2-0.9
		l-6.9,5.9L663.2,103.8z"/>
	<path id="多边形_1_拷贝_10-2" class="st4" d="M663.2,264.9l-7.9-4.6l-6.9,6l2-8.8l-7.9-4.6l9.2-0.8l2-8.8l3.6,8.3l9.2-0.9
		l-6.9,5.9L663.2,264.9z"/>
	<path id="多边形_1_拷贝_10-3" class="st4" d="M663.2,438.5l-7.9-4.6l-6.9,6l2-8.8l-7.9-4.6l9.2-0.8l2-8.8l3.6,8.3l9.2-0.9
		l-6.9,5.9L663.2,438.5z"/>
	<path id="多边形_1_拷贝_10-4" class="st5" d="M664.1,184.3l-7.9-4.6l-6.9,6l2-8.8l-7.9-4.6l9.2-0.8l2-8.8l3.6,8.3l9.2-0.9
		l-6.9,5.9L664.1,184.3z"/>
	<path id="多边形_1_拷贝_10-5" class="st5" d="M663.2,348.4l-7.9-4.6l-6.9,6l2-8.8l-7.9-4.6l9.2-0.8l2-8.8l3.6,8.3l9.2-0.9
		l-6.9,5.9L663.2,348.4z"/>
	<path id="多边形_1_拷贝_2" class="st4" d="M386,42.4l-7.9-4.6l-6.9,6l2-8.8l-7.9-4.6l9.2-0.8l2-8.8l3.6,8.3l9.2-0.9l-6.9,5.9
		L386,42.4z"/>
	<path id="多边形_1_拷贝_2-2" class="st5" d="M479,42.4l-7.9-4.6l-6.9,6l2-8.8l-7.9-4.6l9.2-0.8l2-8.8l3.6,8.3l9.2-0.9
		l-6.9,5.9L479,42.4z"/>
	<path id="多边形_1_拷贝_3" class="st4" d="M554.8,42.4l-7.9-4.6l-6.9,6l2-8.8l-7.9-4.6l9.2-0.8l2-8.8l3.6,8.3l9.2-0.9
		l-6.9,5.9L554.8,42.4z"/>
	<path id="多边形_1_拷贝_3-2" class="st5" d="M640.2,42.4l-7.9-4.6l-6.9,6l2-8.8l-7.9-4.6l9.2-0.8l2-8.8l3.6,8.3l9.2-0.9
		l-6.9,5.9L640.2,42.4z"/>
</g>
</svg>
