<svg id="图层_1" data-name="图层 1" xmlns="http://www.w3.org/2000/svg" viewBox="0 0 270.05 270"><defs><style>.cls-1{fill:#f59c0d;}.cls-2{fill:#feeea3;}.cls-3{fill:#fefdf8;}.cls-4{fill:#fdf4e5;}.cls-5{fill:#fef0ab;}.cls-6{fill:#fde976;}.cls-7{fill:#fde053;}.cls-8{fill:#fee15b;}.cls-9{fill:#fde875;}.cls-10{fill:#fee259;}.cls-11{fill:#fcdc3c;}.cls-12{fill:#fde873;}.cls-13{fill:#fde86e;}.cls-14{fill:#fdea7a;}.cls-15{fill:#f6ab29;}.cls-16{fill:#f6ab28;}.cls-17{fill:#f1ad38;}.cls-18{fill:#fde154;}.cls-19{fill:#fee25b;}.cls-20{fill:#fde977;}.cls-21{fill:#fde96d;}.cls-22{fill:#fde86f;}.cls-23{fill:#fde258;}.cls-24{fill:#fee35f;}.cls-25{fill:#fdea7d;}.cls-26{fill:#fcdd3e;}.cls-27{fill:#fde96a;}.cls-28{fill:#fee362;}.cls-29{fill:#f6a518;}.cls-30{fill:#f7ac2a;}.cls-31{fill:#f7ae24;}.cls-32{fill:#fee466;}.cls-33{fill:#fcda30;}.cls-34{fill:#fcda33;}.cls-35{fill:#fee360;}.cls-36{fill:#fbbc20;}.cls-37{fill:#fab61d;}.cls-38{fill:#fbba1f;}.cls-39{fill:#fde76b;}.cls-40{fill:#ec960f;}.cls-41{fill:#fce56f;}.cls-42{fill:#fde76c;}.cls-43{fill:#eda11a;}.cls-44{fill:#e8910e;}.cls-45{fill:#eea721;}.cls-46{fill:#fde156;}.cls-47{fill:#f9af19;}.cls-48{fill:#f9b31b;}.cls-49{fill:#fde966;}.cls-50{fill:#f0980d;}.cls-51{fill:#f39c0f;}.cls-52{fill:#ef970e;}.cls-53{fill:#ec9710;}.cls-54{fill:#fee361;}.cls-55{fill:#f29c10;}.cls-56{fill:#eca723;}.cls-57{fill:#efaa25;}.cls-58{fill:#fcbf22;}.cls-59{fill:#f9b11a;}.cls-60{fill:#fab81e;}.cls-61{fill:#fcdb34;}.cls-62{fill:#f7a412;}.cls-63{fill:#f8ac17;}.cls-64{fill:#f6a211;}.cls-65{fill:#f7a714;}.cls-66{fill:#f8aa15;}.cls-67{fill:#f59e0e;}.cls-68{fill:#f6a00f;}.cls-69{fill:#f8a915;}.cls-70{fill:#f7a613;}.cls-71{fill:#f59d0e;}.cls-72{fill:#fde157;}.cls-73{fill:#fde153;}.cls-74{fill:#fee25e;}.cls-75{fill:#fee25a;}.cls-76{fill:#f49a0d;}.cls-77{fill:#fee465;}.cls-78{fill:#fdc626;}.cls-79{fill:#fdc425;}.cls-80{fill:#fcc123;}.cls-81{fill:#f8af24;}.cls-82{fill:#fecb29;}.cls-83{fill:#fdc827;}.cls-84{fill:#fec828;}.cls-85{fill:#fcc224;}.cls-86{fill:#fbc22d;}.cls-87{fill:#fcc128;}.cls-88{fill:#e48b0b;}.cls-89{fill:#e68e0b;}.cls-90{fill:#f9d53a;}.cls-91{fill:#f6a110;}.cls-92{fill:#f0970d;}.cls-93{fill:#ec940d;}.cls-94{fill:#ea930d;}.cls-95{fill:#f69e0f;}.cls-96{fill:#f6a71d;}.cls-97{fill:#fde04f;}.cls-98{fill:#fcdb35;}.cls-99{fill:#fddd40;}.cls-100{fill:#fddf4b;}.cls-101{fill:#fdde43;}.cls-102{fill:#fdde46;}.cls-103{fill:#fcde48;}.cls-104{fill:#fdd337;}.cls-105{fill:#fcdb3c;}.cls-106{fill:#f4d12e;}.cls-107{fill:#fecc32;}.cls-108{fill:#e58d0c;}.cls-109{fill:#e68f0e;}.cls-110{fill:#e69213;}.cls-111{fill:#e69f30;}.cls-112{fill:#fcdc3a;}.cls-113{fill:#fcdd3d;}.cls-114{fill:#f9d641;}.cls-115{fill:#fad63c;}.cls-116{fill:#fad83d;}.cls-117{fill:#fcdb38;}.cls-118{fill:#fcdc3d;}.cls-119{fill:#fde050;}.cls-120{fill:#fddf4a;}.cls-121{fill:#fdde47;}.cls-122{fill:#fddf4d;}.cls-123{fill:#fee25c;}.cls-124{fill:#ed950f;}.cls-125{fill:#e8900d;}.cls-126{fill:#ea920d;}.cls-127{fill:#fddd3f;}</style></defs><title>小图11</title><path class="cls-1" d="M144,277c-4.64-2.34-9.82-2-14.74-2.87-13.44-2.47-26.28-6.52-38.24-13.2a2.14,2.14,0,0,1,2-.94c12.38,4.79,24.9,8.72,38.26,10.23,25.8,2.91,50.34-.94,73.58-12.25a129.85,129.85,0,0,0,58.25-55.35,126.38,126.38,0,0,0,15-46.61,143.8,143.8,0,0,0-.39-38.22c-1.49-9.91-3.54-19.9-8.72-28.8-.36-1.33-.71-2.66-1.06-4l.88-1c11.07,17.68,14.79,37.25,15.16,57.76.66,35.87-11.51,66.83-35.89,92.86-21.46,22.91-48,36.22-79.21,40.43-3.3.44-6.87,0-9.92,1.91h-3a8.8,8.8,0,0,0-9,0Z" transform="translate(-14 -7)"/><path class="cls-2" d="M162,7c0,.29.07.58.11.88L160,8.09l-20-.16c0-.31,0-.62,0-.93Z" transform="translate(-14 -7)"/><path class="cls-3" d="M14,133h.85q0,6,0,12H14Z" transform="translate(-14 -7)"/><path class="cls-4" d="M147,277a8.8,8.8,0,0,1,9,0Z" transform="translate(-14 -7)"/><path class="cls-5" d="M140,7c0,.31,0,.62,0,.93l-2,.14-6.1-.2c.05-.29.08-.58.11-.87Z" transform="translate(-14 -7)"/><path class="cls-6" d="M238.29,44.85A3.2,3.2,0,0,1,240.94,47c-1.57,2.72-3.31,5.51-.13,8.22,3,2.58,4.42,5.94,5.18,9.69L243,67a43.33,43.33,0,0,1-6.38-4.95c-2.79-2.76-6.17-6.39-10.66-2.06l-2-2c-.11-6.4-1.3-7.55-6.15-5.89L216.13,52A6.22,6.22,0,0,0,213,49.15c-2.32-.88-3.56-3.42-6.09-4l-3.78-2.24c-1.58-1.21-3.05-2.62-5.16-2.87l-6-3.17c.83-3.3,3.59-4.91,6-6.85,3.83,4.82,4.14-.88,6-2,3.82,1.66,7.31,1.71,10-2.05l9.14,5.78c-3.39,5.32-3.36,9,.95,11.48S233.17,47.78,238.29,44.85Z" transform="translate(-14 -7)"/><path class="cls-7" d="M198,30c-2.39,1.94-5.15,3.55-6,6.85l-15.17-5.77a28.58,28.58,0,0,0,6.81-7,3.82,3.82,0,0,0-.23-5.31c-1.23-1.3-3.34-2.39-5.35-1.13A6.36,6.36,0,0,1,174,19c-.5-4,1.46-5.45,5.23-5a15.63,15.63,0,0,1,8.62,3.34c1,.82,1.78,2.08,3.62,1.15L188,13.85C194.45,15.1,200.26,18,206,21c0,2.85-3.1,3.68-4,5.95C200,27.08,198.88,28.41,198,30Z" transform="translate(-14 -7)"/><path class="cls-8" d="M160,8.09l2.13-.21c4,.63,8.11.67,12,2.09-4.82,1-7.19,5.21-9.72,8.48-5.64,7.29-12.5,10-21.36,8.51,1.42-1.57,2.86-3.13,4.25-4.72C151.43,17.46,157,13.94,160,8.09Z" transform="translate(-14 -7)"/><path class="cls-9" d="M260.93,69c0,.58.07,1.16.11,1.74.45,2.44,1.17,4.69,4,5.27l0,0c-1.68,2.35,1.15,4,1,6.07L263,84,258,82a18.16,18.16,0,0,0-1.09-1.61c-1.26-1.47-2-4.68-4.63-2.75-1.79,1.3-5.35,2.29-3.09,6.38,1.57,2.83-1.3,2.85-3.23,3-2.54-1.19-2.28-4.26-4-6a4.68,4.68,0,0,0,0-1,16.41,16.41,0,0,1,4.2-4.15c4.13-3.2,8.29-6.4,11-11L258,66C258.14,67.77,258.82,69.07,260.93,69Z" transform="translate(-14 -7)"/><path class="cls-10" d="M143,27c8.86,1.52,15.72-1.22,21.36-8.51,2.53-3.27,4.9-7.51,9.72-8.48,4.65,1.28,9.62,1.4,13.93,3.88l3.46,4.65c-1.84.93-2.66-.33-3.62-1.15A15.63,15.63,0,0,0,179.23,14c-3.77-.46-5.73,1-5.23,5-1.56,1.4-3.09,2.84-4.7,4.18-2.28,1.89-3.67,5.17-7.4,4.86L140,28l-5-.12C137.49,26.1,140.35,27.42,143,27Z" transform="translate(-14 -7)"/><path class="cls-11" d="M257.13,64.84c-2.71,4.63-6.87,7.83-11,11a16.41,16.41,0,0,0-4.2,4.15L237,73a23.68,23.68,0,0,0,6-6L246,65c2.3-2.11,3.57-5.42,7.12-6.07C255.37,60.24,255.83,62.82,257.13,64.84Z" transform="translate(-14 -7)"/><path class="cls-12" d="M238.29,44.85c-5.12,2.93-9.88.85-14.19-1.64s-4.34-6.16-.95-11.48C228.42,35.84,234.54,39,238.29,44.85Z" transform="translate(-14 -7)"/><path class="cls-13" d="M253.11,58.88c-3.55.65-4.82,4-7.12,6.07-.76-3.75-2.16-7.11-5.18-9.69-3.18-2.71-1.44-5.5.13-8.22A61.23,61.23,0,0,1,253.11,58.88Z" transform="translate(-14 -7)"/><path class="cls-14" d="M202,27c.9-2.27,4-3.1,4-5.95L214,26c-2.71,3.76-6.2,3.71-10,2.05Z" transform="translate(-14 -7)"/><path class="cls-15" d="M266,82c.16-2.1-2.67-3.72-1-6.07,2,2.38,4.21,4.63,3.81,8.11-.29.32-.59.64-.88,1Z" transform="translate(-14 -7)"/><path class="cls-16" d="M265.08,76c-2.87-.58-3.59-2.83-4-5.27C263.64,71.51,264.31,73.78,265.08,76Z" transform="translate(-14 -7)"/><path class="cls-17" d="M260.93,69c-2.11.1-2.79-1.2-2.91-3A5.19,5.19,0,0,1,260.93,69Z" transform="translate(-14 -7)"/><path class="cls-18" d="M25.15,188.94c-1.68-3.87-3.51-7.7-4.12-11.94,5.73-2.63,8.85-8.18,13.51-12a6.58,6.58,0,0,0,2.51-6.09l2.08,7.1,2.75,10c-1.26,0-2,.93-3,1.48C33.62,180.49,30.9,186.54,25.15,188.94Z" transform="translate(-14 -7)"/><path class="cls-19" d="M18.86,168.23A19.57,19.57,0,0,1,17,158.1c-.19-2,.81-3.43,2.19-4.78,4.65-4.53,9.1-9.26,13.91-13.62A5,5,0,0,0,34.94,135l.06-3h.91l.12,2v18C29,156,24.22,162.43,18.86,168.23Z" transform="translate(-14 -7)"/><path class="cls-12" d="M47.74,225.13l-8.68-11.22c6.71-1.75,11.17-6.73,16-11.12L57,204l1.9,2c-.41,1.92,1,2.87,2.1,4l1,1A100.8,100.8,0,0,1,47.74,225.13Z" transform="translate(-14 -7)"/><path class="cls-20" d="M55.1,202.79c-4.87,4.39-9.33,9.37-16,11.12L34,206c5-4.77,10.85-8.71,14.06-15.12L53,198.15,54.07,200Z" transform="translate(-14 -7)"/><path class="cls-21" d="M74.94,250.14c-3.65-1.92-7.59-3.43-10-7.06,2-.07,3.1-1.69,4.38-2.91C73.21,236.45,77.1,232.7,81,229l2.93,1.17L88,234c.34,2.31-1.26,3.57-2.57,5.08C82.1,243,77.61,245.68,74.94,250.14Z" transform="translate(-14 -7)"/><path class="cls-22" d="M47.74,225.13A100.8,100.8,0,0,0,62,210.94c.31.05.62.09.94.12,1.57,4.6,5.93,6.68,9,10-1.38-.1-2.47.62-3.7,1.1-5.58,2.16-8.26,7.48-12.52,11C52.08,231.45,50.36,227.84,47.74,225.13Z" transform="translate(-14 -7)"/><path class="cls-23" d="M18.86,168.23C24.22,162.43,29,156,36,152c1.25,2.16,1,4.55,1,6.9A6.58,6.58,0,0,1,34.54,165c-4.66,3.83-7.78,9.38-13.51,12A21.1,21.1,0,0,1,18.86,168.23Z" transform="translate(-14 -7)"/><path class="cls-24" d="M34.94,135a5,5,0,0,1-1.88,4.72c-4.81,4.36-9.26,9.09-13.91,13.62-1.38,1.35-2.38,2.76-2.19,4.78-1.32-2.17-.95-4.6-1-7C16.12,141.9,21.06,134.65,29,132,30.2,134.56,32.3,135.3,34.94,135Z" transform="translate(-14 -7)"/><path class="cls-25" d="M25.15,188.94c5.75-2.4,8.47-8.45,13.76-11.43,1-.55,1.71-1.52,3-1.48.55,2.31,2.25,4.23,2.24,6.73a36.67,36.67,0,0,1-14.43,14.35C27.21,194.92,27.12,191.41,25.15,188.94Z" transform="translate(-14 -7)"/><path class="cls-26" d="M81,229c-3.9,3.74-7.79,7.49-11.71,11.21C68,241.39,67,243,64.91,243.08l-5-5c.11-1.69,1.34-2.42,2.52-3.42A81.19,81.19,0,0,0,74,223.06h1C76.18,225.83,79.43,226.53,81,229Z" transform="translate(-14 -7)"/><path class="cls-14" d="M29.69,197.11a36.67,36.67,0,0,0,14.43-14.35,26.91,26.91,0,0,1,3.93,8.12C44.84,197.29,39,201.23,34,206,32.68,203,30.08,200.58,29.69,197.11Z" transform="translate(-14 -7)"/><path class="cls-27" d="M74.94,250.14c2.67-4.46,7.16-7.18,10.49-11,1.31-1.51,2.91-2.77,2.57-5.08l3.94,1.14c.83,1.69,2.68,1.93,4.06,2.84a132.88,132.88,0,0,1-15,15L79,252.88a3.45,3.45,0,0,0-3.91-1.82A3.28,3.28,0,0,1,74.94,250.14Z" transform="translate(-14 -7)"/><path class="cls-28" d="M29,132c-7.94,2.65-12.88,9.9-13,19.14-1.41-1.86-.31-4.16-1.11-6.13q0-6,0-12c.8-1.93-.25-4.18,1-6C22.62,126.05,26.63,127.59,29,132Z" transform="translate(-14 -7)"/><path class="cls-6" d="M74,223.06a81.19,81.19,0,0,1-11.53,11.62c-1.18,1-2.41,1.73-2.52,3.42a11.65,11.65,0,0,1-4.21-4.93c4.26-3.57,6.94-8.89,12.52-11,1.23-.48,2.32-1.2,3.7-1.1Z" transform="translate(-14 -7)"/><path class="cls-29" d="M93,260a2.14,2.14,0,0,0-2,.94l-9-5,1-1c3.52.84,6,4.16,9.91,4.06C93,259.36,93,259.68,93,260Z" transform="translate(-14 -7)"/><path class="cls-30" d="M75.13,251.06A3.45,3.45,0,0,1,79,252.88c0,.41,0,.81-.07,1.21C77.77,253,75.57,253.14,75.13,251.06Z" transform="translate(-14 -7)"/><path class="cls-31" d="M79,254.09c0-.4,0-.8.07-1.21L81,253l2,2-1,1C80.9,255.49,79.67,255.23,79,254.09Z" transform="translate(-14 -7)"/><path class="cls-32" d="M29,132c-2.37-4.41-6.38-6-13.11-5C18,100.83,27.54,77.57,43.73,57.1,63.9,31.59,90.23,15.94,122.06,9.48c3.25-.66,6.55-1.08,9.83-1.61l6.1.2c-6.37,9.21-15,16.26-23,23.89a4.79,4.79,0,0,1-1.18.83C92.7,39.15,75.44,51.12,61.26,67.93,51.46,79.55,45,92.87,40,107c-3.71,3.56-7.44,7.09-11.12,10.69-2.31,2.26-2.54,4.12.33,6.56,2.41,2,4.94,4.39,5.84,7.75l-.06,3C32.3,135.3,30.2,134.56,29,132Z" transform="translate(-14 -7)"/><path class="cls-33" d="M93,260c0-.31-.07-.63-.09-.95,5-5,11.57-8.76,14.07-16l3,.92c4.33,1,8.31,3.45,13,3.14,1.09,1.35,2.62.81,4,.93,1.43,1.6,3.32.79,5,1,2.68.1,5.21,1.5,8,.95l7,0,7,0c2-.2,4.21.76,6-.93a22.43,22.43,0,0,0,8.95-1,10.15,10.15,0,0,0,7-1.92,34.37,34.37,0,0,0,14-4.95c21.91-8.52,38.8-23,51-43L243,195a78.12,78.12,0,0,0,11.08-26.91A16.72,16.72,0,0,0,256,160c1.57-1.43.81-3.32,1-5l0-2c2-5.25.56-10.7,1-16,.63-4.07-.88-8-1-12,.47-4.51-.92-8.73-2-13,.42-3.75-2.95-6.38-3-10l.05-1c2.28,1.66,3.45-.17,5-1.44,4.09-3.44,6.76-8.5,12.05-10.57,5.18,8.9,7.23,18.89,8.72,28.8a143.8,143.8,0,0,1,.39,38.22,126.38,126.38,0,0,1-15,46.61A129.85,129.85,0,0,1,204.86,258c-23.24,11.31-47.78,15.16-73.58,12.25C117.92,268.71,105.4,264.78,93,260Z" transform="translate(-14 -7)"/><path class="cls-34" d="M269,89c-5.29,2.07-8,7.13-12.05,10.57-1.51,1.27-2.68,3.1-5,1.44-.74-1.65-1.94-3.11-2-5,4.21-4.09,9.35-7.2,12.91-12L266,82,268,85C268.33,86.33,268.68,87.66,269,89Z" transform="translate(-14 -7)"/><path class="cls-35" d="M115,32c8-7.63,16.63-14.68,23-23.89l2-.14,20,.16c-3,5.85-8.55,9.37-12.73,14.15-1.39,1.59-2.83,3.15-4.25,4.72-2.65.46-5.51-.86-8,.93-1.08.22-2.3,0-3.11,1.06-2,0-4.07-.21-5.88,1-1.74.1-3.61-.46-5.08,1Z" transform="translate(-14 -7)"/><path class="cls-36" d="M206.93,45.14c2.53.59,3.77,3.13,6.09,4,.33,1,.66,1.89,1,2.84-2.54,4.68-6.65,8-10.22,11.77-1,1.07-3.09,2.45.26,3.25l-8,4-6,2.09A8.78,8.78,0,0,0,184,75h-2c-2-2.15.47-2.89,1.38-3.83,6.22-6.38,12.55-12.66,18.87-18.94,1.78-1.77,3.46-3.56,3.73-6.21Z" transform="translate(-14 -7)"/><path class="cls-37" d="M224,58l2,2c2.46,3.49,6.16,6,8,10-3.27.09-4.22,4.76-7.92,4-1.23-1.17-1.47-3.73-4.1-2.92-1.26-1.73-1.42-4.29-3.89-5.1l-1-1c-1.72-5.54,3.42-5.17,6-7Z" transform="translate(-14 -7)"/><path class="cls-38" d="M223,58c-2.59,1.82-7.73,1.45-6,7-4.83-2.54-8.65,1.3-12.95,2.07-3.36-.8-1.28-2.18-.27-3.25C207.35,60,211.46,56.67,214,52l2.13,0,1.72.15Z" transform="translate(-14 -7)"/><path class="cls-39" d="M233.94,70c-1.8-4-5.5-6.51-8-10,4.49-4.33,7.87-.7,10.66,2.06A43.33,43.33,0,0,0,243,67a23.68,23.68,0,0,1-6,6Z" transform="translate(-14 -7)"/><path class="cls-40" d="M176.86,31.09,192,36.86,198,40l-1,1-8-3-9-3c-3.82.19-7.32-1.31-11-2.07-.73-1.14-1.93-.92-3-1-1.76-1.76-4-.65-6-1,0-1.39.83-2,2.12-2Z" transform="translate(-14 -7)"/><path class="cls-41" d="M223,58l-5.16-5.84c4.85-1.66,6-.51,6.15,5.89Z" transform="translate(-14 -7)"/><path class="cls-42" d="M202,27l2,1c-1.84,1.13-2.15,6.83-6,2C198.88,28.41,200,27.08,202,27Z" transform="translate(-14 -7)"/><path class="cls-43" d="M197,41l1-1c2.11.25,3.58,1.66,5.16,2.87L202,44,198,42Z" transform="translate(-14 -7)"/><path class="cls-44" d="M202,44l1.13-1.07,3.78,2.24L206,46Z" transform="translate(-14 -7)"/><path class="cls-45" d="M216.13,52,214,52c-.32-1-.65-1.89-1-2.84A6.22,6.22,0,0,1,216.13,52Z" transform="translate(-14 -7)"/><path class="cls-46" d="M176.86,31.09,162.13,29c-.08-.3-.16-.6-.23-.91,3.73.31,5.12-3,7.4-4.86,1.61-1.34,3.14-2.78,4.7-4.18a6.36,6.36,0,0,0,4.09-1.37c2-1.26,4.12-.17,5.35,1.13a3.82,3.82,0,0,1,.23,5.31A28.58,28.58,0,0,1,176.86,31.09Z" transform="translate(-14 -7)"/><path class="cls-47" d="M242,81c1.73,1.74,1.47,4.81,4,6,.06.78.11,1.56.91,2l.12,2c-2.11,0-3.14,1.68-4.39,2.93-8.09,8-16.13,16.12-24.21,24.16-1.26,1.25-2.29,2.92-4.4,2.91a69.65,69.65,0,0,1,4-21c1-1.17,4-1.35,2-4q1-2,2-4c3.71,1.13,4.29-2.37,6.06-4.1C231.94,84.08,235.81,80.25,242,81Z" transform="translate(-14 -7)"/><path class="cls-48" d="M242,81c-6.14-.76-10,3.07-13.89,6.88-1.77,1.73-2.35,5.23-6.06,4.1a74,74,0,0,0,2.57-7.33c.84-3.48,3.79-6.74,1.45-10.66,3.7.77,4.65-3.9,7.92-4L237,73l4.94,7A4.68,4.68,0,0,1,242,81Z" transform="translate(-14 -7)"/><path class="cls-49" d="M247,91l-.12-2c2.22,1.26,3.1-.73,4.41-1.78,2.23-1.77,3.46-4.81,6.72-5.24L263,84c-3.56,4.79-8.7,7.9-12.91,12Q248.51,93.49,247,91Z" transform="translate(-14 -7)"/><path class="cls-27" d="M258,82c-3.26.43-4.49,3.47-6.72,5.24-1.31,1.05-2.19,3-4.41,1.78-.8-.45-.85-1.23-.91-2,1.93-.14,4.8-.16,3.23-3-2.26-4.09,1.3-5.08,3.09-6.38,2.65-1.93,3.37,1.28,4.63,2.75A18.16,18.16,0,0,1,258,82Z" transform="translate(-14 -7)"/><path class="cls-50" d="M161.9,28c.07.31.15.61.23.91-1.29.07-2.09.65-2.12,2l0,0H141c-2.34.35-4.9-.92-7,1l-6,1c-2-.1-2-1.56-2-3,1.81-1.23,3.87-1,5.89-1,2.7-.34,5.59,1,8.1-.94Z" transform="translate(-14 -7)"/><path class="cls-51" d="M140,28c-2.51,2-5.4.6-8.1.94.8-1,2-.84,3.1-1.06Z" transform="translate(-14 -7)"/><path class="cls-52" d="M37.05,158.9c0-2.35.23-4.74-1-6.9V134l3,1c0,6-.12,12.05,1,18,.26,2-.75,4.26,1,6.05l.08,2.94.9,5-2.83-1Z" transform="translate(-14 -7)"/><path class="cls-53" d="M39.13,166,42,167,44,174a44.34,44.34,0,0,0,4,11c.09,1.91,1.24,3.38,2,5,.94,2.74,3.23,5,2.92,8.17q-2.46-3.65-4.94-7.28a26.91,26.91,0,0,0-3.93-8.12c0-2.5-1.69-4.42-2.24-6.73Q40.5,171,39.13,166Z" transform="translate(-14 -7)"/><path class="cls-54" d="M35,132c-.9-3.36-3.43-5.71-5.84-7.75-2.87-2.44-2.64-4.3-.33-6.56,3.68-3.6,7.41-7.13,11.12-10.69-.68,6-3.36,11.68-3,17.87-1.69,2.18-.62,4.76-1,7.13Z" transform="translate(-14 -7)"/><path class="cls-55" d="M35.91,132c.42-2.37-.65-5,1-7.13.41,2.44-.77,5.17,1.13,7.56,1.83-1.62,0-4.17,1.91-5.43,0,2.32,0,4.64,0,7l-1,1-3-1Z" transform="translate(-14 -7)"/><path class="cls-36" d="M63,211.06c-.32,0-.63-.07-.94-.12l-1-1c.13-1.77-.28-3.25-2.1-4L57,204c0-1,0-2,0-2.94,5.22-6.21,13.26-8.92,18.6-15,1.45-1.66,2.75-3.85,5.41-4q-4.48,11.5-9,23Z" transform="translate(-14 -7)"/><path class="cls-56" d="M57,201c0,1,0,2,0,2.94l-1.9-1.16c-.34-.93-.68-1.87-1-2.8Z" transform="translate(-14 -7)"/><path class="cls-57" d="M58.9,205.93c1.82.75,2.23,2.23,2.1,4C59.92,208.8,58.49,207.85,58.9,205.93Z" transform="translate(-14 -7)"/><path class="cls-58" d="M57,201l-2.91-1L53,198.15c.31-3.17-2-5.42-2.92-8.16,2.48-.27,4.23-1.75,5.9-3.44,4-4,8-8,12-12C73.51,169,76,168.59,83,172a18.17,18.17,0,0,1-2,10c-2.66.14-4,2.33-5.41,4C70.24,192.09,62.2,194.8,57,201Zm11.94-15.7c-1,1.08-3.24,1.14-2.91,3.53C67.62,188.08,68.76,187.13,68.92,185.31Zm3.36-1.87c2.3-1.42,3.44-2.38,4.58-4.69C74.38,179.92,73.25,180.87,72.28,183.44Z" transform="translate(-14 -7)"/><path class="cls-59" d="M91.94,235.18,88,234l-4.07-3.91c1.41-1.6,2.83-3.19,4.23-4.8,2.54-2.92,6.32-5,6.83-9.36l11-5,7-2c.34,2.3-1.13,3.66-2.57,5.09-5,4.91-9.86,9.88-14.82,14.78C93.8,230.66,92.22,232.53,91.94,235.18Z" transform="translate(-14 -7)"/><path class="cls-48" d="M95,216c-.51,4.41-4.29,6.44-6.83,9.36-1.4,1.61-2.82,3.2-4.23,4.8L81,229c-1.57-2.43-4.82-3.13-6-5.91,2.24-1.55,5.54-2.21,5-6,3.75,2.21,7.45,2,11.23,0A16.36,16.36,0,0,1,95,216Z" transform="translate(-14 -7)"/><path class="cls-60" d="M80,217c.5,3.83-2.8,4.49-5,6H74l-2-2c-3-3.28-7.39-5.36-9-10L72,205c1.09,6.22,3,7.88,9,8l1.06.09C81,214.19,77.92,214.26,80,217Z" transform="translate(-14 -7)"/><path class="cls-47" d="M91.94,235.18c.28-2.65,1.86-4.52,3.67-6.31,5-4.9,9.86-9.87,14.82-14.78,1.44-1.43,2.91-2.79,2.57-5.09a6.65,6.65,0,0,1,4-1,5.92,5.92,0,0,1,6.45,3.6c.92,2-1.86,3.2-3.15,4.57-3.31,3.5-6.9,6.74-10.16,10.28-3.79,4.12-8.71,7.26-11.14,12.59l-3-1C94.62,237.11,92.77,236.87,91.94,235.18Z" transform="translate(-14 -7)"/><path class="cls-61" d="M96,238l3,1c2.21,2.26,5.58,2.2,8,4-2.5,7.26-9,11-14.07,16-3.9.1-6.39-3.22-9.91-4.06l-2-2A132.88,132.88,0,0,0,96,238Z" transform="translate(-14 -7)"/><path class="cls-1" d="M40,127c-2,1.26-.08,3.81-1.91,5.43-1.9-2.39-.72-5.12-1.13-7.56-.36-6.19,2.32-11.86,3-17.87C45,92.87,51.46,79.55,61.26,67.93,75.44,51.12,92.7,39.15,113.81,32.79A4.79,4.79,0,0,0,115,32l5.93-1c2,0,2.35,1.7,3.08,3C99.12,40.62,78.32,53.69,62.54,74.1A112.6,112.6,0,0,0,40,127Z" transform="translate(-14 -7)"/><path class="cls-62" d="M147,250l-7,0c-.63-1.43-2.56-.34-3.82-2.64,2.86-2.55,6-5.2,9-8.09,1.27-1.24,2.35-3,1.61-4.94-.81-2.07-2.86-1.13-4.38-1.24-2.13-.14-4.6.43-4.35-3,1-2.3,3.35-3.31,5-5,1.56.24,3.7-.81,4.57.88,1.62,3.14,2.93,1.44,4.43.12,9.44-2.42,14.41-10.53,21-16.57,2.06-1.9.21-3.14-1-4.43h4l13,3c0,2.31-2,3.32-3.27,4.75-5.09,5.6-11.11,10.32-15.64,16.49-1.94,2.65-4.08,5.59-2.64,8.45C168.64,240,172.2,240,175,240c1.2,1.87,1,4,1,6a10.15,10.15,0,0,1-7,1.92c-2.51-5.22-9.56-3.83-12.51-8.5a2.31,2.31,0,0,0-1.73.45C151.86,243,147.74,245.21,147,250Z" transform="translate(-14 -7)"/><path class="cls-63" d="M152,226c-1.5,1.32-2.81,3-4.43-.12-.87-1.69-3-.64-4.57-.88-2.16-.12-3.81-1.54-5.12-2.85-3.29-3.31-5.63-2.11-8.34.74-4.58,4.83-9.47,9.37-14,14.2-2,2.11-4.95,3.54-5.48,6.85l-3-.92c-2.44-1.79-5.81-1.73-8-4,2.43-5.33,7.35-8.47,11.14-12.59,3.26-3.54,6.85-6.78,10.16-10.28,1.29-1.37,4.07-2.52,3.15-4.57A5.92,5.92,0,0,0,117,208c4.14-1.87,8.68-2,13-3h7c3.36.22,9.28-1.7,4.45,5.36-.53.78.38,1.5.58,2.24a12,12,0,0,0,6,7.4C148.41,222.61,151.41,223.51,152,226Z" transform="translate(-14 -7)"/><path class="cls-64" d="M243,195l-1.93,3.11c-.16-.73-.07-1.81-1.32-1.24-3.12,1.43-3.65-.4-3.73-2.86-5.5-2.23-10.49-6.21-17-5-2.51-6.11-6.29-11.89-5-19,5.15,4.35,5.15,4.35,10.14-.64q14.15-14.15,28.27-28.3A16.54,16.54,0,0,1,258,137c-.43,5.35,1,10.8-1,16,0-3.5-1.31-3.26-3.34-1.22q-11.93,12-23.89,23.86c-1.62,1.61-1.43,2.9-.81,5.16,1,3.53,4.93,2.48,6,5.16C238.21,188.51,238.59,193.53,243,195Zm-24.7-18.23c.46,1.91,1.35,2.53,3.1,1.75C220.79,177.07,219.75,176.73,218.28,176.76Z" transform="translate(-14 -7)"/><path class="cls-65" d="M255,112c1.12,4.27,2.51,8.49,2,13-2.54-.38-3.92,1.4-5.44,2.93-10.71,10.71-21.44,21.39-32.1,32.15-1.84,1.86-3.65,3.4-6.47,2.92V150c2.31,0,3.39-1.93,4.76-3.29q15.35-15.26,30.62-30.6C250.26,114.22,252.09,112.29,255,112Z" transform="translate(-14 -7)"/><path class="cls-1" d="M236,194c.08,2.46.61,4.29,3.73,2.86,1.25-.57,1.16.51,1.32,1.24-12.23,20-29.12,34.47-51,43,1-3.45,3.43-5.92,5.81-8.38,4.14-4.28,8.43-8.42,12.6-12.67,1.75-1.78,3.36-3.68-.43-5v-2.92l1-.1a7.9,7.9,0,0,0,9.6-.21C222.4,209,222,205,220.84,201l2.16-1a6.78,6.78,0,0,0,5.78-2.17C230.76,195.93,232.85,193.87,236,194Z" transform="translate(-14 -7)"/><path class="cls-62" d="M213,163c2.82.48,4.63-1.06,6.47-2.92,10.66-10.76,21.39-21.44,32.1-32.15,1.52-1.53,2.9-3.31,5.44-2.93.12,4,1.63,7.92,1,12a16.54,16.54,0,0,0-5.6,4.07q-14.1,14.19-28.27,28.3c-5,5-5,5-10.14.64Z" transform="translate(-14 -7)"/><path class="cls-66" d="M255,112c-2.88.29-4.71,2.22-6.59,4.11q-15.28,15.33-30.62,30.6c-1.37,1.36-2.45,3.25-4.76,3.29V136c2.31,0,3.38-1.92,4.74-3.28q13.56-13.45,27-27c2-2,4.09-3.88,7.22-3.72C252,105.62,255.39,108.25,255,112Z" transform="translate(-14 -7)"/><path class="cls-63" d="M252,102c-3.13-.16-5.2,1.69-7.22,3.72q-13.47,13.55-27,27c-1.36,1.36-2.43,3.24-4.74,3.28v-6c.44-3-1-6.18,1-9,2.11,0,3.14-1.66,4.4-2.91,8.08-8,16.12-16.12,24.21-24.16C243.85,92.68,244.88,91,247,91q1.51,2.49,3,5c.05,1.92,1.25,3.38,2,5C252,101.33,252,101.67,252,102Z" transform="translate(-14 -7)"/><path class="cls-67" d="M208,215c3.79,1.36,2.18,3.26.43,5-4.17,4.25-8.46,8.39-12.6,12.67-2.38,2.46-4.83,4.93-5.81,8.38A34.37,34.37,0,0,1,176,246c0-2.07.19-4.17-1-6,8-7.85,16-15.68,24-23.57a6.89,6.89,0,0,0,2-4.43C203.35,213,205.38,214.68,208,215Z" transform="translate(-14 -7)"/><path class="cls-68" d="M235,186c-1.09-2.68-5.05-1.63-6-5.16-.62-2.26-.81-3.55.81-5.16q12-11.88,23.89-23.86c2-2,3.35-2.28,3.34,1.22,0,.65,0,1.31,0,2-1.64,1.42-.75,3.33-1,5a16.72,16.72,0,0,1-1.95,8.05c-2-1.25-3.08.48-4.09,1.53C244.82,174.93,238.91,179.56,235,186Z" transform="translate(-14 -7)"/><path class="cls-69" d="M110,243.94c.53-3.31,3.48-4.74,5.48-6.85,4.58-4.83,9.47-9.37,14-14.2,2.71-2.85,5.05-4,8.34-.74,1.31,1.31,3,2.73,5.12,2.85-1.65,1.69-4,2.7-5,5-4.52,4.35-9,8.72-13.56,13.05a4.9,4.9,0,0,0-1.47,4C118.32,247.39,114.34,244.93,110,243.94Z" transform="translate(-14 -7)"/><path class="cls-70" d="M123,247.08a4.9,4.9,0,0,1,1.47-4c4.54-4.33,9-8.7,13.56-13.05-.25,3.46,2.22,2.89,4.35,3,1.52.11,3.57-.83,4.38,1.24.74,1.91-.34,3.7-1.61,4.94-2.93,2.89-6.1,5.54-9,8.09,1.26,2.3,3.19,1.21,3.82,2.64-2.77.55-5.3-.85-8-.95-1.42-1.66-3.34-.76-5-1C125.59,247.89,124.06,248.43,123,247.08Z" transform="translate(-14 -7)"/><path class="cls-71" d="M235,186c3.91-6.44,9.82-11.07,15-16.39,1-1.05,2.08-2.78,4.09-1.53A78.12,78.12,0,0,1,243,195C238.59,193.53,238.21,188.51,235,186Z" transform="translate(-14 -7)"/><path class="cls-64" d="M147,250c.74-4.77,4.86-7,7.74-10.07a2.31,2.31,0,0,1,1.73-.45c2.95,4.67,10,3.28,12.51,8.5a22.43,22.43,0,0,1-8.95,1c-2,.29-4.22-.79-6,.93Z" transform="translate(-14 -7)"/><path class="cls-62" d="M154,249.94c1.78-1.72,4-.64,6-.93C158.24,250.7,156.05,249.74,154,249.94Z" transform="translate(-14 -7)"/><path class="cls-64" d="M256,160c.22-1.69-.67-3.6,1-5C256.82,156.71,257.58,158.6,256,160Z" transform="translate(-14 -7)"/><path class="cls-69" d="M127,248c1.69.22,3.61-.68,5,1C130.29,248.8,128.4,249.61,127,248Z" transform="translate(-14 -7)"/><path class="cls-51" d="M124,34c-.73-1.31-1.1-3-3.08-3,1.47-1.46,3.34-.9,5.08-1,0,1.47,0,2.93,2,3C126.94,34.41,125.39,33.88,124,34Z" transform="translate(-14 -7)"/><path class="cls-58" d="M202,44,206,46c-.27,2.65-1.95,4.44-3.73,6.21C196,58.52,189.62,64.8,183.4,71.18c-.91.94-3.41,1.68-1.38,3.83a2.32,2.32,0,0,1-2,1l-9,1c-1.2-.27-2.9.68-3.5-1-.47-1.28.95-2,1.73-2.76q12.47-12.52,25-25C196,46.5,197.72,44.71,198,42Z" transform="translate(-14 -7)"/><path class="cls-72" d="M184,75a8.78,8.78,0,0,1,6-1.93c.22,1.82-.82,4.1,1.6,5.15,2.74,1.18,4.5-.8,6.39-2.23a30.59,30.59,0,0,0,11.6-8c1.76-2.06,3.92-3,6.4-1-.85,4-4.56,5.43-7,8l-5,4c-1.57,4.13-9.28,4.4-6.9,11-1.31-1.74-2.64-.51-4,0A29.8,29.8,0,0,1,184,92.05C183.61,86.37,181.64,80.69,184,75Z" transform="translate(-14 -7)"/><path class="cls-73" d="M184,75c-2.36,5.68-.39,11.36,0,17-1.77,1.56-3.94.77-5.93,1-2.2-3.68-.5-7.74-1.11-11.56-.44-2.73.77-4.32,3-5.44a2.32,2.32,0,0,0,2-1Z" transform="translate(-14 -7)"/><path class="cls-74" d="M216,67c-2.48-2-4.64-1.11-6.4,1A30.59,30.59,0,0,1,198,76c-2.83-.81-2.66-2.81-2-5l8-4c4.31-.77,8.13-4.61,13-2.07.35.34.69.69,1,1Z" transform="translate(-14 -7)"/><path class="cls-75" d="M196,71c-.66,2.2-.83,4.2,2,5-1.89,1.43-3.65,3.41-6.39,2.23-2.42-1-1.38-3.33-1.6-5.15Z" transform="translate(-14 -7)"/><path class="cls-76" d="M214,121c-2,2.82-.55,6-1,9-2.26,6.57-.38,13.35-1,20,.39,2.33-.92,4.89,1,7v6c.34,2.33.67,4.67,1,7-1.29,7.11,2.49,12.89,5,19q2,5.5,4,11l-2.16,1c-4.21-7.62-6.38-16.1-10-24a5.63,5.63,0,0,0-.93-4.08c-.08-1.74.65-3.62-.88-5.12A2.09,2.09,0,0,0,209,167c-.16-1.72.44-3.58-.94-5.07l-1.17-15c-.25-15.46.65-30.82,4.11-45.95l1-3c0-1.91,1-3.43,1.74-5.1,3.17-7.1,6.74-14.07,8.2-21.82,2.63-.81,2.87,1.75,4.1,2.92,2.34,3.92-.61,7.18-1.45,10.66A74,74,0,0,1,222,92q-1,2-2,4c-.58,1.38-2.15,2.26-2,4A69.65,69.65,0,0,0,214,121Z" transform="translate(-14 -7)"/><path class="cls-77" d="M221.92,71.08c-1.46,7.75-5,14.72-8.2,21.82C213,94.57,212,96.09,212,98c-3.07-.73-2.94-3.23-3-5.54-.06-5.82,0-11.64,0-17.46,2.44-2.57,6.15-4,7-8l2-1C220.5,66.79,220.66,69.35,221.92,71.08Z" transform="translate(-14 -7)"/><path class="cls-78" d="M169,33c3.64.76,7.14,2.26,11,2.07a16.66,16.66,0,0,1-4.09,5.58Q159.63,56.83,143.46,73.1c-1.21,1.21-3.11,2.06-3,4.27,1.33,1.21,3.47-.06,4.55,1.62l-4,0-6,0c-1.4-1.65-3.32-.74-5-1-.48-2.81,1.06-4.62,2.91-6.46q16.64-16.49,33.15-33.1c1.51-1.51,3.33-2.86,2.92-5.42Z" transform="translate(-14 -7)"/><path class="cls-79" d="M145,79c-1.08-1.68-3.22-.41-4.55-1.62-.1-2.21,1.8-3.06,3-4.27q16.15-16.29,32.43-32.46A16.66,16.66,0,0,0,180,35.06l9,3c0,1.92-1.47,2.89-2.61,4-9.4,9.58-18.84,19.13-28.21,28.73-1.81,1.86-5.16,4.07-4.39,6.08.95,2.45,4.74.63,7.24,1.09l-1,1-6,0h-6Z" transform="translate(-14 -7)"/><path class="cls-80" d="M161,78c-2.5-.46-6.29,1.36-7.24-1.09-.77-2,2.58-4.22,4.39-6.08,9.37-9.6,18.81-19.15,28.21-28.73C187.52,41,189,40,189,38.06l8,3,1,1c-.27,2.67-2,4.46-3.75,6.24q-12.53,12.47-25,25c-.78.78-2.2,1.48-1.73,2.76.6,1.65,2.3.7,3.5,1a2.23,2.23,0,0,1-2,1Z" transform="translate(-14 -7)"/><path class="cls-50" d="M160,31c2,.33,4.23-.78,6,1L164,32c-1.37-.21-2.95.39-4-1Z" transform="translate(-14 -7)"/><path class="cls-78" d="M164,32l2-.06c1.08.1,2.28-.12,3,1l0,0C167.31,32.75,165.41,33.66,164,32Z" transform="translate(-14 -7)"/><path class="cls-81" d="M218,100c-.14-1.74,1.43-2.62,2-4C222,98.66,219,98.84,218,100Z" transform="translate(-14 -7)"/><path class="cls-82" d="M124,34c1.39-.1,2.94.43,4-1l6-1h7c4.32,0,8.63,0,12.94.05,1.23,0,2.95-.69,3.54.9.5,1.3-.58,2.5-1.43,3.49s-1.85,1.91-2.78,2.85Q136.87,55.64,120.49,72c-1.59,1.58-3.44,3-.49,5h-1c-3-.72-6.16-1.21-9.11-2.21C102.55,72.32,95.29,69.61,88,67c-1.57-.9-2.9-2.42-5-2q-2-2.11-4,0c-5.78,1.23-8.26,5.44-5.79,11,3.63,8.2,6.53,16.66,9.78,25-1.55,4.64,1.3,8.18,3,12,1.51,4.24.85,8.66,1,13,0,1.33,0,2.66,0,4-.71-.14-1.78-.85-1.91.44-.39,3.84-.72,7.25-4.28,1.43-.85-1.39-3-.36-3.8-1.87-.33-3.7.7-7.18,1.74-10.66.4-1.31.44-2.67-.79-3.63s-2.16,0-3,.82Q62.48,129.25,50,142c-1.39-.56-2.26-2.15-4-2-1.77-1.64-.63-7.36-5.84-4.15L40,134c0-2.32,0-4.64,0-7A112.6,112.6,0,0,1,62.54,74.1C78.32,53.69,99.12,40.62,124,34Z" transform="translate(-14 -7)"/><path class="cls-83" d="M120,77c-3-2-1.1-3.41.49-5q16.38-16.35,32.74-32.73c.93-.94,1.91-1.84,2.78-2.85s1.93-2.19,1.43-3.49c-.59-1.59-2.31-.87-3.54-.9C149.59,32,145.28,32,141,32c0-.32,0-.64.08-1h19c1.07,1.4,2.65.8,4,1,1.4,1.63,3.3.72,5,1,.41,2.56-1.41,3.91-2.92,5.42Q149.5,55,132.91,71.54c-1.85,1.84-3.39,3.65-2.91,6.46C126.66,77.71,123.19,78.77,120,77Z" transform="translate(-14 -7)"/><path class="cls-51" d="M141,31c0,.32,0,.64-.08,1h-7C136.14,30.1,138.7,31.37,141,31Z" transform="translate(-14 -7)"/><path class="cls-84" d="M50,142q12.49-12.74,25-25.47c.8-.81,1.68-1.82,3-.82s1.19,2.32.79,3.63c-1,3.48-2.07,7-1.74,10.66-6.71,2.31-10.29,8.37-15.23,12.79-2.84,2.53-4.2,5.56-1.77,9.21l-1,2c-5.44-2.11-9,.66-12.15,4.61A8.54,8.54,0,0,1,41.06,162c0-1-.05-2-.08-3-.29-2,.83-4.26-1-6-1.13-5.95-1.06-12-1-18l1-1,.18,1.89c5.21-3.21,4.07,2.51,5.84,4.15C47.17,141,47.34,144,50,142Z" transform="translate(-14 -7)"/><path class="cls-78" d="M41.06,162a8.54,8.54,0,0,0,5.79-3.38c3.18-4,6.71-6.72,12.15-4.61a26.73,26.73,0,0,0,0,3c.7,5.53-7.8,17.07-13.19,17.75-.56.07-1.21-.46-1.82-.71L42,167Z" transform="translate(-14 -7)"/><path class="cls-78" d="M40,153c1.8,1.78.68,4,1,6C39.26,157.26,40.27,155,40,153Z" transform="translate(-14 -7)"/><path class="cls-85" d="M44,174c.61.25,1.26.78,1.82.71C51.24,174,59.74,162.5,59,157a26.73,26.73,0,0,1,0-3l1-2c1.18-1.14,2.38-2.68,4.19-1.91,6,2.56,9.39-1.47,13.21-4.9,3.12-2.8,5.16-6.91,9.59-8.19-.52,5.66,1.17,11.45-1,17-.26-1.2.7-2.92-1-3.5-1.28-.43-1.92,1-2.78,1.76-3,2.51-4.82,6.75-10.23,5.12-1.66-.5-3.16,1.79-2.3,4.37.93,2.8.25,4.94-2.83,6.45-2.14,1.06-3.7,3.29-5.55,4.95Q54.7,179.1,48,185A44.34,44.34,0,0,1,44,174Z" transform="translate(-14 -7)"/><path class="cls-80" d="M48,185q6.66-5.91,13.3-11.83c1.85-1.66,3.41-3.89,5.55-4.95,3.08-1.51,3.76-3.65,2.83-6.45-.86-2.58.64-4.87,2.3-4.37,5.41,1.63,7.26-2.61,10.23-5.12.86-.72,1.5-2.19,2.78-1.76,1.68.58.72,2.3,1,3.5.09,6.18.13,12.35-3,18-7-3.41-9.49-3-15,2.53-4,4-8,8-12,12-1.67,1.69-3.42,3.17-5.9,3.44C49.27,188.37,48.12,186.9,48,185Z" transform="translate(-14 -7)"/><path class="cls-33" d="M83,172c3.13-5.64,3.09-11.81,3-18,2.16-5.56.47-11.35,1-17l0-6c1.08-.15,1.91-.64,1.91-1.84,0-4,0-8,0-13.1-1.91,3.87.32,7.29-1.93,10-.15-4.35.51-8.77-1-13,1.11-4.54-2.54-7.87-3-12-3.25-8.34-6.15-16.8-9.78-25-2.47-5.56,0-9.77,5.79-11,1.88-.73,2.83,3.14,5,1,1.85.69,2.68,3.09,5,3a15.41,15.41,0,0,0,5,5,10.62,10.62,0,0,0,4.65,2.94A8,8,0,0,0,95,73c-2.29-.9-3.15-3.94-6-4l-1-2c7.29,2.61,14.55,5.32,21.89,7.79,3,1,6.07,1.49,9.11,2.21q0,8.52,0,17c-6.62.49-12.34-2.89-18.49-4.4-2.9-.72-3.72-.54-2.61,2.54S100,98.72,101,102q.54,6,1.1,11.92c-1.7,1.59-1.41,2.62.87,3.07l1,1c.4,3-1.19,5.77-.8,8.86a140.87,140.87,0,0,1-4.83,57c-1.53,5.31-.31,5.14,3.65,4.09.43.74,1.14,1.25,1.91.9,1.06-.48.18-1.29.08-2l.76-1.7c1.77,1.72,3.68.71,5.56.31,2.88-.61,5.67-1.87,8.73-1.3,1.49,4.94-.66,9.88,0,14.82a1.81,1.81,0,0,0-2,2c-3.81,2-8.47,1.41-12.08,4L85,212c-1.9-1.87-3-.55-4,1-6-.1-7.9-1.76-9-8q4.5-11.5,9-23A18.17,18.17,0,0,0,83,172Zm10.26-69.31c-.3-.84-1-.67-1.61-.62s-1.34.36-1.29,1.16a1.11,1.11,0,0,0,1.31,1.12A2,2,0,0,0,93.26,102.69Z" transform="translate(-14 -7)"/><path class="cls-86" d="M68.92,185.31c-.16,1.82-1.3,2.77-2.91,3.53C65.68,186.45,67.93,186.39,68.92,185.31Z" transform="translate(-14 -7)"/><path class="cls-87" d="M72.28,183.44c1-2.57,2.1-3.52,4.58-4.69C75.72,181.06,74.58,182,72.28,183.44Z" transform="translate(-14 -7)"/><path class="cls-88" d="M85,212l19.94-7c3.79,1.39,1.84,3.81,1.08,6l-11,5a16.36,16.36,0,0,0-3.76,1c-3.78,2.06-7.48,2.26-11.23,0-2.08-2.75,1-2.82,2-3.94Z" transform="translate(-14 -7)"/><path class="cls-89" d="M106,211c.76-2.21,2.71-4.63-1.08-6,3.61-2.59,8.27-2,12.08-4l3-.14,2,.14c1.7-.17,3.58.67,5-.87l3.95-.28a4.65,4.65,0,0,0,4.08-.91l1,.19,2,4.91h-1c-2.33.37-4.89-.92-7,1-4.34,1-8.88,1.13-13,3a6.65,6.65,0,0,0-4,1Z" transform="translate(-14 -7)"/><path class="cls-90" d="M85,212l-2.93,1.12L81,213C82,211.4,83.08,210.08,85,212Z" transform="translate(-14 -7)"/><path class="cls-91" d="M201,212a6.89,6.89,0,0,1-2,4.43c-8,7.89-16,15.72-24,23.57-2.8,0-6.36,0-7.55-2.31-1.44-2.86.7-5.8,2.64-8.45,4.53-6.17,10.55-10.89,15.64-16.49,1.3-1.43,3.23-2.44,3.27-4.75Z" transform="translate(-14 -7)"/><path class="cls-65" d="M152,226c-.59-2.49-3.59-3.39-4-6,0-4.7,4.36-6.29,6.81-9.19,1.73-2.05,3.75-3.76,3.19-6.8h8c1.76,1.8,4,.68,6,1h0c1.21,1.29,3.06,2.53,1,4.43C166.41,215.47,161.44,223.58,152,226Z" transform="translate(-14 -7)"/><path class="cls-92" d="M201,212l-12-4-13-3a2.81,2.81,0,0,0,3-3l1-.16,5,1a19.61,19.61,0,0,0,7,2.2,6.9,6.9,0,0,0,5,2,15.29,15.29,0,0,0,7,3.68,6.73,6.73,0,0,0,4,1.33V215C205.38,214.68,203.35,213,201,212Z" transform="translate(-14 -7)"/><path class="cls-93" d="M179,202a2.81,2.81,0,0,1-3,3h-4c-1.76-1.8-4-.67-6-1h-8l-1,0c0-1.63,0-3.26,0-4.89l-.14-.24,3.1.06c2.37.07,4.56,1.43,7,1l5,.22,1,.88c1.43,1.7,3.37.79,5.09,1h.46Z" transform="translate(-14 -7)"/><path class="cls-66" d="M157,204l1,0c.56,3-1.46,4.75-3.19,6.8-2.45,2.9-6.78,4.49-6.81,9.19a12,12,0,0,1-6-7.4c-.2-.74-1.11-1.46-.58-2.24,4.83-7.06-1.09-5.14-4.45-5.36,0-.33,0-.66,0-1h20Z" transform="translate(-14 -7)"/><path class="cls-94" d="M137,204c0,.33,0,.66,0,1h-7C132.12,203.09,134.68,204.38,137,204Z" transform="translate(-14 -7)"/><path class="cls-95" d="M223,200q-2-5.5-4-11c6.51-1.21,11.5,2.77,17,5-3.15-.13-5.24,1.93-7.22,3.83A6.78,6.78,0,0,1,223,200Z" transform="translate(-14 -7)"/><path class="cls-96" d="M218.28,176.76c1.47,0,2.51.31,3.1,1.75C219.63,179.29,218.74,178.67,218.28,176.76Z" transform="translate(-14 -7)"/><path class="cls-62" d="M213,157c-1.92-2.11-.61-4.67-1-7h1Z" transform="translate(-14 -7)"/><path class="cls-28" d="M208,212.08a6.73,6.73,0,0,1-4-1.33c0-12.45-.25-24.93.21-37.37.23-6.27,0-7.24-6.22-7.38-4.44-1.4-4.09-6.05-6.14-9.07a13.06,13.06,0,0,1-1.68-8.93H191c-.15,2.83-.17,5.6,3,7a45.44,45.44,0,0,1,4.56,4.44c.93,1.19,2.64,2.41,4.31,1.72s1-2.58,1.13-4c.39-6,.77-12.08,1.19-18.63,1.79,3-.34,6.07,1.67,8.42l1.17,15c.19,1.71-.69,3.62.94,5.07a2.09,2.09,0,0,1,.09.86c.15,1.73-.72,3.64.88,5.12a5.63,5.63,0,0,1,.93,4.08c-2,1.77-1.89,4.11-1.88,6.46q0,14.24,0,28.47Z" transform="translate(-14 -7)"/><path class="cls-77" d="M209,212q0-14.23,0-28.47c0-2.35-.07-4.69,1.88-6.46,3.59,7.89,5.76,16.37,10,24,1.2,4,1.56,7.94-2.24,10.73A7.9,7.9,0,0,1,209,212Z" transform="translate(-14 -7)"/><path class="cls-65" d="M213,150h-1c.62-6.65-1.26-13.43,1-20v20Z" transform="translate(-14 -7)"/><path class="cls-97" d="M169,78a2.23,2.23,0,0,0,2-1l9-1c-2.25,1.12-3.46,2.71-3,5.44.61,3.82-1.09,7.88,1.11,11.56-1.78,1.58-4,.79-6,1-2.29.12-3.2-.93-3.14-3.24C169.09,86.54,169,82.27,169,78Z" transform="translate(-14 -7)"/><path class="cls-24" d="M206.86,146.94c-2-2.35.12-5.46-1.67-8.42-.42,6.55-.8,12.59-1.19,18.63-.1,1.43.53,3.32-1.13,4s-3.38-.53-4.31-1.72A45.44,45.44,0,0,0,194,155c2.05,0,4.07.18,4-2.9-.1-5.3.07-10.62-.08-15.92-.08-2.58-1.14-3.5-3.88-2-2.13,1.17-3.32,2.26-3.11,4.86.23,3,.05,6,.05,8.95h-.82c.6-8.65-1.1-17.21.45-26,1.44-8.18,3-16.49,3.34-24.88,2.4-1.76,1.52-5,3.13-7.07-2.38-6.61,5.33-6.88,6.9-11,1.82,3.44,1.09,7.18.9,10.73-.28,5.18,0,9.67,6.07,11.26C207.51,116.12,206.61,131.48,206.86,146.94Z" transform="translate(-14 -7)"/><path class="cls-52" d="M197.1,90c-1.61,2.1-.73,5.31-3.13,7.07-5.77-.7-11.06,2.75-16.85,2-2.81,0-2-4.63-5.22-4.08.06-.31.13-.61.21-.92,2-.22,4.19.57,6-1,2-.21,4.16.58,5.93-1A29.8,29.8,0,0,0,193.13,90C194.46,89.5,195.79,88.27,197.1,90Z" transform="translate(-14 -7)"/><path class="cls-28" d="M211,101c-6.07-1.59-6.35-6.08-6.07-11.26.19-3.55.92-7.29-.9-10.73l5-4c0,5.82,0,11.64,0,17.46,0,2.31-.11,4.81,3,5.54Z" transform="translate(-14 -7)"/><path class="cls-24" d="M209.94,173c-1.6-1.48-.73-3.39-.88-5.12C210.59,169.35,209.86,171.23,209.94,173Z" transform="translate(-14 -7)"/><path class="cls-24" d="M209,167c-1.63-1.45-.75-3.36-.94-5.07C209.41,163.41,208.81,165.27,209,167Z" transform="translate(-14 -7)"/><path class="cls-98" d="M119,94q0-8.52,0-17h1c3.19,1.78,6.66.72,10,1,1.68.25,3.6-.66,5,1v0c-2.61.69-6.23-1.76-7.82,1.83-1.78,4,.18,12.29,2.82,14.14l-8,0C120.93,94.87,119.71,95.27,119,94Z" transform="translate(-14 -7)"/><path class="cls-99" d="M145,79l3,0V95.89h-4c-.78-1-1.93-.85-3-.88V79Z" transform="translate(-14 -7)"/><path class="cls-11" d="M141,79V95c-5.15,1-6.61-1.4-6.07-6.21A88.57,88.57,0,0,0,135,79v0Z" transform="translate(-14 -7)"/><path class="cls-100" d="M172.11,94c-.08.31-.15.61-.21.92L170,95l-9,0L161,95c-1.7-5.24-.73-10.64-1-16l1-1h8c0,4.26.09,8.53,0,12.79C168.91,93.11,169.82,94.16,172.11,94Z" transform="translate(-14 -7)"/><path class="cls-101" d="M148,95.89V79h6v9.3C154,95,154,95,161,95l.06.09c0,.3-.07.61-.13.91Z" transform="translate(-14 -7)"/><path class="cls-102" d="M161,95c-7,.08-7,.08-7-6.65V79l6,0C160.25,84.32,159.28,89.72,161,95Z" transform="translate(-14 -7)"/><path class="cls-78" d="M87,131l0,6c-4.43,1.28-6.47,5.39-9.59,8.19-3.82,3.43-7.17,7.46-13.21,4.9-1.81-.77-3,.77-4.19,1.91-2.43-3.65-1.07-6.68,1.77-9.21C66.71,138.37,70.29,132.31,77,130c.83,1.51,3,.48,3.8,1.87,3.56,5.82,3.89,2.41,4.28-1.43.13-1.29,1.2-.58,1.91-.44Z" transform="translate(-14 -7)"/><path class="cls-103" d="M87,131l0-1c0-1.33,0-2.66,0-4,2.25-2.68,0-6.1,1.93-10,0,5.07,0,9.09,0,13.1C88.93,130.34,88.1,130.83,87,131Z" transform="translate(-14 -7)"/><path class="cls-104" d="M83,101c.48,4.13,4.13,7.46,3,12C84.29,109.18,81.44,105.64,83,101Z" transform="translate(-14 -7)"/><path class="cls-105" d="M89,69c-2.33.1-3.16-2.3-5-3l-1-1c2.1-.42,3.43,1.1,5,2l1,2Z" transform="translate(-14 -7)"/><path class="cls-106" d="M83,65l1,1c-2.16,2.13-3.11-1.74-5-1Q81,62.89,83,65Z" transform="translate(-14 -7)"/><path class="cls-107" d="M50,142c-2.66,2-2.83-1-4-2C47.74,139.85,48.61,141.44,50,142Z" transform="translate(-14 -7)"/><path class="cls-108" d="M107.83,121c2.26,20.37,2,40.64-2.59,60.72-.26,1.13-.35,2.3-.52,3.45l-.77,1.7-2,1.07c-4,1.05-5.18,1.22-3.65-4.09a140.87,140.87,0,0,0,4.83-57c-.39-3.09,1.2-5.86.8-8.86C106.6,117.23,106.45,120.11,107.83,121Z" transform="translate(-14 -7)"/><path class="cls-61" d="M119,184.18c2.28-.65,4.54-1.51,7-1,0,3.16.21,6.34,0,9.47-.34,3.92,1.17,6.27,5,7.18l-3.95.28c-1.72.07-3.57-.58-5,.87l-2-.14L119,199C118.34,194.06,120.49,189.12,119,184.18Z" transform="translate(-14 -7)"/><path class="cls-109" d="M120,98c-6-.16-11.48-2.62-17.42-4-.56,2.89,1.74,5.22,1.48,8h-3c-1-3.28-2-6.6-3.12-9.82s-.29-3.26,2.61-2.54c6.15,1.51,11.87,4.89,18.49,4.4.72,1.23,1.94.83,3,.92A3.08,3.08,0,0,1,120,98Z" transform="translate(-14 -7)"/><path class="cls-110" d="M101,102h3a29.23,29.23,0,0,1,2.83,12c-1,1.37-2.13,2.3-3.83,1l-.9-1.07Q101.56,108,101,102Z" transform="translate(-14 -7)"/><path class="cls-111" d="M103,115c1.7,1.32,2.82.39,3.83-1,.44,2.32,1.55,4.54,1,7-1.38-.89-1.23-3.77-3.89-3l-1-1Z" transform="translate(-14 -7)"/><path class="cls-105" d="M89,69c2.85.06,3.71,3.1,6,4l-1,1a15.41,15.41,0,0,1-5-5Z" transform="translate(-14 -7)"/><path class="cls-112" d="M94,74l1-1a8,8,0,0,1,3.65,3.94A10.62,10.62,0,0,1,94,74Z" transform="translate(-14 -7)"/><path class="cls-113" d="M93.26,102.69a2,2,0,0,1-1.59,1.66,1.11,1.11,0,0,1-1.31-1.12c0-.8.59-1.11,1.29-1.16S93,101.85,93.26,102.69Z" transform="translate(-14 -7)"/><path class="cls-114" d="M103,115l0,2c-2.28-.45-2.57-1.48-.87-3.07Z" transform="translate(-14 -7)"/><path class="cls-115" d="M102,187.94l2-1.07c.1.68,1,1.49-.08,2C103.1,189.19,102.39,188.68,102,187.94Z" transform="translate(-14 -7)"/><path class="cls-116" d="M119,199l1,1.82-3,.14A1.81,1.81,0,0,1,119,199Z" transform="translate(-14 -7)"/><path class="cls-117" d="M130.92,199.81c-3.8-.91-5.31-3.26-5-7.18.26-3.13,0-6.31,0-9.47l3-.16h5c0,5.32-.37,10.66,1,15.9A4.65,4.65,0,0,1,130.92,199.81Z" transform="translate(-14 -7)"/><path class="cls-118" d="M135,198.9c-1.37-5.24-1-10.58-1-15.9,4.61-.79,6.82.9,6,5.78a15.52,15.52,0,0,0,0,2.46c0,6.77,0,6.77,7,6.75h7c1,.06,2.17-.21,2.9.87l.13.24H136Z" transform="translate(-14 -7)"/><path class="cls-94" d="M136,199.09h21l0,4.89H138Z" transform="translate(-14 -7)"/><path class="cls-94" d="M121.92,201c1.48-1.45,3.33-.8,5-.87C125.5,201.63,123.62,200.79,121.92,201Z" transform="translate(-14 -7)"/><path class="cls-92" d="M166,204c2,.32,4.25-.81,6,1C170,204.68,167.75,205.8,166,204Z" transform="translate(-14 -7)"/><path class="cls-24" d="M196.91,189l.27-1c3.46-7.2,1.87-14.58.82-21.94,6.23.14,6.45,1.11,6.22,7.38-.46,12.44-.18,24.92-.21,37.37a15.29,15.29,0,0,1-7-3.68C198.39,201,198.71,195,196.91,189Z" transform="translate(-14 -7)"/><path class="cls-19" d="M196.91,189c1.8,6,1.48,12.07.06,18.12a6.9,6.9,0,0,1-5-2c-3.44-5.75-2.12-11.77-1-17.77Z" transform="translate(-14 -7)"/><path class="cls-119" d="M172,183.92l4.06.26c2.19.92,3,2.38,3,4.93,0,4.25-1.06,8.63.87,12.77l-1,.16-.46-.08h-.46c-1.47-1.5-3.36-.86-5.09-1l-1-.88Q172,192,172,183.92Z" transform="translate(-14 -7)"/><path class="cls-18" d="M180,201.88c-1.93-4.14-.83-8.52-.87-12.77,0-2.55-.85-4-3-4.93a20.46,20.46,0,0,1,8.94,1.94q0,8.38,0,16.77Z" transform="translate(-14 -7)"/><path class="cls-72" d="M185,202.89q0-8.38,0-16.77c2.16-.41,4,.54,6,1.2-1.13,6-2.45,12,1,17.77A19.61,19.61,0,0,1,185,202.89Z" transform="translate(-14 -7)"/><path class="cls-120" d="M153,182.17c4.7-.31,9.4-.48,14,1v16.73c-2.44.47-4.63-.89-7-1a89.74,89.74,0,0,1,.07-10c.55-4.87-1.31-6.76-6.07-5.94Z" transform="translate(-14 -7)"/><path class="cls-121" d="M154,183c4.76-.82,6.62,1.07,6.07,5.94a89.74,89.74,0,0,0-.07,10l-3.1-.06c-.73-1.08-1.86-.81-2.9-.87Z" transform="translate(-14 -7)"/><path class="cls-122" d="M167,199.88V183.15a6.42,6.42,0,0,1,5,.78q0,8.08,0,16.17Z" transform="translate(-14 -7)"/><path class="cls-92" d="M173,201c1.73.13,3.62-.51,5.09,1C176.36,201.77,174.42,202.68,173,201Z" transform="translate(-14 -7)"/><path class="cls-19" d="M191,148c0-3,.18-6-.05-8.95-.21-2.6,1-3.69,3.11-4.86,2.74-1.51,3.8-.59,3.88,2,.15,5.3,0,10.62.08,15.92,0,3.08-2,2.93-4,2.9C190.83,153.6,190.85,150.83,191,148Z" transform="translate(-14 -7)"/><path class="cls-123" d="M198,166c1.05,7.36,2.64,14.74-.82,21.94-3.71-9.09-4.65-18.78-6.15-28.34a2.41,2.41,0,0,1,.83-2.67C193.91,160,193.56,164.6,198,166Z" transform="translate(-14 -7)"/><path class="cls-124" d="M177.12,99c-2.9,1.65-6.07.73-9.12,1V96a2.07,2.07,0,0,0,2-1L171.9,95C175.14,94.41,174.31,99.05,177.12,99Z" transform="translate(-14 -7)"/><path class="cls-117" d="M135,79a88.57,88.57,0,0,1-.07,9.78c-.54,4.81.92,7.19,6.07,6.21,1.08,0,2.23-.17,3,.88l-5,.17L130,95c-2.64-1.85-4.6-10.13-2.82-14.14C128.77,77.25,132.39,79.7,135,79Z" transform="translate(-14 -7)"/><path class="cls-125" d="M130,95l9,1.07a6.61,6.61,0,0,0,1,3.94l-3.46.14c-5.6-.16-11.19-.42-16.59-2.1A3.08,3.08,0,0,0,122,95Z" transform="translate(-14 -7)"/><path class="cls-126" d="M140,100a6.61,6.61,0,0,1-1-3.94l5-.17h4l12.91.07L168,96v4H140Z" transform="translate(-14 -7)"/><path class="cls-52" d="M168,96l-7.09,0c.06-.3.1-.61.13-.91l9,0A2.07,2.07,0,0,1,168,96Z" transform="translate(-14 -7)"/><path class="cls-101" d="M154,183v15h-7c-2.23-5.08.31-10.76-2-15.84l8,0Z" transform="translate(-14 -7)"/><path class="cls-127" d="M145,182.15c2.28,5.08-.26,10.76,2,15.84-7,0-7,0-7-6.75a15.52,15.52,0,0,1,0-2.46c.8-4.88-1.41-6.57-6-5.78h-5C134.26,181,139.69,182.35,145,182.15Z" transform="translate(-14 -7)"/><path class="cls-124" d="M140,100h28c-4.47,2-9.17.9-13.73.87-5.91-.05-11.9,1.1-17.74-.74Z" transform="translate(-14 -7)"/></svg>