<?xml version="1.0" encoding="iso-8859-1"?>
<!-- Generator: Adobe Illustrator 22.0.0, SVG Export Plug-In . SVG Version: 6.00 Build 0)  -->
<svg version="1.1" id="&#x56FE;&#x5C42;_1" xmlns="http://www.w3.org/2000/svg" xmlns:xlink="http://www.w3.org/1999/xlink" x="0px"
	 y="0px" viewBox="0 0 52 52" style="enable-background:new 0 0 52 52;" xml:space="preserve">
<path style="opacity:0.9;fill:#FFFFFF;" d="M26,3.544c12.4,0,22.453,10.053,22.453,22.453C48.453,38.397,38.4,48.45,26,48.45
	C13.6,48.45,3.547,38.397,3.547,25.997C3.544,13.597,13.597,3.544,26,3.544 M26,0C11.641,0,0,11.641,0,26c0,14.359,11.641,26,26,26
	c14.358,0,26-11.641,26-26C52,11.641,40.359,0,26,0L26,0z M26,0"/>
<g style="opacity:0.9;">
	<path style="fill:#FFFFFF;" d="M34.281,12.418c-3.589,0-6.499,2.91-6.499,6.499c0,3.589,2.91,6.499,6.499,6.499
		c3.589,0,6.499-2.91,6.499-6.499C40.78,15.327,37.87,12.418,34.281,12.418z M34.281,22.698c-2.088,0-3.781-1.693-3.781-3.781
		c0-2.088,1.693-3.781,3.781-3.781c2.088,0,3.781,1.693,3.781,3.781C38.062,21.005,36.369,22.698,34.281,22.698z"/>
</g>
<g style="opacity:0.9;">
	<path style="fill:#FFFFFF;" d="M45.347,39.685l-6.51-6.51c-0.491-0.491-1.286-0.491-1.777,0l-3.368,3.368
		c-0.782,0.782-2.051,0.782-2.833,0L20.152,25.837c-0.491-0.491-1.286-0.491-1.777,0L6.39,37.822c-0.532,0.532-1.395,0.532-1.928,0
		h0c-0.532-0.532-0.532-1.395,0-1.928L17.847,22.51c0.782-0.782,2.051-0.782,2.833,0l10.707,10.707c0.491,0.491,1.286,0.491,1.777,0
		l3.368-3.368c0.782-0.782,2.051-0.782,2.833,0l7.909,7.909c0.532,0.532,0.532,1.395,0,1.928h0
		C46.742,40.218,45.879,40.218,45.347,39.685z"/>
</g>
</svg>
