<?xml version="1.0" encoding="utf-8"?>
<!-- Generator: Adobe Illustrator 24.0.1, SVG Export Plug-In . SVG Version: 6.00 Build 0)  -->
<svg version="1.1" id="图层_1" xmlns="http://www.w3.org/2000/svg" xmlns:xlink="http://www.w3.org/1999/xlink" x="0px" y="0px"
	 viewBox="0 0 560 560" style="enable-background:new 0 0 560 560;" xml:space="preserve">
<style type="text/css">
	.st0{opacity:0.1;}
	.st1{opacity:0.43;}
	.st2{font-family:'FZLTZHK--GBK1-0';}
	.st3{font-size:40.4745px;}
</style>
<g>
	<g>
		<path d="M41.4,219c-7,0-12.6-5.6-12.6-12.6V88.3c0-26.4,21.3-47.7,47.7-47.7h118.4c7,0,12.6,5.6,12.6,12.6s-5.6,12.6-12.6,12.6
			H76.5c-12.3,0-22.4,10.1-22.4,22.4v118.4C54.1,213.4,48.2,219,41.4,219z"/>
	</g>
	<g>
		<path d="M352.7,53.3c0-7,5.6-12.6,12.6-12.6h118.4c26.4,0,47.7,21.3,47.7,47.7v118.4c0,7-5.6,12.6-12.6,12.6s-12.6-5.6-12.6-12.6
			V88.3c0-12.3-10.1-22.4-22.4-22.4H365.4C358.4,65.6,352.7,60,352.7,53.3z"/>
	</g>
	<g>
		<path d="M207.5,536.8c0,7-5.6,12.6-12.6,12.6H76.5c-26.4,0-47.7-21.3-47.7-47.7V383.4c0-7,5.6-12.6,12.6-12.6S54,376.4,54,383.4
			v118.4c0,12.3,10.1,22.4,22.4,22.4h118.4C201.9,524.4,207.5,530,207.5,536.8z"/>
	</g>
	<g>
		<path d="M518.8,371c7,0,12.6,5.6,12.6,12.6V502c0,26.4-21.3,47.7-47.7,47.7H365.4c-7,0-12.6-5.6-12.6-12.6s5.6-12.6,12.6-12.6
			h118.4c12.3,0,22.4-10.1,22.4-22.4V383.4C506.2,376.6,511.8,371,518.8,371z"/>
	</g>
	<path d="M15.1,310.4h37c1.7,0,2.8-1.1,2.8-2.8v-22.7c0-1.7-1.1-2.8-2.8-2.8h-37c-7.9,0-14.3,6.5-14.3,14.3l0,0
		C0.8,304,6.9,310.4,15.1,310.4z"/>
	<path d="M546.3,282.1h-37c-1.7,0-2.8,1.1-2.8,2.8v22.7c0,1.7,1.1,2.8,2.8,2.8h37c7.9,0,14.3-6.5,14.3-14.3l0,0
		C560.6,288.3,554.1,282.1,546.3,282.1z"/>
	<g>
		<rect x="104.2" y="115.7" class="st0" width="352.7" height="352.7"/>
		<g class="st1">
			<text transform="matrix(1 0 0 1 219.8086 277.4302)" class="st2 st3">请添加</text>
			<text transform="matrix(1 0 0 1 219.8086 331.2754)" class="st2 st3">二维码</text>
		</g>
	</g>
</g>
</svg>
