<?xml version="1.0" encoding="utf-8"?>
<!-- Generator: Adobe Illustrator 24.0.1, SVG Export Plug-In . SVG Version: 6.00 Build 0)  -->
<svg version="1.1" id="图层_1" xmlns="http://www.w3.org/2000/svg" xmlns:xlink="http://www.w3.org/1999/xlink" x="0px" y="0px"
	 viewBox="0 0 560 560" style="enable-background:new 0 0 560 560;" xml:space="preserve">
<style type="text/css">
	.st0{fill:#FFFFFF;}
	.st1{fill:#30BF91;}
	.st2{fill:none;stroke:#000000;stroke-width:7;stroke-linecap:round;stroke-miterlimit:10;}
	.st3{opacity:0.1;}
	.st4{opacity:0.43;}
	.st5{font-family:'FZLTZHK--GBK1-0';}
	.st6{font-size:28.3099px;}
	.st7{fill:#FFFFFF;stroke:#000000;stroke-width:7;stroke-linecap:round;stroke-miterlimit:10;}
</style>
<g>
	<path d="M74.9,130.5c9.6,0,18.7,3.8,25.7,10.6l87,87c14.2,14.2,14.2,37.4,0,51.6c-7,7-15.8,10.6-25.7,10.6
		c-9.7,0-18.8-3.8-25.7-10.6l-87-87c-14.2-14.2-14.2-37.4,0-51.6C56.2,134.2,65.1,130.5,74.9,130.5 M74.9,124.5
		c-11,0-21.6,4.1-29.9,12.4c-16.6,16.6-16.6,43.5,0,60.1l87,87c8.3,8.3,19.2,12.4,29.9,12.4c11,0,21.6-4.1,29.9-12.4
		c16.6-16.6,16.6-43.5,0-60.1l-87-87C96.5,128.7,85.8,124.5,74.9,124.5L74.9,124.5z"/>
</g>
<g>
	<path class="st0" d="M100.7,496.2V81.5c0-21.8,18-39.5,40.2-39.5h277.6c22.2,0,40.2,17.7,40.2,39.5v414.7H100.7z"/>
	<path d="M418.5,45c10,0,19.3,3.8,26.4,10.7c7,6.9,10.8,16,10.8,25.8v411.7h-352V81.5c0-9.8,3.8-19,10.8-25.8
		c7-6.9,16.4-10.7,26.4-10.7H418.5 M418.5,39H140.9c-24,0-43.2,18.9-43.2,42.5v417.7h364V81.5C461.7,57.9,442.4,39,418.5,39
		L418.5,39z"/>
</g>
<path class="st1" d="M431.7,496.8H129.8V139.3c0-9.2,7.4-16.6,16.6-16.6h268.4c9.2,0,16.6,7.4,16.6,16.6L431.7,496.8L431.7,496.8z"
	/>
<g>
	<path d="M360.9,45l-0.2,16.1l0,0v0c0,13-10.6,23.6-23.6,23.6H222c-13,0-23.6-10.6-23.6-23.6V45H360.9 M367,39H192.4v22.2
		c0,16.3,13.3,29.6,29.6,29.6h115.1c16.3,0,29.6-13.3,29.6-29.6L367,39L367,39z"/>
</g>
<g>
	<rect x="420" y="429.9" class="st0" width="54.8" height="63.9"/>
</g>
<g>
	<rect x="371.8" y="478.4" class="st0" width="56.8" height="15.1"/>
</g>
<g>
	<rect x="431.3" y="422.5" class="st0" width="60.9" height="19.2"/>
</g>
<g>
	<path class="st0" d="M97.4,317.1c-10.5,0-20.3-4.1-27.8-11.5c-15.4-15.4-15.4-40.5,0-55.9c7.5-7.5,17.1-11.5,27.8-11.5
		c10.6,0,20.7,4.2,27.7,11.5c15.4,15.4,15.4,40.5,0,55.9C117.6,313.1,108,317.1,97.4,317.1z"/>
	<path d="M97.4,241.2c9.8,0,19.1,3.9,25.6,10.6l0,0l0,0c14.2,14.2,14.2,37.4,0,51.6c-7,7-15.8,10.6-25.7,10.6
		c-9.7,0-18.8-3.8-25.7-10.6c-14.2-14.2-14.2-37.4,0-51.6C78.7,244.9,87.6,241.2,97.4,241.2 M97.4,235.2c-11,0-21.6,4.1-29.9,12.4
		c-16.6,16.6-16.6,43.5,0,60.1c8.3,8.3,19.2,12.4,29.9,12.4c11,0,21.6-4.1,29.9-12.4c16.6-16.6,16.6-43.5,0-60.1
		C119.3,239.3,108.3,235.2,97.4,235.2L97.4,235.2z"/>
</g>
<line class="st2" x1="7.2" y1="496.5" x2="568.6" y2="496.5"/>
<g>
	<rect x="157.5" y="156.9" class="st3" width="246.7" height="246.7"/>
	<g class="st4">
		<text transform="matrix(1 0 0 1 238.3516 270.0698)" class="st5 st6">请添加</text>
		<text transform="matrix(1 0 0 1 238.3516 307.7314)" class="st5 st6">二维码</text>
	</g>
</g>
<path class="st7" d="M368.7,496.5h145.6V274.4c0.1-25-20.6-45.4-46.7-45.4c-25.7,0-46.8,20.4-46.8,45.5v155.7
	C378.1,454.8,368.7,496.5,368.7,496.5"/>
<path class="st2" d="M368.7,496.8c0,0,15.7-70.1,99.4-82"/>
<g>
	<path class="st0" d="M97.7,384.4c-10.5,0-20.3-4.1-27.8-11.5c-15.4-15.4-15.4-40.5,0-55.9c7.5-7.5,17.1-11.5,27.8-11.5
		c10.6,0,20.7,4.2,27.7,11.5c15.4,15.4,15.4,40.5,0,55.9C117.9,380.5,108.3,384.4,97.7,384.4z"/>
	<path d="M97.7,308.6c9.8,0,19.1,3.9,25.6,10.6l0,0l0,0c14.2,14.2,14.2,37.4,0,51.6c-7,7-15.8,10.6-25.7,10.6
		c-9.7,0-18.8-3.8-25.7-10.6c-14.2-14.2-14.2-37.4,0-51.6C79,312.2,87.9,308.6,97.7,308.6 M97.7,302.6c-11,0-21.6,4.1-29.9,12.4
		c-16.6,16.6-16.6,43.5,0,60.1c8.3,8.3,19.2,12.4,29.9,12.4c11,0,21.6-4.1,29.9-12.4c16.6-16.6,16.6-43.5,0-60.1
		C119.6,306.7,108.6,302.6,97.7,302.6L97.7,302.6z"/>
</g>
<g>
	<path class="st0" d="M97.4,447.7c-10.5,0-20.3-4.1-27.8-11.5c-15.4-15.4-15.4-40.5,0-55.9c7.5-7.5,17.1-11.5,27.8-11.5
		c10.6,0,20.7,4.2,27.7,11.5c15.4,15.4,15.4,40.5,0,55.9C117.6,443.8,108,447.7,97.4,447.7z"/>
	<path d="M97.4,371.9c9.8,0,19.1,3.9,25.6,10.6l0,0l0,0c14.2,14.2,14.2,37.4,0,51.6c-7,7-15.8,10.6-25.7,10.6
		c-9.7,0-18.8-3.8-25.7-10.6c-14.2-14.2-14.2-37.4,0-51.6C78.7,375.5,87.6,371.9,97.4,371.9 M97.4,365.9c-11,0-21.6,4.1-29.9,12.4
		c-16.6,16.6-16.6,43.5,0,60.1c8.3,8.3,19.2,12.4,29.9,12.4c11,0,21.6-4.1,29.9-12.4c16.6-16.6,16.6-43.5,0-60.1
		C119.3,369.9,108.3,365.9,97.4,365.9L97.4,365.9z"/>
</g>
</svg>
