<?xml version="1.0" encoding="utf-8"?>
<!-- Generator: Adobe Illustrator 24.0.1, SVG Export Plug-In . SVG Version: 6.00 Build 0)  -->
<svg version="1.1" id="图层_1" xmlns="http://www.w3.org/2000/svg" xmlns:xlink="http://www.w3.org/1999/xlink" x="0px" y="0px"
	 viewBox="0 0 560 560" style="enable-background:new 0 0 560 560;" xml:space="preserve">
<style type="text/css">
	.st0{fill:#30BE90;}
	.st1{fill:#FFFFFF;}
	.st2{fill:#30BE90;stroke:#000000;stroke-width:6;stroke-miterlimit:10;}
	.st3{opacity:0.1;}
	.st4{opacity:0.43;}
	.st5{font-family:'FZLTZHK--GBK1-0';}
	.st6{font-size:33.227px;}
</style>
<g>
	<path class="st0" d="M38,155.3c-19.3,0-35-15.7-35-35V3h362.1v152.3H38z"/>
	<path d="M362.1,6v146.3H38c-17.7,0-32-14.4-32-32V6H362.1 M368.1,0H0v120.2c0,21,17,38,38,38h330.1V0L368.1,0z"/>
</g>
<g>
	<path class="st1" d="M184.9,524.8c-17.6,0-31.9-14.3-32-31.9l0-0.2v-406c0-13.4-7-25.3-17.6-32.1h338c23.1,0,42,18.8,42,42v428.1
		H184.9z"/>
	<path d="M473.3,57.7c21.5,0,39,17.5,39,39v425.1H184.9c-15.9,0-28.9-12.9-29-28.8c0-0.1,0-0.2,0-0.3l0-406
		c0-11.3-4.6-21.6-12.1-29.1H473.3 M473.3,51.7H114.8c19.4,0,35.1,15.7,35.1,35.1l0,406c0,0.1,0,0.1,0,0.2
		c0.1,19.3,15.8,34.8,35,34.8h333.4V96.6C518.2,71.8,498.1,51.7,473.3,51.7L473.3,51.7z"/>
</g>
<g>
	<path class="st0" d="M181.5,525.9c10.6-6.8,17.6-18.6,17.6-32.1c0-17.5-5.2-27.1-12.2-32.1l335,0c17.7,0,32.1,14.4,32.1,32.1
		s-14.4,32.1-32.1,32.1H181.5z"/>
	<path d="M194.2,464.7l327.7,0c16,0,29.1,13,29.1,29.1c0,16-13,29.1-29.1,29.1l-331.9,0c7.5-7.4,12.1-17.7,12.1-29.1
		C202.1,479.9,198.8,470.7,194.2,464.7 M170.8,458.7c0,0-0.8,1.2-0.8,1.2c19.4,0,26.1,14.5,26.1,33.9v0c0,19.4-15.7,35.1-35.1,35.1
		l360.9,0c19.4,0,35.1-15.7,35.1-35.1v0c0-19.4-15.7-35.1-35.1-35.1L170.8,458.7L170.8,458.7z M161,528.9
		C161,528.9,161,528.9,161,528.9L161,528.9L161,528.9z"/>
</g>
<path class="st2" d="M34.2,154.4c0,0,43.1,13.1,43.1-51.7s59.1-47.2,66.1-41.2"/>
<g>
	<rect x="191.6" y="105.1" class="st3" width="289.5" height="289.5"/>
	<g class="st4">
		<text transform="matrix(1 0 0 1 286.5537 237.8604)" class="st5 st6">请添加</text>
		<text transform="matrix(1 0 0 1 286.5537 282.0654)" class="st5 st6">二维码</text>
	</g>
</g>
</svg>
