<?xml version="1.0" encoding="utf-8"?>
<!-- Generator: Adobe Illustrator 24.0.1, SVG Export Plug-In . SVG Version: 6.00 Build 0)  -->
<svg version="1.1" id="图层_1" xmlns="http://www.w3.org/2000/svg" xmlns:xlink="http://www.w3.org/1999/xlink" x="0px" y="0px"
	 viewBox="0 0 560 560" style="enable-background:new 0 0 560 560;" xml:space="preserve">
<style type="text/css">
	.st0{fill:#F25F5F;}
	.st1{fill:#FFFFFF;}
	.st2{fill:#FF8A8A;}
	.st3{fill:none;stroke:#000000;stroke-width:5;stroke-linecap:round;stroke-miterlimit:10;}
	.st4{fill:#FFF1A4;stroke:#000000;stroke-width:5;stroke-miterlimit:10;}
	.st5{opacity:0.1;}
	.st6{opacity:0.43;}
	.st7{font-family:'FZLTZHK--GBK1-0';}
	.st8{font-size:35.0755px;}
</style>
<g>
	<path class="st0" d="M174,243.6c-21.9,0-42-12.8-51.3-32.7c-11.5-24.8-3.5-54.4,19.1-70.2l4.1-2.9l-53-26.7
		c-27.6-14.2-38.8-48.3-25-76c9.5-19.1,28.9-30.9,50.4-30.9c8.7,0,17.2,2,25.3,6L254.3,66c5.8,3,11,6.9,15.5,11.7l1.5,1.6L417,11.1
		c7.4-3.5,15.4-5.2,23.8-5.2c22,0,42,12.8,51,32.6c6.5,13.6,7.2,28.9,2.1,43c-5.1,14.3-15.5,25.7-29.2,32.1L197.8,238.4
		C190.4,241.8,182.4,243.6,174,243.6z"/>
	<path d="M118.3,7.2c8.3,0,16.3,1.9,23.9,5.7l110.7,55.8c5.5,2.8,10.5,6.6,14.7,11.1l3,3.2l3.9-1.8l143.8-67.2
		c7-3.3,14.6-4.9,22.6-4.9c20.8,0,39.8,12.1,48.2,30.9l0,0.1l0,0.1c6.1,12.8,6.8,27.3,2,40.7c-4.9,13.5-14.7,24.3-27.7,30.4
		L196.6,235.7c-7,3.3-14.6,4.9-22.6,4.9c-10.1,0-19.9-2.8-28.5-8.2c-8.7-5.5-15.7-13.3-20.1-22.8c-10.9-23.5-3.3-51.5,18.1-66.5
		l8.2-5.8l-8.9-4.5l-48.5-24.5c-12.7-6.5-22.2-17.6-26.7-31.1c-4.5-13.6-3.4-28.1,3-40.8c4.5-9,11.4-16.5,20.1-21.6
		C99,9.8,108.6,7.2,118.3,7.2 M118.3,1.2C96.7,1.2,75.6,13,65.2,33.8c-14.7,29.4-2.9,65,26.3,80l48.6,24.5
		c-23.3,16.4-32.4,47.4-20.1,73.9c10.1,21.7,31.5,34.4,54,34.4c8.4,0,17-1.7,25.1-5.5l266.8-124.7c29.7-13.9,42.7-49.4,28.6-79.1
		C484.7,15.6,463,2.9,440.8,2.9c-8.4,0-17,1.7-25.1,5.5L271.9,75.6c-4.6-4.9-10.1-9.1-16.3-12.3L144.9,7.5
		C136.2,3.2,127.3,1.2,118.3,1.2L118.3,1.2z"/>
</g>
<polyline points="478.3,179.3 478.3,546.2 74.4,546.2 74.4,179.3 478.3,179.3 "/>
<g>
	<path class="st1" d="M74.4,555.6c-5.3,0-9.4-4.1-9.4-9.4V179c0-5.3,4.1-9.4,9.4-9.4h404.2c5.3,0,9.4,4.1,9.4,9.4v367.2
		c0,5.3-4.1,9.4-9.4,9.4H74.4z"/>
	<path d="M478.6,172.6c3.6,0,6.4,2.8,6.4,6.4v367.2c0,3.6-2.8,6.4-6.4,6.4H74.4c-3.6,0-6.4-2.8-6.4-6.4V179c0-3.6,2.8-6.4,6.4-6.4
		H478.6 M478.6,166.6H74.4c-6.9,0-12.4,5.5-12.4,12.4v367.2c0,6.9,5.5,12.4,12.4,12.4h404.2c6.9,0,12.4-5.5,12.4-12.4V179
		C491,172.1,485.6,166.6,478.6,166.6L478.6,166.6z"/>
</g>
<g>
	<path class="st2" d="M52.8,203.6c-4.9,0-9.1-4.2-9.1-9.1v-67.8c0-4.9,4.2-9.1,9.1-9.1h180.3V40.1c0-4.9,4.2-9.1,9.1-9.1h71.9
		c5,0,9.1,3.9,9.1,8.8v77.8h184.3c4.9,0,8.8,4.1,8.8,9.1v67.8c0,4.9-4.2,9.1-9.1,9.1H52.8z"/>
	<path d="M314.1,34c3.4,0,6.1,2.6,6.1,5.8v74.8v6h6h181.3c3.2,0,5.8,2.7,5.8,6.1v67.8c0,3.3-2.8,6.1-6.1,6.1H52.8
		c-3.3,0-6.1-2.8-6.1-6.1v-67.8c0-3.3,2.8-6.1,6.1-6.1h177.3h6v-6V40.1c0-3.3,2.8-6.1,6.1-6.1H314.1 M314.1,28h-71.9
		c-6.6,0-12.1,5.5-12.1,12.1v74.5H52.8c-6.6,0-12.1,5.5-12.1,12.1v67.8c0,6.6,5.5,12.1,12.1,12.1h454.4c6.6,0,12.1-5.5,12.1-12.1
		v-67.8c0-6.6-5.2-12.1-11.8-12.1H326.2V39.8C326.2,33.2,320.7,28,314.1,28L314.1,28z"/>
</g>
<g>
	<line class="st3" x1="130.2" y1="66.7" x2="236.7" y2="119.5"/>
</g>
<g>
	<line class="st3" x1="320.1" y1="113.5" x2="387.4" y2="80.5"/>
</g>
<g>
	<line class="st3" x1="410.2" y1="69.6" x2="424.1" y2="62.6"/>
</g>
<path class="st4" d="M324.5,126.2v61.2c0,6.6-5.5,12.1-12.1,12.1h-71.9c-6.6,0-12.1-5.5-12.1-12.1v-61.2c0-6.6,5.5-12.1,12.1-12.1
	h71.9C319,114,324.5,119.5,324.5,126.2z"/>
<g>
	<rect x="127.2" y="223.1" class="st5" width="305.6" height="305.6"/>
	<g class="st6">
		<text transform="matrix(1 0 0 1 227.3864 363.2943)" class="st7 st8">请添加</text>
		<text transform="matrix(1 0 0 1 227.3864 409.9574)" class="st7 st8">二维码</text>
	</g>
</g>
</svg>
