<?xml version="1.0" encoding="utf-8"?>
<!-- Generator: Adobe Illustrator 24.0.1, SVG Export Plug-In . SVG Version: 6.00 Build 0)  -->
<svg version="1.1" id="图层_1" xmlns="http://www.w3.org/2000/svg" xmlns:xlink="http://www.w3.org/1999/xlink" x="0px" y="0px"
	 viewBox="0 0 560 560" style="enable-background:new 0 0 560 560;" xml:space="preserve">
<style type="text/css">
	.st0{fill:#999999;}
	.st1{fill:#FFFFFF;}
	.st2{opacity:0.94;fill:#FFFFFF;enable-background:new    ;}
	.st3{opacity:0.1;}
	.st4{opacity:0.43;}
	.st5{font-family:'FZLTZHK--GBK1-0';}
	.st6{font-size:39.0754px;}
</style>
<g>
	<polygon class="st0" points="26.1,33.3 26.1,511.3 510.1,511.3 510.1,76.8 560,33.3 	"/>
	<g>
		<polygon class="st1" points="12.2,484.2 12.2,17.9 525,17.9 484.5,53.2 484.5,484.2 		"/>
		<path d="M509.6,23.6l-26.8,23.6l-4,3.4v5.1v422.8h-461v-455h491.8 M540.3,11.9H6.5v478h484V55.8L540.3,11.9L540.3,11.9z"/>
	</g>
</g>
<rect x="192.2" y="197.6" class="st2" width="102.8" height="102.8"/>
<g>
	<rect x="73.7" y="68.8" class="st3" width="340.5" height="340.5"/>
	<g class="st4">
		<text transform="matrix(1 0 0 1 185.3442 224.978)" class="st5 st6">请添加</text>
		<text transform="matrix(1 0 0 1 185.3442 276.9624)" class="st5 st6">二维码</text>
	</g>
</g>
</svg>
