<?xml version="1.0" encoding="utf-8"?>
<!-- Generator: Adobe Illustrator 24.0.1, SVG Export Plug-In . SVG Version: 6.00 Build 0)  -->
<svg version="1.1" id="图层_1" xmlns="http://www.w3.org/2000/svg" xmlns:xlink="http://www.w3.org/1999/xlink" x="0px" y="0px"
	 viewBox="0 0 560 560" style="enable-background:new 0 0 560 560;" xml:space="preserve">
<style type="text/css">
	.st0{fill:#FFFFFF;stroke:#000000;stroke-width:3;stroke-miterlimit:10;}
	.st1{fill:#DCDDDD;stroke:#000000;stroke-width:3;stroke-miterlimit:10;}
	.st2{fill:#E2958D;}
	.st3{fill:#F4C4B8;stroke:#000000;stroke-width:3;stroke-miterlimit:10;}
	.st4{fill:#E2958D;stroke:#000000;stroke-width:3;stroke-miterlimit:10;}
	.st5{fill:#FFFFFF;}
	.st6{opacity:0.94;enable-background:new    ;}
	.st7{font-family:'FZLTZHK--GBK1-0';}
	.st8{font-size:14.5296px;}
	.st9{opacity:0.1;}
	.st10{opacity:0.43;}
	.st11{font-size:30.105px;}
</style>
<g>
	<polyline class="st0" points="264.4,516.6 0.1,364.2 202.3,13.8 552.7,216 400.9,478.9 	"/>
	<polygon class="st1" points="263.9,516.6 288.6,441 400.9,478.9 	"/>
</g>
<g>
	<g>
		<g>
			<path class="st2" d="M218.5,77.9c-1.7,0-3-0.6-4.4-1.9c-2.5-2.5-2.5-6.6,0-9.1l11-11.3c1.1-1.1,2.8-1.9,4.4-1.9
				c1.7,0,3,0.6,4.4,1.9c2.5,2.5,2.5,6.6,0,9.1l-11,11.3C221.5,77.1,220.1,77.9,218.5,77.9L218.5,77.9z"/>
			<path d="M229.5,54.8L229.5,54.8c1.4,0,2.5,0.6,3.6,1.4c1.9,1.9,1.9,5.5,0,7.4l-11,11.3c-0.8,1.1-2.2,1.4-3.6,1.4
				s-2.5-0.6-3.6-1.4c-1.9-1.9-1.9-5.5,0-7.4l11-11.3C226.7,55.3,228.1,54.8,229.5,54.8 M229.5,52.6c-1.9,0-3.9,0.8-5.2,2.2
				l-11,11.3c-2.8,3-2.8,7.7,0,10.7c1.4,1.4,3.3,2.2,5.2,2.2l0,0c1.9,0,3.9-0.8,5.2-2.2l11-11.3c2.8-3,2.8-7.7,0-10.7
				C233.1,53.4,231.1,52.6,229.5,52.6L229.5,52.6z"/>
		</g>
	</g>
	
		<ellipse transform="matrix(0.2298 -0.9732 0.9732 0.2298 143.4634 268.8738)" class="st3" cx="241.6" cy="43.8" rx="26.7" ry="26.7"/>
	
		<ellipse transform="matrix(0.2298 -0.9732 0.9732 0.2298 158.4133 267.9637)" class="st4" cx="248.5" cy="33.9" rx="19.3" ry="19.3"/>
	<circle class="st3" cx="257.3" cy="25.9" r="19.3"/>
</g>
<rect x="244.3" y="247.6" class="st5" width="64.6" height="64.6"/>
<text transform="matrix(1 0 0 1 254.7393 277.287)" class="st6 st7 st8">请替换</text>
<text transform="matrix(1 0 0 1 254.7393 296.5409)" class="st7 st8">二维码</text>
<rect x="157.7" y="144.2" class="st5" width="220.1" height="220.1"/>
<g>
	<rect x="138.6" y="146.1" class="st9" width="262.3" height="262.3"/>
	<g class="st10">
		<text transform="matrix(1 0 0 1 224.588 266.4345)" class="st7 st11">请添加</text>
		<text transform="matrix(1 0 0 1 224.588 306.4843)" class="st7 st11">二维码</text>
	</g>
</g>
</svg>
