<?xml version="1.0" encoding="utf-8"?>
<!-- Generator: Adobe Illustrator 24.0.1, SVG Export Plug-In . SVG Version: 6.00 Build 0)  -->
<svg version="1.1" id="图层_1" xmlns="http://www.w3.org/2000/svg" xmlns:xlink="http://www.w3.org/1999/xlink" x="0px" y="0px"
	 viewBox="0 0 560 560" style="enable-background:new 0 0 560 560;" xml:space="preserve">
<style type="text/css">
	.st0{fill:#FFE9A1;}
	.st1{fill:#7191E4;}
	.st2{fill:#FFFFFF;}
	.st3{fill:none;stroke:#000000;stroke-width:7;stroke-miterlimit:10;}
	.st4{opacity:0.94;fill:#FFFFFF;enable-background:new    ;}
	.st5{opacity:0.1;}
	.st6{opacity:0.43;}
	.st7{font-family:'FZLTZHK--GBK1-0';}
	.st8{font-size:47.8125px;}
</style>
<g>
	<polygon class="st0" points="61.8,5.8 552.8,5.5 507.5,50.8 16.5,51.1 	"/>
	<path d="M546.6,8.1l-40.2,40.2L22.7,48.6L62.9,8.3L546.6,8.1 M558.7,3l-498,0.3L10.6,53.6l498-0.3L558.7,3L558.7,3z"/>
</g>
<g>
	<polygon class="st1" points="511.5,54.5 556.5,9.2 556.2,500.2 511.2,545.2 	"/>
	<path d="M553.9,15.4l-0.3,483.7l-39.9,40.2L514,55.6L553.9,15.4 M559,3l-50.3,50.3l-0.3,498l50.3-50.3L559,3L559,3z"/>
</g>
<g>
	<rect x="13.1" y="56" class="st2" width="493" height="493"/>
	<path d="M503.5,58.5v487.9H15.6V58.5H503.5 M508.6,53.4h-498v498h498V53.4L508.6,53.4z"/>
</g>
<path class="st3" d="M52,57l50-50.3L52,57z"/>
<path class="st3" d="M102.3,57l50.3-50.3L102.3,57z"/>
<path class="st3" d="M152.9,57l50.3-50.3L152.9,57z"/>
<path class="st3" d="M203.5,57l50.3-50.3L203.5,57z"/>
<path class="st3" d="M254.2,57l50.3-50.3L254.2,57z"/>
<path class="st3" d="M304.5,57l50.3-50.3L304.5,57z"/>
<path class="st3" d="M355.1,57l50.3-50.3L355.1,57z"/>
<path class="st3" d="M405.7,57L456,6.7L405.7,57z"/>
<path class="st3" d="M456.4,57l50.3-50.3L456.4,57z"/>
<path class="st3" d="M557,50.5l-50.3,50.3L557,50.5z"/>
<path class="st3" d="M557,101.1l-50.3,50.3L557,101.1z"/>
<path class="st3" d="M557,151.8l-50.3,50.1L557,151.8z"/>
<path class="st3" d="M557,202.4l-50.3,50.1L557,202.4z"/>
<path class="st3" d="M557,252.7L506.7,303L557,252.7z"/>
<path class="st3" d="M557,303.3l-50.3,50.3L557,303.3z"/>
<path class="st3" d="M557,354l-50.3,50.3L557,354z"/>
<path class="st3" d="M557,404.6l-50.3,50.3L557,404.6z"/>
<rect x="200.7" y="249.1" class="st4" width="106.6" height="106.6"/>
<g>
	<rect x="51" y="92.2" class="st5" width="416.6" height="416.6"/>
	<g class="st6">
		<text transform="matrix(1 0 0 1 187.5786 283.3096)" class="st7 st8">请添加</text>
		<text transform="matrix(1 0 0 1 187.5786 346.918)" class="st7 st8">二维码</text>
	</g>
</g>
</svg>
