<?xml version="1.0" encoding="utf-8"?>
<!-- Generator: Adobe Illustrator 24.0.1, SVG Export Plug-In . SVG Version: 6.00 Build 0)  -->
<svg version="1.0" id="图层_1" xmlns="http://www.w3.org/2000/svg" xmlns:xlink="http://www.w3.org/1999/xlink" x="0px" y="0px"
	 viewBox="0 0 620 400" style="enable-background:new 0 0 620 400;" xml:space="preserve">
<path d="M329.3,399.7c6.5-4.4,13.5-8.5,19.6-13.5c4.4-3.5,8.3-8,11.4-12.6c4.3-6.4,4.7-13.7,1.6-20.8c-2.4-5.6-5.9-10.7-8.5-15.5
	c-9,3.5-16.9,7.2-25.3,9.9c-14.7,4.8-30.1,7.1-45.5,7.5c-15.3,0.4-30.7,0.3-46-0.8c-23.8-1.9-46.9-7.2-68.4-17.8
	c-20.9-10.3-37.8-24.7-46-47.5c-5,1.3-9.7,2.8-14.6,3.8c-26.2,5.4-49.7-1.1-70.1-18.1C17.2,257.6,5,236,0.9,209.9
	c-0.1-0.9-0.6-1.8-0.8-2.7c0-4.7,0-9.4,0-14.1c0.8-3.4,1.6-6.8,2.4-10.2c2.7-9.7,7.9-17.9,14.7-24.1C14,151,10.1,144.1,8,136.5
	c-5.6-19.8-0.4-37.8,12.1-53.6C36.9,61.7,59.5,50,85.9,45.5c18.7-3.2,36.8-1.1,53.7,8.1c1.7,0.9,3.2,1.9,4.9,2.9
	c0-4.9-0.7-9.4,0.1-13.6c2-11,9.3-18.4,18.3-24.3c12.1-7.9,25.5-12.1,39.4-14.8c30.7-6.1,61.2-5,91.3,4c12,3.5,23.1,8.9,32.8,16.9
	c5.9,4.9,10.3,10.7,13.7,17.6c0.6-0.3,0.9-0.4,1-0.7c10.6-16.4,26.4-24.8,44.7-28.9c26.6-5.9,52.8-3.2,78.7,3.9
	c22.4,6.1,43.4,15.3,61.8,29.7c10.3,8.1,19.2,17.5,24.1,30c4.3,10.9,4,21.7-0.8,32.3c-0.4,1-0.9,2.1-1.4,3.3c5,0.3,9.7,0.2,14.5,0.9
	c18.9,2.8,33.4,12.8,43,29.1c17.2,29.5,19.4,60,3.1,90.5c-10.2,19.2-27.2,28.6-49,29.7c-1.9,0.1-3.7,0-5.6,0c0,1.9-0.1,3.4,0,4.9
	c1.3,18.1-6.3,31.9-19.9,43c-14.5,11.7-31.6,17.9-49.4,22.4c-16.1,4-32.5,5.9-49,6.4c-1.3,0-3,1.1-3.9,2.2
	c-6.6,8.4-12.8,17.3-19.8,25.5c-16.5,19.2-37.5,30.1-62.8,32.7c-1.1,0.1-2.2,0.4-3.3,0.8C340.6,399.7,334.9,399.7,329.3,399.7z
	 M354.5,391.1c0.8,0,1.7,0.1,2.5,0c14.4-2.8,27.4-8.6,38.7-17.9c13-10.7,22.9-24,32-37.9c1.6-2.3,3.1-3.2,5.9-3.3
	c20.9-0.4,41.5-3,61.5-9.5c14.7-4.8,28.7-11,39.9-22c10-9.9,14.6-21.8,12.4-36c-0.4-2.9-0.9-5.8-1.2-8.6c0.6-0.1,0.9-0.3,1.2-0.3
	c2,0,4,0,6,0.1c22.5,0.4,40.3-8,50.9-28.4c11-21,11.2-43.3,3.9-65.5c-9.5-28.7-31.7-46.9-64-42.8c-2.3,0.3-4.8,0-7.4,0
	c1.6-3,2.9-5.6,4.4-8.3c9.9-16.1,7.1-31-4-45.2c-9.3-12-21.4-20.6-34.7-27.4C469.1,21,433.8,12.3,396.2,17.3
	c-23.4,3-42.6,12.8-53.7,35c-0.8,1.6-1.8,2.9-2.9,4.7c-0.8-1.7-1.2-2.9-1.8-4c-3-5.6-5.3-11.9-9.2-16.8
	c-8.7-11.3-21.3-17.4-34.6-21.6c-30.7-9.7-61.8-10.4-93.3-3.9c-13.8,2.9-27.1,7.4-38.3,16.3c-9.3,7.3-14,16.5-10.5,28.7
	c1.4,5.1,2.5,10.3,4.1,16.4c-5.2-3.5-9.5-6.5-13.8-9.4c-8.4-5.8-17.6-9.7-27.8-11c-35.1-4-64.7,7.3-87.7,33.9
	c-13.8,15.9-18.1,34.7-10.1,54.9c2.5,6.5,6.5,12.6,10,19.1c-0.3,0.3-0.9,0.9-1.6,1.4C9.6,173.2,5.3,189.4,7.5,207.8
	c2.9,23.8,14.1,43.6,32.1,59.5c20.7,18.2,44.6,24.5,71.5,17.3c5.1-1.3,10-3.2,15-4.8c0.2,0.2,0.4,0.3,0.6,0.6c0.6,1.7,1.1,3.3,1.7,5
	c3.9,11.2,10.2,20.7,18.9,28.7c13.2,12,28.8,19.3,45.6,24.6c23.4,7.3,47.3,10.1,71.7,10.1c22.7,0,45.2-2,66.8-9.5
	c7.8-2.7,15-6.9,22.9-10.6c4.8,5.5,9.9,11.9,13.2,19.4c4.8,11.2,4.4,21.9-2.8,31.9C361.5,383.9,357.8,387.4,354.5,391.1z"/>
</svg>
