<?xml version="1.0" encoding="utf-8"?>
<!-- Generator: Adobe Illustrator 24.0.1, SVG Export Plug-In . SVG Version: 6.00 Build 0)  -->
<svg version="1.1" id="图层_1" xmlns="http://www.w3.org/2000/svg" xmlns:xlink="http://www.w3.org/1999/xlink" x="0px" y="0px"
	 viewBox="0 0 636 400" style="enable-background:new 0 0 636 400;" xml:space="preserve">
<style type="text/css">
	.st0{fill-rule:evenodd;clip-rule:evenodd;fill:#70D0EB;}
	.st1{fill:#222222;}
	.st2{fill-rule:evenodd;clip-rule:evenodd;fill:#FFFFFF;}
</style>
<g>
	<g id="形状_1_副本">
		<path class="st0" d="M367.7,392.5c14-9.2,21-17.7,22.8-27.1c1.8-9.6-2.1-19.9-11.8-31.6l-2.5-3l-3.2,2.2
			c-14.9,10.5-47.7,17.2-83.7,17.2c-55.3,0-120.1-16.2-135.9-61.7l-1.4-4.1l-4.1,1.5c-9.8,3.6-19.7,5.4-29.3,5.4
			c-17.9,0-35.3-6.3-50.1-18.3c-13.4-10.8-24.1-25.8-29.9-42c-9.3-25.8-5.2-49.4,11.1-62.9l3-2.5l-2.2-3.2
			c-16.4-23.7-11.8-44-5.1-56.9c14-26.7,49.2-46.1,83.8-46.1c15.2,0,29.1,3.9,40.3,11.4l9.3,6.2L176,66.3
			c-2.1-8.1-0.6-15.6,4.6-22.3c12.6-16.3,46-26.9,84.9-26.9c35.8,0,82,10.1,94.7,38.4l3.3,7.4l4.2-6.9
			c11.8-19.3,36.6-29.9,69.9-29.9c24.3,0,51.8,5.9,75.6,16.2c24.3,10.6,42.4,24.5,51,39.3c7.2,12.4,7.4,24.8,0.6,36.8l-3.9,6.9
			l7.9-0.6c1.6-0.1,3.2-0.2,4.8-0.2c21.2,0,38.9,10.5,50,29.7c13.9,24.1,14.5,56.7,1.4,79.4c-7.1,12.3-21.4,27-48.9,27c0,0,0,0,0,0
			c-0.6,0-1.2,0-1.9,0l-5.1-0.1l0.8,5.1c2.1,12.5-1,23.8-9.1,33.5c-20.8,24.9-69.6,34.4-105.1,35l-2.2,0l-1.2,1.8
			C429.3,369.8,407.7,390.2,367.7,392.5z"/>
		<path class="st1" d="M265.5,21.4c21.1,0,41.5,3.4,57.5,9.4c11.8,4.5,27.1,12.7,33.2,26.5l6.6,14.7l8.4-13.8
			c14.8-24.3,47.9-27.9,66.2-27.9c49.8,0,106.1,24.5,122.9,53.5c6.5,11.1,6.7,21.8,0.6,32.6l-7.8,13.8l15.8-1.1
			c1.5-0.1,3-0.2,4.5-0.2c21.4,0,34.4,11.2,41.7,20.6c9.5,12.3,14.9,29.3,14.9,46.7c0,16.4-4.8,31.4-13.5,42.2
			c-9.7,12-23.4,18.1-40.6,18.1c-0.6,0-1.2,0-1.7,0l-10.2-0.2l1.7,10.1c1.9,11.4-0.8,21.2-8.1,30.1c-16.4,19.6-56.4,32.7-101.9,33.4
			L451,330l-2.5,3.7c-13.5,20-25.2,32.6-37.7,41c-8.5,5.7-17.8,9.5-28.2,11.7c6.1-5.8,10.6-12.5,12.1-20.1
			c2.1-10.9-2.1-22.4-12.7-35.1l-5-6l-6.4,4.5c-14,9.8-46.6,16.4-81.3,16.4c-30.5,0-59.7-5-82.3-14c-26.2-10.4-42.8-25.5-49.6-44.9
			l-2.8-8.2l-8.1,3c-9.3,3.4-18.7,5.2-27.9,5.2c-17,0-33.4-6-47.4-17.3c-12.8-10.4-23-24.6-28.6-40.1c-4.2-11.5-5.5-23-3.9-33.1
			c1.7-10.4,6.3-18.9,13.8-25.1l6-5l-4.4-6.4c-12-17.4-13.7-35.5-4.8-52.5c6.4-12.2,18-23.3,32.7-31.3c14.7-8.1,31.6-12.5,47.4-12.5
			c14.4,0,27.5,3.7,37.9,10.7l18.5,12.4l-5.6-21.6c-1.8-6.9-0.5-13,3.8-18.6C195.6,31.6,228.4,21.4,265.5,21.4 M265.5,12.9
			c-52,0-102.7,19.4-93.6,54.5c-12.5-8.4-27.4-12.1-42.6-12.1C71.4,55.3,8.2,109,47,165c-43.8,36.4,0,130.7,71.6,130.7
			c9.8,0,20.1-1.8,30.8-5.7c16.4,47.2,82.1,64.5,139.9,64.5c37,0,70.7-7.1,86.2-18c22.3,26.6,9.9,42.2-23.2,60.2
			c2.6,0.1,5.2,0.2,7.7,0.2c46,0,70.4-21.1,95.7-58.5c58.1-0.9,126.6-22.9,118.3-73.4c0.7,0,1.3,0,2,0c88,0,79.6-144.6-2.4-144.6
			c-1.7,0-3.3,0.1-5.1,0.2C596.9,70.3,509,22,437.5,22c-31.4,0-59.7,9.3-73.5,31.9C351.5,25.9,308,12.9,265.5,12.9L265.5,12.9z"/>
	</g>
	<g id="形状_1">
		<path class="st2" d="M340.5,395.3c14.3-9.7,21.4-18.5,23.3-28.3c1.9-9.9-1.9-20.7-11.7-32.9l-2.5-3.2l-3.3,2.4
			c-14.8,10.8-47.6,17.8-83.6,17.8c-55.4,0-120.1-16.9-136-64.3l-1.4-4.2l-4.1,1.6c-9.8,3.7-19.6,5.6-29.2,5.6
			c-39.1,0-68-30.5-79.3-60.8c-10.2-27.4-6.2-53.5,10.4-67.9l2.8-2.4l-2.1-3.1c-16.9-25.4-11.7-47.2-4.3-61
			C34,67.7,69,48.1,102.6,48.1c15.2,0,29.1,4.1,40.2,11.8l9.2,6.4l-2.7-10.9c-2.2-8.8-0.5-17,5.1-24.1C167.5,14.7,200.6,4,238.9,4
			c35.7,0,82,10.5,94.6,40l3.3,7.7l4.3-7.2c11.8-20.1,36.6-31.2,69.8-31.2c50.8,0,107.3,25.4,125.8,56.7c8,13.4,8.4,26.8,1.3,39.9
			l-3.7,6.8l7.8-0.6c1.6-0.1,3.2-0.2,4.8-0.2c20.7,0,38.2,10.6,49.2,29.8c14.7,25.4,15.3,61.2,1.4,85.1
			c-7.2,12.5-21.5,27.3-48.6,27.3c0,0,0,0,0,0c-0.6,0-1.1,0-1.7,0l-5.1-0.1l0.8,5c2.1,13.5-1.2,25.7-9.9,36
			c-21.2,25.3-69.5,34.9-104.3,35.4l-2.3,0l-1.2,1.9C402.4,371.8,380.8,393,340.5,395.3z"/>
		<path class="st1" d="M238.9-0.3l0,8.5c21,0,41.4,3.5,57.4,9.8c11.8,4.7,27.1,13.2,33.3,27.7l6.6,15.4l8.5-14.5
			c14.8-25.3,47.8-29.1,66.2-29.1c23.4,0,49.9,5.9,72.9,16.1c23.2,10.4,40.7,24,49.3,38.5c7.2,12,7.6,24,1.2,35.7l-7.5,13.7
			l15.5-1.2c1.5-0.1,3-0.2,4.5-0.2c21.2,0,34.3,11.6,41.5,21.4c9.5,12.9,15,30.7,15,48.9c0,17.3-4.8,33.1-13.6,44.5
			c-9.7,12.6-23.4,19-40.8,19c-0.5,0-1.1,0-1.6,0l-10.2-0.2l1.6,10c2,12.4-1,23.1-8.9,32.6c-8.7,10.3-23.3,18.9-42.4,24.9
			c-17.4,5.5-38.2,8.7-58.7,9l-4.5,0.1l-2.5,3.8c-13.5,20.9-25.2,34-37.8,42.7c-8.7,6-18.2,10.1-28.9,12.3
			c6.5-6.2,11.3-13.2,12.9-21.4c2.1-11.2-2-23.1-12.6-36.3l-5.1-6.3l-6.5,4.8c-14,10.2-46.5,17-81.1,17c-30.5,0-59.7-5.2-82.3-14.5
			c-26.2-10.8-42.9-26.6-49.7-46.9l-2.8-8.4l-8.3,3.2c-9.3,3.5-18.6,5.3-27.7,5.3c-37.1,0-64.5-29.1-75.3-58
			c-7.5-20.2-9-47.4,9.2-63.2l5.7-4.9l-4.1-6.2c-15.8-23.7-10.9-43.9-4.1-56.7C29.9,84.3,41.6,73,56.1,64.9
			c14.5-8.1,31-12.6,46.5-12.6c14.3,0,27.3,3.8,37.7,11.1l18.5,12.9l-5.4-21.9c-1.9-7.6-0.5-14.3,4.4-20.5
			c12-15.4,44.6-25.7,81.1-25.7V-0.3 M238.9-0.3c-52,0-102.7,20.2-93.7,56.7c-12.5-8.7-27.4-12.6-42.6-12.6
			c-57.9,0-121.2,55.9-82.3,114.2c-43.8,37.9,0,136.1,71.6,136.1c9.8,0,20.1-1.8,30.7-5.9c16.4,49.1,82.2,67.2,140,67.2
			c36.9,0,70.6-7.4,86.1-18.7c22.3,27.7,9.9,43.9-23.2,62.7c2.6,0.1,5.2,0.2,7.7,0.2c46,0,70.4-22,95.7-61
			c58.1-0.9,126.6-23.8,118.3-76.4c0.6,0,1.2,0,1.8,0c88.2,0,79.9-150.7-2.1-150.7c-1.7,0-3.4,0.1-5.1,0.2
			C570.4,59.5,482.4,9.1,410.9,9.1c-31.4,0-59.7,9.7-73.5,33.3C325,13.2,281.5-0.3,238.9-0.3L238.9-0.3z"/>
	</g>
</g>
</svg>
