<?xml version="1.0" encoding="utf-8"?>
<!-- Generator: Adobe Illustrator 24.0.1, SVG Export Plug-In . SVG Version: 6.00 Build 0)  -->
<svg version="1.1" id="图层_1" xmlns="http://www.w3.org/2000/svg" xmlns:xlink="http://www.w3.org/1999/xlink" x="0px" y="0px"
	 viewBox="0 0 497 400" style="enable-background:new 0 0 497 400;" xml:space="preserve">
<style type="text/css">
	.st0{opacity:0.5;stroke:#222222;stroke-width:3;stroke-miterlimit:10;}
	.st1{fill:#FFFFFF;stroke:#222222;stroke-width:3;stroke-miterlimit:10;}
	.st2{fill:#E8E8E8;enable-background:new    ;}
</style>
<g>
	<path class="st0" d="M94.8,75.2c-28.9,7.5-138.2,41.6-65.1,113.4c0.8,0.7,1.4,1.6,1.8,2.6c0.8,1.7,1.2,4.3-1.9,6.2
		c-5,3.1-91.9,70.2,40.6,106.9c3.5,1,6.1,3.8,6.7,7.3c4.2,22.5,26.9,102.4,136.2,89.3c104.5-12.6,136.6-60,144.7-76.5
		c1.6-3.3,5.1-5.4,8.9-5.2c28.6,1.2,140.1-0.5,98.7-108c-0.1-0.2-0.2-0.5-0.2-0.7l-4.8-16.5c-0.9-3.3-0.1-6.8,2.2-9.2
		c6-6.1,13.5-21.6-18.8-48.8c-2.4-2.1-3.7-5.2-3.3-8.4c2-15.5-0.3-65.1-96.2-104.9c-0.2-0.1-0.4-0.2-0.6-0.2
		C269.7-3,215.5,27.6,202.1,36.4c-2.1,1.4-4.7,1.9-7.2,1.4c-17.5-3.7-88-15.7-93.2,29.4C101.3,71,98.5,74.2,94.8,75.2z"/>
	<path class="st1" d="M105.9,64.8C77,72.3-32.3,106.4,40.8,178.2c0.8,0.7,1.4,1.6,1.8,2.6c0.8,1.7,1.2,4.3-1.9,6.2
		c-5,3.1-91.9,70.2,40.6,106.9c3.5,1,6.1,3.8,6.7,7.3c4.2,22.5,26.9,102.4,136.2,89.3c104.5-12.6,136.6-60,144.7-76.5
		c1.6-3.3,5.1-5.4,8.9-5.2c28.6,1.2,140.1-0.5,98.7-108c-0.1-0.2-0.2-0.5-0.2-0.7l-4.8-16.5c-0.9-3.3-0.1-6.8,2.2-9.2
		c6-6.1,13.5-21.6-18.8-48.8c-2.4-2.1-3.7-5.2-3.3-8.4c2-15.5-0.3-65.1-96.2-104.9c-0.2-0.1-0.4-0.2-0.6-0.2
		c-74.1-25.4-128.2,5.2-141.6,14.1c-2.1,1.4-4.7,1.9-7.2,1.4c-17.5-3.7-88-15.7-93.2,29.4C112.4,60.7,109.6,63.9,105.9,64.8z"/>
	<path class="st2" d="M118.3,296.8c-0.7-3.6-3.4-6.6-6.9-7.6c-136.2-37.7-46.9-106.6-41.7-109.8c3.1-1.9,2.7-4.5,1.9-6.3
		c-0.5-1-1.1-1.9-1.9-2.6c-46.6-45.8-21-76.6,12.2-95.3c-39.6,14.9-94.6,47.5-37.9,103.2c0.7,0.7,1.4,1.6,1.8,2.5
		c0.8,1.7,1.2,4.2-1.8,6c-4.9,3-90.3,69,39.9,105c3.4,0.9,6,3.8,6.6,7.2c3.9,21.1,24.4,93.6,119.6,88.9
		C138.8,376.8,121.9,316.1,118.3,296.8z"/>
	<path class="st1" d="M464.8,167.2l26.4,6.4c3.3,0.8,3.9,5.3,0.8,6.9c-7.7,4-19.5,9-29.4,8.4"/>
</g>
</svg>
