<?xml version="1.0" encoding="utf-8"?>
<!-- Generator: Adobe Illustrator 24.0.1, SVG Export Plug-In . SVG Version: 6.00 Build 0)  -->
<svg version="1.1" id="图层_1" xmlns="http://www.w3.org/2000/svg" xmlns:xlink="http://www.w3.org/1999/xlink" x="0px" y="0px"
	 viewBox="0 0 692 400" style="enable-background:new 0 0 692 400;" xml:space="preserve">
<style type="text/css">
	.st0{enable-background:new    ;}
	.st1{fill:#EA5455;}
</style>
<g class="st0">
	<path class="st1" d="M584.3,6.9c56.3,0,102,45.7,102,101.8v102.7c0,56.1-45.8,101.8-102,101.8h-43.4h-2.5l-1.8,1.8l-60.7,61.3
		l20.2-55l3-8.1h-8.6H107.8c-56.3,0-102-45.7-102-101.8V108.7c0-56.1,45.8-101.8,102-101.8H584.3 M584.3,0.9H107.8
		c-59.7,0-108,48.3-108,107.8v102.7c0,59.5,48.4,107.8,108,107.8h382.6L460.8,400l80.1-80.8h43.4c59.7,0,108-48.3,108-107.8V108.7
		C692.3,49.2,643.9,0.9,584.3,0.9L584.3,0.9z"/>
</g>
</svg>
