<?xml version="1.0" encoding="utf-8"?>
<!-- Generator: Adobe Illustrator 24.0.1, SVG Export Plug-In . SVG Version: 6.00 Build 0)  -->
<svg version="1.1" id="图层_1" xmlns="http://www.w3.org/2000/svg" xmlns:xlink="http://www.w3.org/1999/xlink" x="0px" y="0px"
	 viewBox="0 0 514 400" style="enable-background:new 0 0 514 400;" xml:space="preserve">
<style type="text/css">
	.st0{enable-background:new    ;}
	.st1{fill:#04B3F3;}
	.st2{fill:#F1950E;stroke:#000000;stroke-miterlimit:10;enable-background:new    ;}
	.st3{fill:#FCD814;stroke:#000000;stroke-miterlimit:10;enable-background:new    ;}
</style>
<g>
	<g>
		<g class="st0">
			<polygon class="st1" points="283.2,286.6 41.2,357.6 41.2,165.9 281.8,98.6 281.8,1.1 499.3,129.8 283.2,382.9 			"/>
			<path d="M282.3,2l216.2,127.9L283.7,381.6v-94.4v-1.3l-1.3,0.4L41.7,356.9V166.3l239.8-67.1l0.7-0.2v-0.8V2 M281.3,0.2v97.9
				L40.7,165.5v192.7l242-71v97.1L500,129.7L281.3,0.2L281.3,0.2z"/>
		</g>
		<g class="st0">
			<polygon class="st1" points="41.6,358.5 282.2,287.9 282.2,307.1 55.4,373.7 			"/>
			<path d="M281.7,288.6v18.1L55.6,373.1l-13-14.3L281.7,288.6 M282.7,287.2l-242,71l14.5,15.9l227.4-66.8V287.2L282.7,287.2z"/>
		</g>
		<g class="st0">
			<polygon class="st1" points="283.4,384.3 500,130.4 513.9,145.6 297.2,399.5 			"/>
			<path d="M500.1,131.2l13.2,14.5l-216,253.1L284,384.3L500.1,131.2 M500,129.7L282.7,384.3l14.5,15.9l217.4-254.6L500,129.7
				L500,129.7z"/>
		</g>
	</g>
	<g>
		<polygon class="st2" points="54.8,171.6 61.3,175.2 52.4,155.7 67.7,138.6 61.1,135.1 45.9,152.2 		"/>
		<g>
			<polygon class="st3" points="28.3,116.8 24.1,139.5 0.6,143.5 20.1,155 18.2,178 34.1,162 54.8,171.6 45.9,152.2 61.1,135.1 
				37.2,138.1 			"/>
			<polygon class="st2" points="24.8,181.5 18.2,178 34.1,162 40.7,165.5 			"/>
			<polygon class="st2" points="28.3,116.8 34.9,120.3 42,137.5 37.2,138.1 			"/>
		</g>
	</g>
	<g>
		<polygon class="st2" points="430.9,315.1 437.4,318.6 428.5,299.2 443.8,282.1 437.2,278.6 422,295.7 		"/>
		<g>
			<polygon class="st3" points="404.4,260.3 400.2,283 376.7,287 396.2,298.5 394.3,321.5 410.2,305.5 430.9,315.1 422,295.7 
				437.2,278.6 413.3,281.6 			"/>
			<polygon class="st2" points="400.9,325 394.3,321.5 410.2,305.5 416.8,309 			"/>
			<polygon class="st2" points="404.4,260.3 410.9,263.8 418.1,281 413.3,281.6 			"/>
		</g>
	</g>
</g>
</svg>
