<?xml version="1.0" encoding="utf-8"?>
<!-- Generator: Adobe Illustrator 24.0.1, SVG Export Plug-In . SVG Version: 6.00 Build 0)  -->
<svg version="1.1" id="图层_1" xmlns="http://www.w3.org/2000/svg" xmlns:xlink="http://www.w3.org/1999/xlink" x="0px" y="0px"
	 viewBox="0 0 610 400" style="enable-background:new 0 0 610 400;" xml:space="preserve">
<style type="text/css">
	.st0{fill:#0915B8;}
	.st1{fill:url(#SVGID_1_);}
	.st2{fill:#330EA2;}
	.st3{fill:url(#SVGID_2_);}
	.st4{fill:url(#SVGID_3_);}
	.st5{fill:url(#SVGID_4_);}
</style>
<g>
	<path class="st0" d="M75.4,74c0,0,20.7,15.4,95.6-4s76.1-31.7,167.6-4c53.5,13.9,71.9-13,99.8-35.7c27.9-22.7,37.4-30,55.9-3.3
		c11.6,17.8,0,26.7,37.4,39c37.4,12.2,91.5,30.5,65.6,100.5c-25.9,70.1-14.3,72.6-16.4,130.1c-2.1,57.5-27.6,34.8-28.8,29.6
		c-3.9-3.3-3.4-17.2-32.4,40.5c-7.1,8.5-18.7-3.2-31.4-13.8c-12.8-10.6-68.3-21.7-98.8-4c-30.6,17.7-99.9-14.6-111.8-13.4
		s-25.5-2.1-42.8,19.4c-17.2,21.5-48.1,1.9-54.8-4.5c-6.7-6.3-30.8-28.8-42.9,25.5c-5.5,23.9-33.8,50.1-54-30.8c0,0-4-13.6-46.6-8.5
		S5.3,271.9,5.3,271.9s10.7-43.8,1.2-89.2S4.7,66.8,33.8,65.9S75.4,74,75.4,74z"/>
	
		<linearGradient id="SVGID_1_" gradientUnits="userSpaceOnUse" x1="304.6405" y1="618.3421" x2="304.6405" y2="799.5917" gradientTransform="matrix(1 0 0 1 0 -526)">
		<stop  offset="0" style="stop-color:#05CCFD"/>
		<stop  offset="1" style="stop-color:#1168F1"/>
	</linearGradient>
	<path class="st1" d="M73.7,62.1c0,0,21.1,15,96.9-3.9s77.1-30.7,169.7-3.9c54.1,13.5,72.8-12.6,101.1-34.6
		c28.3-22,37.9-29.1,56.5-3.2c11.8,17.4,0,26,37.9,37.8s92.7,29.6,66.5,97.7s-14.4,70.5-16.6,126.4c-2.1,55.9-27.9,33.8-29.1,28.7
		c-4-3.2-3.5-16.8-32.9,39.3c-7.2,8.3-19-3.1-31.9-13.3c-13-10.3-69.2-21.1-100.1-3.9s-101.2-14.2-113.2-13
		c-12,1.2-25.9-2-43.3,18.9c-17.5,20.8-48.8,1.7-55.6-4.4c-6.8-6.1-31.1-27.9-43.4,24.8c-5.6,23.2-34.3,48.7-54.8-29.9
		c0,0-4-13.3-47.2-8.3c-43.1,5-31.5-62.9-31.5-62.9s10.8-42.6,1.2-86.7S2.1,55,31.6,54.2C61.1,53.5,73.7,62.1,73.7,62.1z"/>
	<path class="st2" d="M83.5,68.9c0,0,20.2,14.2,92.9-3.7s73.9-29.1,162.7-3.7c52,12.8,69.9-11.9,96.9-32.9
		c27.1-21,36.3-27.6,54.2-2.9c11.2,16.4,0,24.7,36.3,35.8s88.9,27.9,63.7,92.6c-25.1,64.5-13.9,66.8-15.8,119.7
		s-26.9,32.1-27.9,27.3c-3.8-2.9-3.3-15.9-31.4,37.2c-6.9,7.9-18.2-2.9-30.6-12.7c-12.3-9.7-66.4-20-95.9-3.7
		c-29.7,16.3-97-13.4-108.5-12.3c-11.6,1.1-24.8-1.9-41.6,17.9c-16.7,19.8-46.7,1.6-53.3-4.1c-6.4-5.8-29.9-26.5-41.7,23.5
		c-5.3,22-32.9,46.1-52.5-28.4c0,0-3.9-12.6-45.2-7.9c-41.6,4.9-30.6-59.6-30.6-59.6s10.4-40.3,1.2-82.1S14.9,62.1,43.2,61.4
		C71.4,60.8,83.5,68.9,83.5,68.9z"/>
	
		<linearGradient id="SVGID_2_" gradientUnits="userSpaceOnUse" x1="309.5451" y1="787.0839" x2="309.5451" y2="641.5466" gradientTransform="matrix(1 0 0 1 0 -526)">
		<stop  offset="0" style="stop-color:#CF3BDC"/>
		<stop  offset="0.54" style="stop-color:#621290"/>
		<stop  offset="1" style="stop-color:#C13BD0"/>
	</linearGradient>
	<path class="st3" d="M93.3,79.7c0,0,19.8,12.2,90.8-3.2s72.2-25,158.9-3.2c50.8,11,68.2-10.3,94.7-28.3c26.5-18,35.5-23.8,52.9-2.6
		c11,14.1,0,21.2,35.5,30.8s86.8,24,62.3,79.6c-24.6,55.5-13.5,57.4-15.5,102.9c-2,45.5-26.2,27.6-27.3,23.5
		c-3.7-2.6-3.3-13.6-30.7,32.1c-6.8,6.8-17.8-2.5-29.9-10.9c-12.1-8.3-64.8-17.1-93.8-3.2s-94.7-11.6-106.1-10.6
		c-11.2,1-24.2-1.6-40.6,15.4s-45.6,1.4-52-3.5s-29.1-22.8-40.7,20.2c-5.2,18.9-32.1,39.6-51.3-24.3c0,0-3.8-10.8-44.2-6.8
		s-29.7-51.3-29.7-51.3s10.2-34.6,1.1-70.6s-1.6-91.8,26-92.5C81.5,72.7,93.3,79.7,93.3,79.7z"/>
	
		<linearGradient id="SVGID_3_" gradientUnits="userSpaceOnUse" x1="304.7967" y1="783.3361" x2="304.7967" y2="623.9368" gradientTransform="matrix(1 0 0 1 0 -526)">
		<stop  offset="0" style="stop-color:#DB2882"/>
		<stop  offset="0.5084" style="stop-color:#FC8F91"/>
		<stop  offset="1" style="stop-color:#F25892"/>
	</linearGradient>
	<path class="st4" d="M91.4,89.7c0,0,19.4,10.5,89.5-2.7s71.2-21.6,156.9-2.7c50,9.5,67.2-8.8,93.4-24.3s35-20.5,52.3-2.2
		c10.8,12.2,0,18.2,35,26.5s85.7,20.7,61.5,68.5c-24.2,47.8-13.3,49.6-15.3,88.7c-2,39.3-25.9,23.8-27,20.2
		c-3.7-2.2-3.2-11.8-30.3,27.6c-6.7,5.9-17.5-2.2-29.5-9.4c-12-7.2-64-14.8-92.6-2.7s-93.4-9.9-104.6-9.2
		c-11.1,0.9-23.9-1.4-40.1,13.3c-16.2,14.6-45.1,1.2-51.3-3.1s-28.8-19.6-40.2,17.5c-5.1,16.4-31.7,34.2-50.6-21.1
		c0,0-3.7-9.4-43.6-5.8s-29.3-44.2-29.3-44.2s10-29.9,1.1-60.9s-1.6-79.1,25.5-79.7C79.6,83.6,91.4,89.7,91.4,89.7z"/>
	
		<linearGradient id="SVGID_4_" gradientUnits="userSpaceOnUse" x1="298.0917" y1="755.9375" x2="298.0917" y2="660.9818" gradientTransform="matrix(1 0 0 1 0 -526)">
		<stop  offset="0" style="stop-color:#FFFFFF"/>
		<stop  offset="0.2276" style="stop-color:#FFF6F9"/>
		<stop  offset="0.5084" style="stop-color:#FFF0F5"/>
		<stop  offset="0.9963" style="stop-color:#FFEEF3"/>
	</linearGradient>
	<path class="st5" d="M524.6,262.6H71.5c-11.6,0-21.1-9.4-21.1-21.1V125.1c0-11.6,9.4-21.1,21.1-21.1h453.1
		c11.6,0,21.1,9.4,21.1,21.1v116.5C545.6,253.1,536.2,262.6,524.6,262.6z"/>
</g>
</svg>
