<?xml version="1.0" encoding="iso-8859-1"?>
<!-- Generator: Adobe Illustrator 22.0.0, SVG Export Plug-In . SVG Version: 6.00 Build 0)  -->
<svg version="1.1" id="&#x56FE;&#x5C42;_1" xmlns="http://www.w3.org/2000/svg" xmlns:xlink="http://www.w3.org/1999/xlink" x="0px"
	 y="0px" viewBox="0 0 52 52" style="enable-background:new 0 0 52 52;" xml:space="preserve">
<path style="fill:#FFFFFF;" d="M26,3.544c12.4,0,22.453,10.053,22.453,22.453C48.453,38.397,38.4,48.45,26,48.45
	C13.6,48.45,3.547,38.397,3.547,25.997C3.544,13.597,13.597,3.544,26,3.544 M26,0C11.641,0,0,11.641,0,26c0,14.359,11.641,26,26,26
	c14.358,0,26-11.641,26-26C52,11.641,40.359,0,26,0L26,0z M26,0"/>
<g>
	<rect x="6.297" y="10.933" style="fill:none;" width="38.655" height="31.353"/>
	<g>
		<path style="fill:#FFFFFF;" d="M17.363,40.577l-1.928-1.928l16.968-16.968c1.084-1.084,2.849-1.085,3.934,0l9.407,9.407
			l-1.928,1.928l-9.407-9.407c-0.022-0.022-0.057-0.022-0.078,0L17.363,40.577z"/>
	</g>
	<g>
		<path style="fill:#FFFFFF;" d="M44.707,11.305H7.962c-0.77,0-1.394,0.624-1.394,1.394V40.24c0,0.77,0.624,1.394,1.394,1.394
			h36.745c0.77,0,1.394-0.624,1.394-1.394V12.699C46.101,11.929,45.477,11.305,44.707,11.305z M43.136,37.267
			c0,0.77-0.624,1.394-1.394,1.394H10.938c-0.77,0-1.394-0.624-1.394-1.394V15.654c0-0.77,0.624-1.394,1.394-1.394h30.805
			c0.77,0,1.394,0.624,1.394,1.394V37.267z"/>
	</g>
	<g>
		<path style="fill:#FFFFFF;" d="M18.444,16.912c-2.869,0-5.196,2.326-5.196,5.196c0,2.869,2.326,5.196,5.196,5.196
			c2.869,0,5.196-2.326,5.196-5.196C23.64,19.238,21.314,16.912,18.444,16.912z M18.444,25.131c-1.669,0-3.023-1.353-3.023-3.023
			c0-1.669,1.353-3.023,3.023-3.023c1.669,0,3.023,1.353,3.023,3.023C21.467,23.777,20.114,25.131,18.444,25.131z"/>
	</g>
</g>
</svg>
