<?xml version="1.0" encoding="iso-8859-1"?>
<!-- Generator: Adobe Illustrator 22.0.0, SVG Export Plug-In . SVG Version: 6.00 Build 0)  -->
<svg version="1.1" id="&#x56FE;&#x5C42;_1" xmlns="http://www.w3.org/2000/svg" xmlns:xlink="http://www.w3.org/1999/xlink" x="0px"
	 y="0px" viewBox="0 0 52 52" style="enable-background:new 0 0 52 52;" xml:space="preserve">
<path style="fill:#FFFFFF;" d="M26.003,52c-3.507,0-6.916-0.687-10.119-2.046c-3.096-1.31-5.877-3.182-8.264-5.569
	c-2.387-2.387-4.264-5.168-5.574-8.264C0.687,32.919,0,29.509,0,26.003c0-3.507,0.687-6.916,2.045-10.125
	c1.31-3.095,3.182-5.871,5.569-8.264c2.387-2.392,5.168-4.259,8.264-5.569C19.087,0.687,22.491,0,26.003,0
	c3.512,0,6.916,0.687,10.12,2.045c3.096,1.31,5.877,3.182,8.264,5.569c2.387,2.387,4.259,5.168,5.569,8.264
	C51.313,19.081,52,22.491,52,25.997s-0.687,6.916-2.046,10.12c-1.31,3.095-3.182,5.877-5.569,8.263
	c-2.387,2.387-5.168,4.265-8.264,5.574C32.913,51.313,29.509,52,26.003,52L26.003,52z M26.003,3.463
	c-3.041,0-5.996,0.595-8.772,1.77c-2.684,1.137-5.092,2.76-7.165,4.833c-2.073,2.073-3.696,4.481-4.833,7.165
	c-1.174,2.776-1.77,5.725-1.77,8.772c0,3.047,0.595,5.996,1.77,8.772c1.137,2.684,2.76,5.092,4.833,7.165
	c2.073,2.073,4.481,3.696,7.165,4.833c2.776,1.174,5.731,1.77,8.772,1.77c3.041,0,5.996-0.595,8.772-1.77
	c2.684-1.136,5.092-2.76,7.165-4.833c2.073-2.073,3.696-4.481,4.833-7.165c1.174-2.776,1.77-5.731,1.77-8.772
	c0-3.041-0.595-5.996-1.77-8.772c-1.136-2.684-2.76-5.092-4.833-7.165c-2.073-2.073-4.486-3.696-7.17-4.833
	C31.993,4.059,29.044,3.463,26.003,3.463L26.003,3.463z M26.003,3.463"/>
<path style="fill:#FFFFFF;" d="M23.584,16.413h-3.631v11.932c0,0.687-0.152,1.196-0.46,1.532c-0.308,0.33-0.703,0.498-1.185,0.498
	c-0.493,0-0.893-0.168-1.207-0.503c-0.309-0.336-0.465-0.844-0.465-1.526V16.413h-3.631c-0.568,0-0.99-0.124-1.266-0.373
	c-0.276-0.249-0.417-0.579-0.417-0.99c0-0.428,0.146-0.763,0.433-1.006c0.287-0.249,0.703-0.368,1.25-0.368h10.574
	c0.574,0,1.001,0.124,1.283,0.379c0.281,0.254,0.422,0.584,0.422,0.996c0,0.411-0.141,0.741-0.428,0.99
	C24.579,16.289,24.152,16.413,23.584,16.413L23.584,16.413z M39.055,21.371H28.681c-0.958,0-1.743-0.785-1.743-1.743
	c0-0.958,0.785-1.743,1.743-1.743h10.374c0.958,0,1.743,0.785,1.743,1.743C40.798,20.586,40.013,21.371,39.055,21.371L39.055,21.371
	z M39.164,28.784H28.79c-0.958,0-1.743-0.785-1.743-1.742s0.785-1.743,1.743-1.743h10.374c0.958,0,1.742,0.785,1.742,1.743
	S40.122,28.784,39.164,28.784L39.164,28.784z M38.26,37.535H13.94c-0.952,0-1.732-0.779-1.732-1.732
	c0-0.953,0.779-1.732,1.732-1.732h24.32c0.952,0,1.732,0.779,1.732,1.732C39.986,36.756,39.212,37.535,38.26,37.535L38.26,37.535z
	 M38.26,37.535"/>
</svg>
