<?xml version="1.0" encoding="utf-8"?>
<!-- Generator: Adobe Illustrator 24.0.1, SVG Export Plug-In . SVG Version: 6.00 Build 0)  -->
<svg version="1.1" id="图层_1" xmlns="http://www.w3.org/2000/svg" xmlns:xlink="http://www.w3.org/1999/xlink" x="0px" y="0px"
	 viewBox="0 0 414 426" style="enable-background:new 0 0 414 426;" xml:space="preserve">
<style type="text/css">
	.st0{fill:#F2F2F2;}
	.st1{fill:#FFFFFF;}
	.st2{fill:#231B3B;}
	.st3{enable-background:new    ;}
</style>
<path class="st0" d="M97.2,97.6L84.8,99c-6.3,0.7-10.4,6.8-8.8,12.9l3.5,13c1,3.8-0.2,7.9-3.2,10.5L34,172.1
	c-4.1,3.6-4.7,9.8-1.4,14.1L64,226.5c1.6,2,2.3,4.5,2.2,7.1l-2.9,41.3c-0.4,5.7,3.9,10.6,9.6,11l34.5,2.3c5.2,0.3,9.3,4.5,9.6,9.6
	l1.2,18.6c0.4,6.7,7.1,11.2,13.4,9.1l16.3-5.2c3-1,6.2-0.5,8.8,1.2l20.8,13.7c4.6,3.1,10.9,1.9,14.1-2.6l19.2-26.8
	c2.7-3.7,7.5-5.3,11.8-3.7l52.1,18.5c6.7,2.4,13.8-2.6,13.8-9.7v-25.3c0-3.6,1.9-7,5-8.8l37.4-22.6c3.9-2.4,5.8-7,4.7-11.4l-9.7-38
	c-0.9-3.6,0.1-7.3,2.8-9.9l12.1-11.9c5.5-5.4,3.4-14.7-3.9-17.1l-20.8-7.1c-5.8-2-8.6-8.6-6-14.2L338,85.2
	c3.5-7.4-2.6-15.7-10.7-14.6l-40,5.3c-5,0.7-9.7-2.3-11.2-7.1L270.8,52c-1.9-6.1-8.9-9-14.6-6l-58.6,30.7c-2.6,1.4-5.7,1.6-8.4,0.5
	l-68.5-25.5c-6.7-2.5-13.8,2.4-13.9,9.5l-0.3,26.1C106.3,92.7,102.3,97,97.2,97.6z"/>
<g>
	<polygon class="st1" points="155,301 127.1,309.9 124.8,275 78,271.9 81.3,224.5 47.2,180.6 94.4,139.6 87.5,113.7 116.1,110.5 
		116.6,67.9 190.5,95.5 253.5,62.4 263.5,93.9 320.4,86.3 285.3,161.1 325.9,174.9 302.7,197.8 314,242.2 271.5,267.9 271.5,306.2 
		208.8,283.9 183.2,319.6 	"/>
	<path d="M252.3,65.3l8.8,27.6l1,3.2l3.3-0.4l51.6-6.9l-32.6,69.5l-1.9,4l4.2,1.4l35.4,12L302,195.5l-1.6,1.6l0.6,2.2l10.6,41.9
		l-40.2,24.4l-1.9,1.2v2.3v34.3l-58.7-20.9l-2.8-1l-1.8,2.5l-23.6,33l-25.8-17.1l-1.6-1.1l-1.8,0.6l-24.5,7.9l-2-30.6l-0.2-3.5
		l-3.5-0.2l-43.1-2.9l3.2-44.6l0.1-1.5l-0.9-1.2L50,181.1l44.9-39l1.9-1.6l-0.6-2.4l-6-22.4l24.5-2.8l3.5-0.4V109l0.5-38l70.4,26.3
		l1.7,0.6l1.6-0.8L252.3,65.3 M254.7,59.5l-64.3,33.7L114.7,65l-0.5,43.7L85,112l7.2,26.9l-47.7,41.5l34.8,44.7l-3.5,48.6l47.1,3.1
		l2.4,35.7l29.4-9.4l29,19.2l25.8-36.1l64,22.8v-40l42.8-25.9l-11.4-44.7l24.7-24.3L288,160l35.7-76.1l-58.8,7.8L254.7,59.5
		L254.7,59.5z"/>
</g>
<path class="st2" d="M94.2,84.6c-2,0-3.9-0.6-5.6-1.6L52,60.1c-4.5-2.8-6.2-8.6-3.9-13.5l9.5-19.7c1.8-3.7,5.4-6,9.5-6
	c3.6,0,6.9,1.8,8.8,4.9l27.2,42.6c2.4,3.7,2.2,8.6-0.5,12.1C100.5,83.1,97.4,84.6,94.2,84.6z"/>
<path class="st0" d="M67,27.5c1.3,0,2.6,0.6,3.4,1.8l27.2,42.6c0.9,1.4,0.8,3.3-0.2,4.6c-0.8,1-2,1.6-3.2,1.6
	c-0.7,0-1.5-0.2-2.1-0.6L55.5,54.6c-1.7-1.1-2.4-3.3-1.5-5.1l9.5-19.7C64.1,28.3,65.5,27.5,67,27.5 M67,14.5
	c-6.6,0-12.5,3.7-15.3,9.6l-9.5,19.7c-3.8,7.8-1,17.2,6.3,21.8l36.6,22.9c2.7,1.7,5.8,2.6,9,2.6c5.2,0,10.3-2.5,13.5-6.6
	c4.4-5.7,4.7-13.5,0.9-19.5L81.3,22.4C78.2,17.4,72.8,14.5,67,14.5L67,14.5z"/>
<g class="st3">
	<path class="st2" d="M206.5,57.7c-0.3,0-0.7,0-1-0.1c-4.4-0.5-7.6-4.2-7.5-8.6l0.4-21.6c0.1-4.3,3.4-7.9,7.7-8.3l10.9-1
		c0.3,0,0.5,0,0.8,0c3,0,5.7,1.5,7.2,4c1.6,2.5,1.7,5.6,0.4,8.3L214.1,53C212.7,55.9,209.7,57.7,206.5,57.7L206.5,57.7z"/>
	<path class="st0" d="M217.8,24.7c1.5,0,2.5,1.6,1.8,2.9l-11.3,22.6c-0.3,0.7-1,1.1-1.8,1.1c-0.1,0-0.2,0-0.2,0c-1-0.1-1.8-1-1.8-2
		l0.4-21.6c0-1,0.8-1.9,1.8-2l10.9-1C217.7,24.7,217.8,24.7,217.8,24.7 M217.8,11.7c-0.5,0-0.9,0-1.4,0.1l-10.9,1
		c-7.6,0.7-13.5,7-13.7,14.6L191.4,49c-0.2,7.8,5.5,14.3,13.2,15.2c0.6,0.1,1.2,0.1,1.8,0.1c5.7,0,10.8-3.2,13.4-8.3l11.3-22.6
		c2.4-4.7,2.1-10.1-0.6-14.6C227.9,14.3,223.1,11.7,217.8,11.7L217.8,11.7z"/>
</g>
<path class="st2" d="M353.7,232.1c-1.7,0-3.4-0.5-4.9-1.5l-20.7-14.5c-2.9-2-4.3-5.7-3.3-9.2c1-3.7,4.4-6.3,8.2-6.3
	c0.5,0,0.9,0,1.4,0.1l21.3,3.6c4.3,0.7,7.3,4.5,7.1,8.9l-0.6,10.9C362,228.5,358.3,232.1,353.7,232.1L353.7,232.1z"/>
<path class="st0" d="M333.1,207.1c0.1,0,0.2,0,0.3,0l21.3,3.6c1,0.2,1.7,1.1,1.7,2.1l-0.6,10.9c-0.1,1.1-1,1.9-2,1.9
	c-0.4,0-0.8-0.1-1.1-0.4L332,210.7c-0.7-0.5-1-1.3-0.8-2.2C331.4,207.7,332.2,207.1,333.1,207.1 M333.1,194.1
	c-6.8,0-12.7,4.6-14.5,11.1c-1.6,6.1,0.7,12.6,5.9,16.2l20.7,14.5c2.5,1.8,5.5,2.7,8.6,2.7c8,0,14.5-6.2,15-14.2l0.6-10.9
	c0.4-7.6-5-14.4-12.5-15.6l-21.3-3.6C334.7,194.2,333.9,194.1,333.1,194.1L333.1,194.1z"/>
<g class="st3">
	<path class="st2" d="M235,369c-4.6,0-8.4-3.7-8.5-8.3l-0.5-25.3c-0.1-3.6,2.1-6.8,5.4-8.1c1-0.4,2-0.6,3.1-0.6
		c3.2,0,6.1,1.8,7.6,4.7l9.7,19.3c2,3.9,0.7,8.6-3,10.9l-9.2,6C238.2,368.5,236.6,369,235,369L235,369z"/>
	<path class="st0" d="M234.4,333.2c0.7,0,1.4,0.4,1.8,1.1l9.7,19.3c0.5,0.9,0.2,2-0.7,2.6l-9.2,6c-0.3,0.2-0.7,0.3-1.1,0.3
		c-1,0-2-0.8-2-2l-0.5-25.3c0-0.8,0.5-1.6,1.3-1.9C234,333.3,234.2,333.2,234.4,333.2 M234.4,320.2c-1.9,0-3.7,0.3-5.4,1
		c-5.9,2.3-9.7,8-9.6,14.3l0.5,25.3c0.2,8.1,6.9,14.7,15,14.7c2.9,0,5.7-0.8,8.2-2.4l9.2-6c6.4-4.2,8.7-12.5,5.2-19.3l-9.7-19.3
		C245.3,323.4,240.1,320.2,234.4,320.2L234.4,320.2z"/>
</g>
<path class="st2" d="M42.8,252.1c-2.8,0-5.4-1.4-7-3.6l-6.2-9c-1.8-2.5-2-5.8-0.7-8.6c1.4-2.8,4.1-4.6,7.2-4.8l25.2-1.3
	c0.1,0,0.3,0,0.5,0c3.4,0,6.5,2,7.8,5.2c1.7,4,0.1,8.7-3.8,10.8l-19,10.3C45.6,251.8,44.2,252.1,42.8,252.1L42.8,252.1z"/>
<path class="st0" d="M61.8,231.3c0.8,0,1.5,0.5,1.8,1.2c0.4,0.9,0,2-0.9,2.5l-19,10.3c-0.3,0.2-0.6,0.2-1,0.2
	c-0.6,0-1.3-0.3-1.6-0.9l-6.2-9c-0.9-1.3,0-3.1,1.5-3.1l25.2-1.3C61.7,231.3,61.8,231.3,61.8,231.3 M61.8,218.3c-0.3,0-0.5,0-0.8,0
	l-25.2,1.3c-5.4,0.3-10.3,3.5-12.7,8.4s-1.9,10.7,1.2,15.2l6.2,9c2.8,4,7.4,6.4,12.3,6.4c2.5,0,5-0.6,7.2-1.8l19-10.3
	c6.8-3.7,9.7-11.9,6.7-19C73.2,221.9,67.8,218.3,61.8,218.3L61.8,218.3z"/>
<path class="st2" d="M299.9,62c-1.6,0-3.3-0.4-4.7-1.2c-4.5-2.4-6.4-7.8-4.4-12.6l14.3-34c1.6-3.7,5.1-6.1,9.1-6.1
	c1,0,1.9,0.1,2.8,0.4l17.9,5.3c3.4,1,6.1,3.8,6.9,7.4c0.8,3.5-0.4,7.2-3.1,9.6l-32.3,28.7C304.7,61.2,302.4,62,299.9,62L299.9,62z"
	/>
<path class="st0" d="M314.3,14.7c0.3,0,0.6,0,1,0.1l17.9,5.3c2.6,0.8,3.3,4.1,1.3,5.8l-32.3,28.7c-0.6,0.6-1.5,0.9-2.3,0.9
	c-0.6,0-1.1-0.1-1.6-0.4c-1.5-0.8-2.2-2.7-1.5-4.3l14.3-34C311.7,15.5,312.9,14.7,314.3,14.7 M314.3,1.7c-6.6,0-12.6,3.9-15.1,10
	l-14.3,34c-3.3,7.8-0.2,16.8,7.3,20.8c2.4,1.3,5.1,2,7.8,2c4,0,7.9-1.5,10.9-4.2l32.3-28.7c4.4-4,6.4-10,5.1-15.8
	C347,14,342.7,9.3,336.9,7.6L319,2.3C317.4,1.9,315.9,1.7,314.3,1.7L314.3,1.7z"/>
<path class="st2" d="M343.4,151.7c-3.4,0-6.5-1.5-8.6-4.2c-3.5-4.5-3-10.7,1.1-14.6l34.6-32.7c2-1.9,4.7-3,7.5-3
	c2.6,0,5.1,0.9,7.1,2.6l18.4,15.6c3,2.6,4.4,6.6,3.6,10.4c-0.8,3.8-3.6,7-7.3,8.3l-52.9,17.1C345.7,151.5,344.6,151.7,343.4,151.7z"
	/>
<path class="st0" d="M378,103.6c1,0,2,0.3,2.8,1l18.4,15.6c2.6,2.2,1.8,6.5-1.5,7.6l-52.9,17.1c-0.4,0.1-0.9,0.2-1.4,0.2
	c-1.3,0-2.6-0.6-3.5-1.7c-1.4-1.8-1.2-4.3,0.5-5.9l34.6-32.7C375.8,104.1,376.9,103.6,378,103.6 M378,90.6c-4.5,0-8.7,1.7-12,4.8
	l-34.6,32.7c-6.5,6.2-7.3,16.2-1.8,23.3c3.3,4.3,8.3,6.7,13.8,6.7c1.8,0,3.6-0.3,5.4-0.8l52.9-17.1c6-1.9,10.5-7,11.7-13.2
	c1.2-6.2-1-12.6-5.8-16.7l-18.4-15.6C386.1,92.1,382.1,90.6,378,90.6L378,90.6z"/>
<path class="st2" d="M343,338.5c-3.5,0-6.7-1.6-8.8-4.5l-32.9-44.9c-2.7-3.7-2.8-8.7-0.3-12.5c2-3,5.4-4.8,9.1-4.8
	c1.8,0,3.6,0.5,5.2,1.3l41.9,22.6c4.9,2.6,7,8.5,4.9,13.7l-9,22.3C351.4,335.9,347.4,338.5,343,338.5L343,338.5z"/>
<path class="st0" d="M310.1,278.3c0.7,0,1.4,0.2,2.1,0.5l41.9,22.6c2,1.1,2.8,3.4,2,5.5l-9,22.3c-0.7,1.8-2.4,2.8-4.1,2.8
	c-1.3,0-2.7-0.6-3.5-1.8l-32.9-44.9c-1.1-1.5-1.1-3.5-0.1-5.1l0,0C307.3,279,308.7,278.3,310.1,278.3 M310.1,265.3
	c-5.8,0-11.2,2.9-14.4,7.7c-4.1,6.1-3.9,14.1,0.4,20l32.9,44.9c3.3,4.5,8.5,7.1,14,7.1c7.1,0,13.5-4.3,16.2-10.9l9-22.3
	c3.3-8.2-0.1-17.6-7.9-21.8l-41.9-22.6C315.8,266.1,313,265.3,310.1,265.3L310.1,265.3z"/>
<path class="st2" d="M117.7,421.2c-3.7,0-7.1-1.8-9.1-4.9s-2.4-6.9-0.9-10.3l22-51.1c1.7-4,5.7-6.6,10-6.6c0.2,0,0.4,0,0.6,0
	c5.6,0.3,10,4.8,10.3,10.5l1.8,47.5c0.2,5.6-3.8,10.4-9.3,11.2l-23.8,3.6C118.8,421.1,118.3,421.2,117.7,421.2L117.7,421.2z"/>
<path class="st0" d="M139.7,354.7c0.1,0,0.2,0,0.3,0c2.3,0.1,4.1,2,4.1,4.2l1.8,47.5c0.1,2.2-1.5,4.2-3.7,4.5l-23.8,3.6
	c-0.2,0-0.5,0.1-0.7,0.1c-3.1,0-5.3-3.2-4-6.1l22-51.1C136.4,355.8,138,354.7,139.7,354.7 M139.7,341.7c-7,0-13.2,4.1-16,10.5
	l-22,51.1c-2.3,5.4-1.8,11.5,1.4,16.4s8.7,7.8,14.5,7.8c0.9,0,1.7-0.1,2.6-0.2l23.8-3.6c8.8-1.3,15.2-9,14.8-17.9l-1.8-47.5
	c-0.3-9-7.4-16.2-16.4-16.7C140.4,341.7,140.1,341.7,139.7,341.7L139.7,341.7z"/>
<path class="st2" d="M46.9,375.5c-2.8,0-5.5-0.9-7.7-2.6l-27.4-20.7c-3.7-2.8-5.6-7.4-5-12s3.7-8.5,8.1-10.1l74-28.6
	c1.5-0.6,3-0.9,4.6-0.9c3.7,0,7.2,1.6,9.6,4.4c4.3,5,4.2,12.4-0.4,17.2l-46.6,49.3C53.8,374,50.4,375.5,46.9,375.5L46.9,375.5z"/>
<path class="st0" d="M93.5,307.2c1.8,0,3.5,0.8,4.7,2.2c2.1,2.4,2,6.1-0.2,8.4l-46.6,49.3c-1.2,1.3-2.9,2-4.6,2
	c-1.3,0-2.7-0.4-3.8-1.3l-27.4-20.7c-3.9-3-3.1-9.1,1.5-10.9l74-28.6C92,307.3,92.7,307.2,93.5,307.2 M93.5,294.2
	c-2.4,0-4.7,0.4-6.9,1.3l-74,28.6c-6.5,2.5-11.2,8.4-12.1,15.3c-1,6.9,1.9,13.8,7.5,18.1l27.4,20.7c3.3,2.5,7.5,3.9,11.6,3.9
	c5.3,0,10.4-2.2,14-6l46.6-49.3c6.8-7.2,7.1-18.4,0.5-25.9C104.4,296.6,99.1,294.2,93.5,294.2L93.5,294.2z"/>
</svg>
