<?xml version="1.0" encoding="utf-8"?>
<!-- Generator: Adobe Illustrator 24.0.1, SVG Export Plug-In . SVG Version: 6.00 Build 0)  -->
<svg version="1.0" id="图层_1" xmlns="http://www.w3.org/2000/svg" xmlns:xlink="http://www.w3.org/1999/xlink" x="0px" y="0px"
	 viewBox="0 0 445 400" style="enable-background:new 0 0 445 400;" xml:space="preserve">
<style type="text/css">
	.st0{font-family:'MicrosoftYaHei';}
	.st1{font-size:122.4233px;}
	.st2{font-size:27.7661px;}
	.st3{fill:none;stroke:#000000;stroke-width:9;stroke-linecap:round;stroke-miterlimit:10;}
	.st4{fill:#121111;}
</style>
<text transform="matrix(1.1423 0 0 1 67.816 343.7608)" class="st0 st1">Time</text>
<text transform="matrix(1.1423 0 0 1 134.7145 394.8936)" class="st0 st2">Panic buying</text>
<polyline class="st3" points="223.1,91.2 223.1,227.6 327.1,227.6 "/>
<path d="M229.3,51.6h-11.8c-0.4,0-0.7-0.3-0.7-0.7V25.7c0-0.4,0.3-0.7,0.7-0.7h11.8c0.4,0,0.7,0.3,0.7,0.7V51
	C230,51.4,229.7,51.6,229.3,51.6z"/>
<path d="M385.5,146.3l-5.9-10.2c-0.2-0.3-0.1-0.7,0.2-0.9l21.9-12.6c0.3-0.2,0.7-0.1,0.9,0.2l5.9,10.2c0.2,0.3,0.1,0.7-0.2,0.9
	l-21.9,12.6C386.1,146.8,385.7,146.7,385.5,146.3z"/>
<path d="M327.9,82.4l-10.2-5.9c-0.3-0.2-0.4-0.6-0.2-0.9l12.6-21.9c0.2-0.3,0.6-0.4,0.9-0.2l10.2,5.9c0.3,0.2,0.4,0.6,0.2,0.9
	l-12.6,21.9C328.7,82.5,328.3,82.6,327.9,82.4z"/>
<path d="M425.4,221.7v11.8c0,0.4-0.3,0.7-0.7,0.7h-25.3c-0.4,0-0.7-0.3-0.7-0.7v-11.8c0-0.4,0.3-0.7,0.7-0.7h25.3
	C425.2,221,425.4,221.3,425.4,221.7z"/>
<path d="M129.1,80l-10.2,5.9c-0.3,0.2-0.7,0.1-0.9-0.2l-12.6-21.9c-0.2-0.3-0.1-0.7,0.2-0.9l10.2-5.9c0.3-0.2,0.7-0.1,0.9,0.2
	l12.6,21.9C129.6,79.4,129.5,79.8,129.1,80z"/>
<g>
	<path class="st4" d="M69.9,389.2C25.2,346.8,0.6,289.6,0.6,228C0.6,105.4,100.2,5.7,222.8,5.7C345.3,5.7,445,105.4,445,228
		c0,15.1-1.5,30.1-4.5,44.8l-8.9-1.8c2.9-14,4.3-28.5,4.3-43c0-117.5-95.6-213.1-213.1-213.1C105.3,14.9,9.7,110.5,9.7,228
		c0,59.1,23.6,114,66.5,154.7L69.9,389.2z"/>
</g>
<path class="st4" d="M132.6,405.7"/>
<g>
	<path class="st4" d="M411.8,27.7c11.5,0,20.9,9.3,20.9,20.9s-9.3,20.9-20.9,20.9s-20.9-9.3-20.9-20.9S400.3,27.7,411.8,27.7
		 M411.8,23.7c-13.7,0-24.9,11.2-24.9,24.9c0,13.7,11.2,24.9,24.9,24.9c13.7,0,24.9-11.2,24.9-24.9
		C436.7,34.9,425.5,23.7,411.8,23.7L411.8,23.7z"/>
</g>
</svg>
