<?xml version="1.0" encoding="utf-8"?>
<!-- Generator: Adobe Illustrator 24.0.1, SVG Export Plug-In . SVG Version: 6.00 Build 0)  -->
<svg version="1.1" id="图层_1" xmlns="http://www.w3.org/2000/svg" xmlns:xlink="http://www.w3.org/1999/xlink" x="0px" y="0px"
	 viewBox="0 0 866 400" style="enable-background:new 0 0 866 400;" xml:space="preserve">
<style type="text/css">
	.st0{fill:#C1090F;stroke:#000000;stroke-width:5;stroke-miterlimit:10;}
	.st1{fill:#FFFFFF;stroke:#000000;stroke-width:5;stroke-miterlimit:10;}
	.st2{fill:#C1090F;}
	.st3{fill:#E24848;stroke:#000000;stroke-width:4;stroke-miterlimit:10;}
	.st4{fill:#FFFFFF;}
	.st5{font-family:'MicrosoftYaHei';}
	.st6{font-size:94.4068px;}
</style>
<path class="st0" d="M834.9,400H19.5c-11.3,0-20.4-9.1-20.4-20.4v-320c0-11.3,9.1-20.4,20.4-20.4h815.5c11.3,0,20.4,9.1,20.4,20.4
	v320C855.3,390.9,846.2,400,834.9,400z"/>
<path class="st1" d="M834.9,360.7H19.5c-11.3,0-20.4-9.1-20.4-20.4v-320C-0.9,9.1,8.2,0,19.5,0h815.5c11.3,0,20.4,9.1,20.4,20.4v320
	C855.3,351.6,846.2,360.7,834.9,360.7z"/>
<path class="st2" d="M827.6,346.5H38.4c-11.3,0-20.4-9.1-20.4-20.4V34.6c0-11.3,9.1-20.4,20.4-20.4h789.3c11.3,0,20.4,9.1,20.4,20.4
	v291.5C848,337.4,838.9,346.5,827.6,346.5z"/>
<path class="st3" d="M237.1,314.2H93c-11.3,0-20.4-9.1-20.4-20.4V97.8c0-11.3,9.1-20.4,20.4-20.4h144.1c11.3,0,20.4,9.1,20.4,20.4
	v196.1C257.5,305.1,248.4,314.2,237.1,314.2z"/>
<path class="st1" d="M237.1,295.4H93c-11.3,0-20.4-9.1-20.4-20.4V72c0-11.3,9.1-20.4,20.4-20.4h144.1c11.3,0,20.4,9.1,20.4,20.4V275
	C257.5,286.3,248.4,295.4,237.1,295.4z"/>
<path class="st2" d="M213.5,274.7h-96.8c-11,0-19.9-8.9-19.9-19.9V122.3c0-11,8.9-19.9,19.9-19.9h96.8c11,0,19.9,8.9,19.9,19.9
	v132.5C233.4,265.8,224.5,274.7,213.5,274.7z"/>
<circle cx="108.6" cy="80.1" r="11.5"/>
<path d="M108.6,74.2L108.6,74.2c-2.2,0-4-1.8-4-4V-8.4c0-2.2,1.8-4,4-4h0c2.2,0,4,1.8,4,4v78.6C112.6,72.4,110.8,74.2,108.6,74.2z"
	/>
<circle cx="163.8" cy="80.1" r="11.5"/>
<path d="M163.8,74.2L163.8,74.2c-2.2,0-4-1.8-4-4V-8.4c0-2.2,1.8-4,4-4h0c2.2,0,4,1.8,4,4v78.6C167.7,72.4,166,74.2,163.8,74.2z"/>
<circle cx="218.9" cy="80.1" r="11.5"/>
<path d="M218.9,74.2L218.9,74.2c-2.2,0-4-1.8-4-4V-8.4c0-2.2,1.8-4,4-4h0c2.2,0,4,1.8,4,4v78.6C222.9,72.4,221.1,74.2,218.9,74.2z"
	/>
<g>
	<path class="st3" d="M424.7,314.2H280.6c-11.3,0-20.4-9.1-20.4-20.4V97.8c0-11.3,9.1-20.4,20.4-20.4h144.1
		c11.3,0,20.4,9.1,20.4,20.4v196.1C445.1,305.1,436,314.2,424.7,314.2z"/>
	<path class="st1" d="M424.7,295.4H280.6c-11.3,0-20.4-9.1-20.4-20.4V72c0-11.3,9.1-20.4,20.4-20.4h144.1c11.3,0,20.4,9.1,20.4,20.4
		V275C445.1,286.3,436,295.4,424.7,295.4z"/>
	<path class="st2" d="M401.1,274.7h-96.8c-11,0-19.9-8.9-19.9-19.9V122.3c0-11,8.9-19.9,19.9-19.9h96.8c11,0,19.9,8.9,19.9,19.9
		v132.5C421,265.8,412.1,274.7,401.1,274.7z"/>
</g>
<circle cx="296.2" cy="80.1" r="11.5"/>
<path d="M296.2,74.2L296.2,74.2c-2.2,0-4-1.8-4-4V-8.4c0-2.2,1.8-4,4-4l0,0c2.2,0,4,1.8,4,4v78.6C300.2,72.4,298.4,74.2,296.2,74.2z
	"/>
<circle cx="351.3" cy="80.1" r="11.5"/>
<path d="M351.3,74.2L351.3,74.2c-2.2,0-4-1.8-4-4V-8.4c0-2.2,1.8-4,4-4l0,0c2.2,0,4,1.8,4,4v78.6C355.3,72.4,353.5,74.2,351.3,74.2z
	"/>
<circle cx="406.5" cy="80.1" r="11.5"/>
<path d="M406.5,74.2L406.5,74.2c-2.2,0-4-1.8-4-4V-8.4c0-2.2,1.8-4,4-4l0,0c2.2,0,4,1.8,4,4v78.6C410.4,72.4,408.7,74.2,406.5,74.2z
	"/>
<g>
	<path class="st3" d="M612.3,314.2H468.2c-11.3,0-20.4-9.1-20.4-20.4V97.8c0-11.3,9.1-20.4,20.4-20.4h144.1
		c11.3,0,20.4,9.1,20.4,20.4v196.1C632.7,305.1,623.5,314.2,612.3,314.2z"/>
	<path class="st1" d="M612.3,295.4H468.2c-11.3,0-20.4-9.1-20.4-20.4V72c0-11.3,9.1-20.4,20.4-20.4h144.1c11.3,0,20.4,9.1,20.4,20.4
		V275C632.7,286.3,623.5,295.4,612.3,295.4z"/>
	<path class="st2" d="M588.6,274.7h-96.8c-11,0-19.9-8.9-19.9-19.9V122.3c0-11,8.9-19.9,19.9-19.9h96.8c11,0,19.9,8.9,19.9,19.9
		v132.5C608.5,265.8,599.6,274.7,588.6,274.7z"/>
</g>
<circle cx="483.8" cy="80.1" r="11.5"/>
<path d="M483.8,74.2L483.8,74.2c-2.2,0-4-1.8-4-4V-8.4c0-2.2,1.8-4,4-4h0c2.2,0,4,1.8,4,4v78.6C487.8,72.4,486,74.2,483.8,74.2z"/>
<circle cx="538.9" cy="80.1" r="11.5"/>
<path d="M538.9,74.2L538.9,74.2c-2.2,0-4-1.8-4-4V-8.4c0-2.2,1.8-4,4-4h0c2.2,0,4,1.8,4,4v78.6C542.9,72.4,541.1,74.2,538.9,74.2z"
	/>
<circle cx="594" cy="80.1" r="11.5"/>
<path d="M594,74.2L594,74.2c-2.2,0-4-1.8-4-4V-8.4c0-2.2,1.8-4,4-4l0,0c2.2,0,4,1.8,4,4v78.6C598,72.4,596.2,74.2,594,74.2z"/>
<g>
	<path class="st3" d="M799.9,314.2H655.8c-11.3,0-20.4-9.1-20.4-20.4V97.8c0-11.3,9.1-20.4,20.4-20.4h144.1
		c11.3,0,20.4,9.1,20.4,20.4v196.1C820.2,305.1,811.1,314.2,799.9,314.2z"/>
	<path class="st1" d="M799.9,295.4H655.8c-11.3,0-20.4-9.1-20.4-20.4V72c0-11.3,9.1-20.4,20.4-20.4h144.1c11.3,0,20.4,9.1,20.4,20.4
		V275C820.2,286.3,811.1,295.4,799.9,295.4z"/>
	<path class="st2" d="M776.2,274.7h-96.8c-11,0-19.9-8.9-19.9-19.9V122.3c0-11,8.9-19.9,19.9-19.9h96.8c11,0,19.9,8.9,19.9,19.9
		v132.5C796.1,265.8,787.2,274.7,776.2,274.7z"/>
</g>
<circle cx="671.4" cy="80.1" r="11.5"/>
<path d="M671.4,74.2L671.4,74.2c-2.2,0-4-1.8-4-4V-8.4c0-2.2,1.8-4,4-4l0,0c2.2,0,4,1.8,4,4v78.6C675.4,72.4,673.6,74.2,671.4,74.2z
	"/>
<circle cx="726.5" cy="80.1" r="11.5"/>
<path d="M726.5,74.2L726.5,74.2c-2.2,0-4-1.8-4-4V-8.4c0-2.2,1.8-4,4-4l0,0c2.2,0,4,1.8,4,4v78.6C730.5,72.4,728.7,74.2,726.5,74.2z
	"/>
<circle cx="781.6" cy="80.1" r="11.5"/>
<path d="M781.6,74.2L781.6,74.2c-2.2,0-4-1.8-4-4V-8.4c0-2.2,1.8-4,4-4h0c2.2,0,4,1.8,4,4v78.6C785.6,72.4,783.8,74.2,781.6,74.2z"
	/>
<text transform="matrix(0.9155 0 0 1 118.3634 219.6503)" class="st4 st5 st6">只</text>
<text transform="matrix(0.9155 0 0 1 308.5338 219.6493)" class="st4 st5 st6">剩</text>
<text transform="matrix(0.9155 0 0 1 686.5983 219.6503)" class="st4 st5 st6">天</text>
</svg>
