<?xml version="1.0" encoding="utf-8"?>
<!-- Generator: Adobe Illustrator 24.0.1, SVG Export Plug-In . SVG Version: 6.00 Build 0)  -->
<svg version="1.1" id="图层_1" xmlns="http://www.w3.org/2000/svg" xmlns:xlink="http://www.w3.org/1999/xlink" x="0px" y="0px"
	 viewBox="0 0 796 400" style="enable-background:new 0 0 796 400;" xml:space="preserve">
<style type="text/css">
	.st0{fill:#EF2AB4;}
	.st1{fill:url(#SVGID_1_);}
</style>
<circle class="st0" cx="162.8" cy="13.3" r="12.6"/>
<circle class="st0" cx="291.2" cy="97.2" r="12.6"/>
<circle class="st0" cx="291.2" cy="179.2" r="12.6"/>
<circle class="st0" cx="162" cy="221.3" r="12.6"/>
<circle class="st0" cx="312.2" cy="304.9" r="12.6"/>
<circle class="st0" cx="208.4" cy="346.3" r="12.6"/>
<circle class="st0" cx="12.5" cy="261.4" r="12.6"/>
<path class="st0" d="M253.7,109.8h-90.6c-7,0-12.6-5.7-12.6-12.6l0,0c0-7,5.7-12.6,12.6-12.6h90.6c7,0,12.6,5.7,12.6,12.6l0,0
	C266.5,104.2,260.8,109.8,253.7,109.8z"/>
<path class="st0" d="M266.7,317.9H157.2c-7,0-12.6-5.7-12.6-12.6l0,0c0-7,5.7-12.6,12.6-12.6h109.5c7,0,12.6,5.7,12.6,12.6l0,0
	C279.4,312.3,273.7,317.9,266.7,317.9z"/>
<path class="st0" d="M250.7,192.8H12.5c-7,0-12.6-5.7-12.6-12.6l0,0c0-7,5.7-12.6,12.6-12.6h238.2c7,0,12.6,5.7,12.6,12.6l0,0
	C263.3,187.1,257.6,192.8,250.7,192.8z"/>
<linearGradient id="SVGID_1_" gradientUnits="userSpaceOnUse" x1="293.494" y1="-181.7619" x2="624.9268" y2="-541.3118" gradientTransform="matrix(1 0 0 -1 0 -126)">
	<stop  offset="0" style="stop-color:#EF2AB4"/>
	<stop  offset="1" style="stop-color:#F24646"/>
</linearGradient>
<path class="st1" d="M605.1,0.9c-0.7-0.1-1.4-0.1-2.1-0.1H209c-7,0-12.6,5.7-12.6,12.6l0,0c0,7,5.7,12.6,12.6,12.6h264.2h26.3
	c-6.5,3.7-12.8,7.7-18.8,11.9c-1,2.3-3.1,4-5.7,4.3c0,0,0,0-0.1,0H474h-97.2c-7,0-12.6,5.7-12.6,12.6s5.5,12.5,12.5,12.6h60.7
	c4.5,0,8.1,3.7,8.1,8.1v1c0,4-3.3,7.2-7.2,7.2H435l0,0H325.1c-7,0-12.6,5.7-12.6,12.6l0,0c0,7,5.7,12.6,12.6,12.6h94.5h18.3
	c4.5,0,8.1,3.7,8.1,8.1v1c0,4-3.3,7.2-7.2,7.2h-26.7H261.2c-7,0-12.6,5.7-12.6,12.6c0,6.7,5.3,12.2,11.8,12.6h148.4
	c4.5,0,8.1,3.7,8.1,8.1v1c0,4-3.3,7.2-7.2,7.2h-9.2l0,0h-69.3c-7,0-12.6,5.7-12.6,12.6l0,0c0,6.8,5.3,12.2,11.9,12.6H450
	c4.5,0,8.1,3.7,8.1,8.1v1c0,4-3.3,7.2-7.2,7.2h-53l0,0H209.3c-7,0-12.6,5.7-12.6,12.6s5.7,12.6,12.6,12.6h186.5h5
	c0.1,0.7,0.3,1.3,0.3,2c1.7,1.6,2.8,3.7,2.8,6.3v1c0,1.1-0.3,2.3-0.9,3.3c0.3,1.3,0.6,2.7,1,4h-7.4H67.1h-6.3
	c-7,0-12.6,5.7-12.6,12.6l0,0c0,7,5.7,12.6,12.6,12.6h36.4h315.2h13.4c4.5,0,8.1,3.7,8.1,8.1v1c0,4-3.3,7.2-7.2,7.2h-7h-61.2
	c-7,0-12.6,5.7-12.6,12.6s5.7,12.6,12.6,12.6h76.7h30c4.5,0,8.1,3.7,8.1,8.1v1c0,4-3.3,7.2-7.2,7.2h-17.9H259.1
	c-7,0-12.6,5.7-12.6,12.6l0,0c0,7,5.7,12.6,12.6,12.6h216.3h66.3c4.5,0,8.1,3.7,8.1,8.1v1c0,4-3.3,7.2-7.2,7.2h-42.8H310.6
	c-7,0-12.6,5.7-12.6,12.6c0,7,5.7,12.6,12.6,12.6h289.6c0.4,0,0.7,0,1.1,0c107.8-1.8,194.3-90.6,194.3-199.6
	C795.3,93.4,710.9,5.6,605.1,0.9z"/>
</svg>
