<?xml version="1.0" encoding="utf-8"?>
<!-- Generator: Adobe Illustrator 24.0.1, SVG Export Plug-In . SVG Version: 6.00 Build 0)  -->
<svg version="1.1" id="图层_1" xmlns="http://www.w3.org/2000/svg" xmlns:xlink="http://www.w3.org/1999/xlink" x="0px" y="0px"
	 viewBox="0 0 400 400" style="enable-background:new 0 0 400 400;" xml:space="preserve">
<style type="text/css">
	.st0{fill:#EB3340;}
	.st1{enable-background:new    ;}
	.st2{fill:#FFFFFF;}
</style>
<circle class="st0" cx="199.9" cy="200.2" r="200"/>
<g class="st1">
	<path class="st2" d="M97.4,134.4c-0.1,9.9-1.8,23.5-4.6,32.2l-8.5-3.2c2.8-7.6,4.4-20.4,4.9-30.1L97.4,134.4z M115.7,207.4
		c-2-4.3-5.5-10.9-9-16.8c-2.6,10.1-7.2,19.5-14.5,27.9c-2-2.8-6.4-6.9-9.1-8.9C97.3,192.7,99,170.8,99,150v-41h12v41.1
		c0,8.3-0.2,16.8-1.3,25.1c4.3,5.9,13.1,19.9,15.3,23.2L115.7,207.4z M126.1,132.6c-2.5,8.1-5.1,18.4-7.4,24.4l-7.2-2.9
		c1.8-6.9,3.9-17.7,4.8-25.1L126.1,132.6z M182,176c4.5,3.9,10.6,7.3,16.1,9.2c-2.3,2.1-5.5,6-7.1,8.6c-7.6-3.6-15.5-10.9-20.2-17.8
		h-20.1c-5.6,6.7-15.5,13.7-24.1,17.2c-1.6-2.6-5-6.7-7.5-8.7c6-1.8,12.8-4.8,17.8-8.5H122v-10h18l-1-5h-14v-10h14v-5h-11v-35h62v35
		h-12v5h14v10h-14v5h17v10H182L182,176z M183.5,191.3c-2.4,2.8-5.1,5.6-7.6,8.1c6.6,3.2,12.6,6.5,16.8,9.2l-7.6,8
		c-4.6-3.2-20.1-11.5-20.1-11.5v4.1c0,5.2-0.9,7.6-4.5,9.1c-3.5,1.5-8,1.7-14.2,1.7c-0.7-3-2.5-7.1-4.2-9.8c4,0.1,7.8,0.1,9.1,0
		c1.3,0,1.7-0.2,1.7-1.4v-4.6c0,0-18.6,8.5-26.6,11.7l-4.3-9.7c7.9-2.6,19.5-7.2,31.9-11.9V179h12v15.6l1.6,0.9c2.9-2.9,6-6.6,8-9.4
		L183.5,191.3z M143.6,184.6c2.6,2.3,5.8,5.7,7.1,8l-8.5,6.1c-1.2-2.6-4.1-6.1-6.6-8.7L143.6,184.6z M141,125h36v-5h-36L141,125
		L141,125z M141,137h36v-4h-36L141,137L141,137z M152,151h13v-5h-13V151z M152,166h13v-6h-13V166z"/>
	<path class="st2" d="M225.9,186.6c-2.3,8.7-6.2,18.9-9.6,25.4c-2.6-1.6-7.9-3.9-10.9-4.8c3.6-6.1,6.7-15.2,8.9-23.2L225.9,186.6z
		 M243,182.1v25.1c0,5.9-0.9,9.2-4.7,11.1c-3.6,2.1-8.4,2.3-14.8,2.3c-0.5-3.9-2.2-8.9-3.8-12.4c3.6,0.1,7.4,0.1,8.7,0.1
		c1.2,0,1.6-0.4,1.6-1.4V182h-23v-12h59v12L243,182.1L243,182.1z M230,130h-22v-12h21v-9h14v9h21v12h-21v5h18v12h-50v-12h18l1-5.4
		V130z M261.1,153.7c6.2-11.6,9.9-28.2,11.8-45.1l13.9,1.9c-0.9,6.6-1.9,13.2-3.2,19.5h23.4l2.1-0.6l9.9,2.8
		c-2.4,11.7-5.8,25.3-8.9,34l-11.5-3.6c1.6-5,3.2-12.4,4.6-19.6h-22.9c-2.8,8.9-6.1,16.8-10.1,23.2c-1.9-1.8-5.8-4.8-9-7v4.8h-49
		v-11h49L261.1,153.7z M257.1,183.7c3,5.7,6.4,13.4,7.8,18.4l-11.1,4.6c-1.3-4.8-4.4-12.8-7.2-18.9L257.1,183.7z M295,157.1
		c0,3.4-0.1,7.1-0.4,11.1c3.8,17.9,11.5,33.2,24.5,40.1c-3,2.8-7.1,8.3-9.1,12.1c-9.2-6-15.7-15.7-20.3-27.6
		c-3.4,9.9-9.1,19.6-18.1,28.1c-2.3-3.1-7-7.6-10.4-9.7c19.1-17,20.8-39.8,20.8-54.6V151h12l1,5.7V157.1z"/>
</g>
<g class="st1">
	<path class="st2" d="M196.8,335H147v8h-14v-64.4c-2.4,3.5-4.9,6.7-7.4,9.6c-0.7-0.9-1.6-1.9-2.5-3.1l1.3,9.4
		c-3.6,1.2-7.4,2.4-11.3,3.5v28.4c0,7.1-1.2,10.8-5.1,13.2c-3.8,2.5-9.2,3-17.2,3c-0.4-4-2.1-10.1-4-14.2c4.3,0.1,8.6,0.1,10.1,0
		c1.4,0,2.1-0.4,2.1-2.1v-24.3L87.8,305l-3.1-13.6c4.1-0.9,9-2.1,14.4-3.6V266H86v-13h13v-22h14v22h12v13h-12v18.5l7.9-2.1
		c-1.8-1.8-3.6-3.7-5-4.9c11-11,20.8-28.7,26.2-46.7l13.5,3.7c-1.9,5.6-4.1,11.1-6.5,16.6H165c-1.6-4.6-4.2-10.1-6.9-14.6l12.3-4.8
		c3.2,4.9,6.6,11.8,8.1,16.3l-7.2,3.1H194v13h-19v11h18v13h-18v10h18v13h-18v11h22v13H196.8z M161,265h-15v11h15V265z M161,288h-15
		v11h15V288z M146,322h15v-11h-15V322z"/>
	<path class="st2" d="M250,276c-3.2,5.9-11,16-11,16v51h-13v-36.8c-3.9,3.1-7.9,6-12.2,8.3c-1.7-3-6.8-8.9-9.8-11.6
		c12.2-6.2,22.7-15.1,30.8-25.9H209v-13h32.1c0.9-2,1.6-3.9,2.4-6H233v-7h-24v-13h24v-7h14v7h32v-7h14v7h23v13h-23v8h-14v-8h-32v2.9
		l12.1,3c-0.9,2.4-1.8,4.8-2.9,7.2H315v12H250L250,276z M318,318h-28v11.3c0,6.2-1.2,9.4-6,11.3c-4.5,1.9-10.8,1.9-19.1,1.9
		c-0.6-3.6-2.6-8.5-4.4-12c5.4,0.2,11.5,0.2,13.3,0.2c1.6-0.1,2.1-0.5,2.1-1.9V318h-31v-12h31v-6c3.1-1.6,6.5-3.9,9.6-6H255v-11
		h43.8l2.8-0.7l8.3,6.7c-5.6,5.3-12.7,10.6-19.9,14.9v2.1h27l1,12.2V318z"/>
</g>
<g class="st1">
	<path class="st2" d="M100.1,57.9h7.1L104.3,72h13.5l2.9-14.1h7.1l-7.3,35.7h-7.1l3.1-15.4H103l-3.1,15.4h-7.1L100.1,57.9z"/>
	<path class="st2" d="M131.1,75.7c2.4-11.6,10.3-18.4,19.7-18.4s14.6,6.8,12.2,18.4s-10.4,18.6-19.8,18.6
		C133.9,94.3,128.8,87.2,131.1,75.7z M155.8,75.7c1.6-7.6-0.9-12.3-6.1-12.3c-5.3,0-9.6,4.6-11.2,12.3c-1.6,7.6,0.8,12.5,6.1,12.5
		S154.3,83.2,155.8,75.7z"/>
	<path class="st2" d="M178.1,63.9h-10l1.2-5.9h27.3l-1.2,5.9h-10.1l-6.1,29.8h-7.1L178.1,63.9z"/>
</g>
<g class="st1">
	<path class="st2" d="M208.2,90.5l4.1-4.4c2,1.9,4.1,2.9,6.6,2.9c2.7,0,4.1-1.1,4.5-2.9c0.4-2-2.2-2.9-4.8-4.1
		c-3.1-1.3-6.7-3.4-5.8-7.9c1-4.9,5.6-8.3,11.7-8.3c3.9,0,6.6,1.6,8.5,3.4l-4.1,4.3c-1.6-1.4-3.4-2.3-5.4-2.3
		c-2.4,0-3.8,1.1-4.1,2.6c-0.4,2,2.1,2.7,4.7,3.8c3.3,1.4,6.9,3.1,5.9,8.1c-1,4.7-5.5,8.6-12.5,8.6
		C214.1,94.3,210.4,92.7,208.2,90.5z"/>
	<path class="st2" d="M237,86.3c1.2-5.8,6.5-8.9,17.6-10c0.4-2.6-0.3-4.7-3.6-4.7c-2.5,0-5.1,1.1-7.9,2.6l-1.6-4.7
		c3.6-2,7.8-3.6,12-3.6c6.9,0,9.5,4.1,7.9,11.9l-3.2,15.8h-5.8l0.1-2.9h-0.1c-2.8,2-5.8,3.6-8.9,3.6C238.6,94.3,236.1,90.9,237,86.3
		z M252.6,86.1l1.1-5.4c-6.7,0.9-9.4,2.6-9.8,5.1c-0.4,2.1,0.9,3.1,2.9,3.1C248.9,88.7,250.6,87.8,252.6,86.1z"/>
	<path class="st2" d="M269.8,86.1l6.4-30.9h7.1l-6.4,31.3c-0.4,1.6,0.4,2.1,1,2.1c0.3,0,0.5,0,1-0.1l-0.2,5.3
		c-0.9,0.4-2.1,0.6-3.8,0.6C269.8,94.3,268.7,91.1,269.8,86.1z"/>
	<path class="st2" d="M287.4,80.2c1.8-8.8,9.1-14.2,15.5-14.2c7.4,0,10.1,5.4,8.6,12.9c-0.3,1.3-0.7,2.6-1,3.2h-16.6
		c-0.4,4.4,2.1,6.8,6.1,6.8c2.2,0,4.3-0.6,6.4-1.9l1.5,4.4c-3,1.9-6.7,3-10.1,3C290.3,94.3,285.5,89,287.4,80.2z M305.7,77.4
		c0.8-3.6-0.4-6-3.9-6c-2.9,0-5.8,2-7.1,6H305.7z"/>
</g>
</svg>
