<?xml version="1.0" encoding="utf-8"?>
<!-- Generator: Adobe Illustrator 24.0.1, SVG Export Plug-In . SVG Version: 6.00 Build 0)  -->
<svg version="1.1" id="图层_1" xmlns="http://www.w3.org/2000/svg" xmlns:xlink="http://www.w3.org/1999/xlink" x="0px" y="0px"
	 viewBox="0 0 400 400" style="enable-background:new 0 0 400 400;" xml:space="preserve">
<style type="text/css">
	.st0{fill:#F69C0D;}
	.st1{fill:#FDDB30;}
	.st2{fill:url(#SVGID_1_);}
	.st3{fill:url(#SVGID_2_);}
	.st4{fill:#E68D0B;}
	.st5{fill:#FFFFFF;}
	.st6{enable-background:new    ;}
	.st7{fill:#FEEA77;}
</style>
<g>
	<circle class="st0" cx="204.5" cy="200.4" r="193.6"/>
	<circle class="st1" cx="195.3" cy="193.8" r="193.6"/>
	<circle class="st0" cx="197.4" cy="193.8" r="164.9"/>
	
		<linearGradient id="SVGID_1_" gradientUnits="userSpaceOnUse" x1="84.4791" y1="635.9532" x2="343.6808" y2="829.1046" gradientTransform="matrix(1 0 0 1 0 -526)">
		<stop  offset="1.118836e-07" style="stop-color:#FFCB28"/>
		<stop  offset="1" style="stop-color:#F7A210"/>
	</linearGradient>
	<circle class="st2" cx="201.4" cy="197" r="161.6"/>
	<g>
		
			<linearGradient id="SVGID_2_" gradientUnits="userSpaceOnUse" x1="95.3263" y1="721.9651" x2="306.7967" y2="721.9651" gradientTransform="matrix(1 0 0 1 0 -526)">
			<stop  offset="1.118836e-07" style="stop-color:#FDDB30"/>
			<stop  offset="1" style="stop-color:#FFE460"/>
		</linearGradient>
		<path class="st3" d="M306.2,103.2c2.9-7.7-4.7-15.3-12.4-12.4c-19,7.1-49.5,14.9-92.7,14.9s-73.6-7.7-92.7-14.9
			c-7.7-2.9-15.3,4.7-12.4,12.4c7.1,19,14.9,49.5,14.9,92.7c0,43.1-7.7,73.6-14.9,92.7c-2.9,7.7,4.7,15.3,12.4,12.4
			c19-7.1,49.5-14.9,92.7-14.9s73.6,7.7,92.7,14.9c7.7,2.9,15.3-4.7,12.4-12.4c-7.1-19-14.9-49.5-14.9-92.7S299,122.2,306.2,103.2z"
			/>
		<path class="st4" d="M269.9,131.3c1.2-2.6-1.5-5.2-4.1-4.1c-10.9,4.9-32.1,11.9-64.7,11.9s-53.7-7-64.7-11.9
			c-2.6-1.2-5.2,1.5-4.1,4.1c4.9,10.9,11.9,32.1,11.9,64.7s-7,53.7-11.9,64.7c-1.2,2.6,1.5,5.2,4.1,4.1
			c10.9-4.9,32.1-11.9,64.7-11.9s53.7,7,64.7,11.9c2.6,1.2,5.2-1.5,4.1-4.1c-4.9-10.9-11.9-32.1-11.9-64.7
			C258,163.4,264.9,142.3,269.9,131.3z"/>
		<path class="st5" d="M201.2,252.8c32.8,0,54,7.1,64.9,12c2.6,1.2,5.1-1.5,3.9-3.9c-4.9-10.8-12-32.1-12-64.9
			c0-24.4,3.9-42.4,8-54.5c0.8-2.4-1.5-4.7-3.8-3.8c-11.6,4.2-29.9,8.7-55.5,8.7c-31.4,0-51.9-6.7-62.4-11.5
			c-2.6-1.2-5.1,1.5-3.9,3.9c4.8,10.6,11.5,30.9,11.5,62.4c0,25.7-4.4,44-8.8,55.6c-0.9,2.4,1.5,4.7,3.8,3.8
			C158.8,256.6,176.8,252.8,201.2,252.8z"/>
	</g>
	<g class="st6">
		<path class="st7" d="M287.2,23.5l-21.9,20c25.2,11.4,46.9,28.8,63.5,50.6l20-18.2C332.2,54.4,311.3,36.5,287.2,23.5z"/>
		<path class="st7" d="M41.4,247.4L17,269.7c10.7,25.2,26.7,47.7,46.5,66l22.3-20.5C65.9,297,50.5,273.7,41.4,247.4z"/>
	</g>
	<g class="st6">
		<path class="st7" d="M119.6,339.3c-7.3-3.8-14.2-8.3-20.8-13.2l-22.5,20.5c6.4,4.9,13.1,9.5,20.2,13.8L119.6,339.3z"/>
		<path class="st7" d="M358.3,89.6L338.2,108c4.2,7,8,14.3,11.2,21.9l20.8-18.9C366.6,103.5,362.7,96.5,358.3,89.6z"/>
	</g>
</g>
</svg>
