<?xml version="1.0" encoding="utf-8"?>
<!-- Generator: Adobe Illustrator 24.0.1, SVG Export Plug-In . SVG Version: 6.00 Build 0)  -->
<svg version="1.1" id="图层_1" xmlns="http://www.w3.org/2000/svg" xmlns:xlink="http://www.w3.org/1999/xlink" x="0px" y="0px"
	 viewBox="0 0 430 400" style="enable-background:new 0 0 430 400;" xml:space="preserve">
<style type="text/css">
	.st0{fill:#FBC63F;}
	.st1{fill:#FABD2A;}
	.st2{fill:#FBB91E;}
	.st3{fill:#F7A210;}
	.st4{fill:url(#SVGID_1_);}
	.st5{fill:#EC930B;}
	.st6{fill:url(#SVGID_2_);}
	.st7{fill:#F19A0E;}
	.st8{fill:url(#SVGID_3_);}
	.st9{fill:#FFF19C;}
	.st10{fill:#FFF2A0;}
</style>
<g>
	<path class="st0" d="M304.2,367.1c-6.3,3.5-12.6,6.8-19.1,9.8c-1.8,0.8-3.7,1.7-5.5,2.5L96,98.9c6.7-6.2,13.7-12,21.2-17.6"/>
	<path class="st1" d="M326.5,353.1c-2.2,1.6-4.5,3.2-6.9,4.7c-5.1,3.3-10.2,6.5-15.4,9.4l-187-285.8c4.8-3.6,9.7-7.1,14.8-10.4
		c2.3-1.5,4.7-3,7-4.5"/>
	<path class="st2" d="M200.3,38.6c83-25.6,167.3-5.5,207.8,56.4s25.2,147.2-31.5,213"/>
	<path class="st1" d="M376.6,308c-14.2,16.5-30.9,31.7-50.1,45L139,66.5c19.9-12.2,40.5-21.5,61.2-27.9"/>
	<path class="st3" d="M279.6,379.5c-91.5,40.2-191,23.1-236.1-45.9c-45.1-68.9-20.9-167,52.6-234.7"/>
	
		<linearGradient id="SVGID_1_" gradientUnits="userSpaceOnUse" x1="1.458282e-02" y1="711.4981" x2="408.4462" y2="711.4981" gradientTransform="matrix(1 0 0 1 0 -526)">
		<stop  offset="1.118836e-07" style="stop-color:#FFE45F"/>
		<stop  offset="1" style="stop-color:#FEDE3F"/>
	</linearGradient>
	<path class="st4" d="M296.5,326.5c-100.6,65.8-223.4,55.9-274.4-21.9S11.3,110.2,111.9,44.5s223.4-56,274.4,21.9
		S397.1,260.7,296.5,326.5z"/>
	
		<ellipse transform="matrix(0.8368 -0.5475 0.5475 0.8368 -60.5986 139.8633)" class="st5" cx="204.3" cy="171.6" rx="162.9" ry="126.2"/>
	
		<linearGradient id="SVGID_2_" gradientUnits="userSpaceOnUse" x1="54.0617" y1="704.0941" x2="359.7808" y2="704.0941" gradientTransform="matrix(1 0 0 1 0 -526)">
		<stop  offset="1.118836e-07" style="stop-color:#F9AD17"/>
		<stop  offset="1" style="stop-color:#FEC525"/>
	</linearGradient>
	<path class="st6" d="M276,283.7c-75.3,49.2-167.3,41.9-205.4-16.4C32.4,209,62.5,121.7,137.8,72.5s167.3-41.9,205.4,16.4
		C381.4,147.2,351.2,234.5,276,283.7z"/>
	<polygon class="st7" points="130,269.1 170.3,269.1 191.5,236.4 250.5,236.4 263.4,212 205.7,209.5 214.6,194.8 275.5,194.8 
		288.4,168.5 247.3,168.5 340.7,90.9 293.7,90.9 216.7,157.2 214.6,89.2 168,90.9 169.7,167.4 130,168.3 115.5,195.2 171,195.6 
		162.9,210.1 104.3,210.3 90,236 146.7,236.2 	"/>
	
		<linearGradient id="SVGID_3_" gradientUnits="userSpaceOnUse" x1="184.8051" y1="770.8626" x2="250.4814" y2="528.9514" gradientTransform="matrix(1 0 0 1 0 -526)">
		<stop  offset="1.118836e-07" style="stop-color:#FEDE42"/>
		<stop  offset="0.6266" style="stop-color:#FEDE42"/>
	</linearGradient>
	<polygon class="st8" points="123,264.1 163.3,264.1 184.4,231.4 243.4,231.4 256.3,207 198.6,204.5 207.5,189.7 268.4,189.7 
		281.3,163.5 240.2,163.5 333.6,85.8 286.6,85.8 209.7,152.1 207.5,84.2 161,85.8 162.7,162.4 123,163.3 108.4,190.2 164,190.6 
		155.8,205.1 97.3,205.3 82.9,231 139.6,231.2 	"/>
	<path class="st9" d="M65.9,82.2l12.3,39.6c5.9-8.9,12.8-17.5,20.7-25.6L88.2,61.9C80.3,68.3,72.8,75.2,65.9,82.2z"/>
	<path class="st10" d="M102.2,51.1l10.1,32.3c7.1-6.2,14.7-12,22.9-17.4c16.2-10.6,33.3-18.6,50.4-24l-8.9-28.8
		c-21.9,7.2-43.8,17.5-64.6,31.2C108.6,46.6,105.4,48.8,102.2,51.1z"/>
</g>
</svg>
