<?xml version="1.0" encoding="utf-8"?>
<!-- Generator: Adobe Illustrator 24.0.1, SVG Export Plug-In . SVG Version: 6.00 Build 0)  -->
<svg version="1.1" id="图层_1" xmlns="http://www.w3.org/2000/svg" xmlns:xlink="http://www.w3.org/1999/xlink" x="0px" y="0px"
	 viewBox="0 0 396 400" style="enable-background:new 0 0 396 400;" xml:space="preserve">
<style type="text/css">
	.st0{fill:#EB910B;}
	.st1{fill:url(#SVGID_1_);}
	.st2{fill:url(#SVGID_2_);}
	.st3{fill:#F0980F;}
	.st4{fill:url(#SVGID_3_);}
	.st5{fill:#CFF4FF;}
	.st6{fill:#E2890A;}
	.st7{opacity:0.27;enable-background:new    ;}
	.st8{fill:url(#SVGID_4_);}
	.st9{fill:#FEDE40;}
	.st10{fill:url(#SVGID_5_);}
	.st11{fill:url(#SVGID_6_);}
	.st12{fill:url(#SVGID_7_);}
	.st13{fill:url(#SVGID_8_);}
	.st14{fill:#F8381F;}
	.st15{fill:#FCBA1E;}
	.st16{fill:#FFFFFF;}
	.st17{fill:#FBC433;}
	.st18{fill:none;stroke:#717171;stroke-width:0.5;stroke-miterlimit:10;}
	.st19{fill:url(#SVGID_9_);}
	.st20{font-family:'SourceHanSansCN-Bold-GBpc-EUC-H';}
	.st21{font-size:10.2917px;}
	.st22{font-size:55.4148px;}
	.st23{letter-spacing:11;}
</style>
<g>
	<rect x="13.9" y="385.7" class="st0" width="369.4" height="14.5"/>
	
		<linearGradient id="SVGID_1_" gradientUnits="userSpaceOnUse" x1="50.0789" y1="682.5186" x2="346.2819" y2="924.6694" gradientTransform="matrix(1 0 0 1 0 -526)">
		<stop  offset="0" style="stop-color:#FFF5AA"/>
		<stop  offset="0.4539" style="stop-color:#FFED94"/>
		<stop  offset="0.9562" style="stop-color:#FFE67F"/>
		<stop  offset="0.978" style="stop-color:#FFF099"/>
		<stop  offset="0.9963" style="stop-color:#FFF6AB"/>
	</linearGradient>
	<rect x="39.4" y="169.5" class="st1" width="317.5" height="216.1"/>
	
		<linearGradient id="SVGID_2_" gradientUnits="userSpaceOnUse" x1="54.2795" y1="561.394" x2="332.9255" y2="561.394" gradientTransform="matrix(1 0 0 1 0 -526)">
		<stop  offset="0" style="stop-color:#F543A8"/>
		<stop  offset="0.4107" style="stop-color:#F55B71"/>
		<stop  offset="0.8009" style="stop-color:#F66E44"/>
		<stop  offset="0.9963" style="stop-color:#F67632"/>
	</linearGradient>
	<rect x="38.7" y="0.2" class="st2" width="319" height="70.3"/>
	<rect x="38.7" y="79.1" class="st0" width="319" height="12.4"/>
	<rect x="94" y="70.5" class="st0" width="12.4" height="8.7"/>
	<rect x="291.2" y="70.5" class="st0" width="12.4" height="8.7"/>
	<rect x="68.8" y="208.5" class="st3" width="103.7" height="176.9"/>
	
		<linearGradient id="SVGID_3_" gradientUnits="userSpaceOnUse" x1="120.0803" y1="761.1251" x2="120.0803" y2="897.6407" gradientTransform="matrix(1 0 0 1 0 -526)">
		<stop  offset="0" style="stop-color:#F543A8"/>
		<stop  offset="0.4107" style="stop-color:#F55B71"/>
		<stop  offset="0.8009" style="stop-color:#F66E44"/>
		<stop  offset="0.9963" style="stop-color:#F67632"/>
	</linearGradient>
	<rect x="75.6" y="215.9" class="st4" width="88.9" height="168.8"/>
	<rect x="92.6" y="232.6" class="st5" width="56.1" height="135.4"/>
	<rect x="196.2" y="214.2" class="st6" width="128.6" height="94.5"/>
	<rect x="203.9" y="221.5" class="st7" width="111.6" height="78.7"/>
	<rect x="203.9" y="258.7" class="st7" width="111.6" height="5"/>
	<rect x="190.1" y="308.7" class="st6" width="139.4" height="12.4"/>
	
		<linearGradient id="SVGID_4_" gradientUnits="userSpaceOnUse" x1="-6.962943e-02" y1="648.844" x2="81.3304" y2="648.844" gradientTransform="matrix(1 0 0 1 0 -526)">
		<stop  offset="0" style="stop-color:#FE4A18"/>
		<stop  offset="0.2348" style="stop-color:#FE5012"/>
		<stop  offset="0.9963" style="stop-color:#FF6201"/>
	</linearGradient>
	<polygon class="st8" points="43.9,154 -0.1,154 48.1,91.6 81.3,91.6 	"/>
	<polygon class="st9" points="87.8,154 43.9,154 81.3,91.6 114.9,91.6 	"/>
	
		<linearGradient id="SVGID_5_" gradientUnits="userSpaceOnUse" x1="87.8304" y1="648.844" x2="148.4444" y2="648.844" gradientTransform="matrix(1 0 0 1 0 -526)">
		<stop  offset="0" style="stop-color:#FE4A18"/>
		<stop  offset="0.2348" style="stop-color:#FE5012"/>
		<stop  offset="0.9963" style="stop-color:#FF6201"/>
	</linearGradient>
	<polygon class="st10" points="131.9,154 87.8,154 114.9,91.6 148.5,91.6 	"/>
	<polygon class="st9" points="175.9,154 131.9,154 148.5,91.6 182,91.6 	"/>
	<polygon class="st9" points="263.8,154 219.8,154 216.5,91.6 249.5,91.6 	"/>
	
		<linearGradient id="SVGID_6_" gradientUnits="userSpaceOnUse" x1="249.5303" y1="648.844" x2="307.8304" y2="648.844" gradientTransform="matrix(1 0 0 1 0 -526)">
		<stop  offset="0" style="stop-color:#FE4A18"/>
		<stop  offset="0.2348" style="stop-color:#FE5012"/>
		<stop  offset="0.9963" style="stop-color:#FF6201"/>
	</linearGradient>
	<polygon class="st11" points="307.8,154 263.8,154 249.5,91.6 282.9,91.6 	"/>
	<polyline class="st9" points="351.8,154 307.8,154 282.9,91.6 316.9,91.6 	"/>
	
		<linearGradient id="SVGID_7_" gradientUnits="userSpaceOnUse" x1="316.9304" y1="648.844" x2="395.8304" y2="648.844" gradientTransform="matrix(1 0 0 1 0 -526)">
		<stop  offset="0" style="stop-color:#FE4A18"/>
		<stop  offset="0.2348" style="stop-color:#FE5012"/>
		<stop  offset="0.9963" style="stop-color:#FF6201"/>
	</linearGradient>
	<polyline class="st12" points="316.9,91.6 351.1,91.6 395.8,154 351.8,154 	"/>
	
		<linearGradient id="SVGID_8_" gradientUnits="userSpaceOnUse" x1="175.9304" y1="648.844" x2="219.8825" y2="648.844" gradientTransform="matrix(1 0 0 1 0 -526)">
		<stop  offset="0" style="stop-color:#FE4A18"/>
		<stop  offset="0.2348" style="stop-color:#FE5012"/>
		<stop  offset="0.9963" style="stop-color:#FF6201"/>
	</linearGradient>
	<polygon class="st13" points="219.8,154 175.9,154 182,91.6 216.5,91.6 	"/>
	<path class="st14" d="M23.9,185h-4c-11.1,0-20-8.9-20-20v-11.1h44V165C43.9,176.1,34.9,185,23.9,185z"/>
	<path class="st15" d="M67.8,185h-4c-11.1,0-20-8.9-20-20v-11.1h44V165C87.8,176.1,78.9,185,67.8,185z"/>
	<path class="st14" d="M107.8,185L107.8,185c-11.1,0-20-8.9-20-20v-11.1h44v7.1C131.9,174.3,121.1,185,107.8,185z"/>
	<path class="st15" d="M155.9,185h-4c-11.1,0-20-8.9-20-20v-11.1h44V165C175.9,176.1,166.9,185,155.9,185z"/>
	<path class="st14" d="M199.8,185h-4c-11.1,0-20-8.9-20-20v-11.1h44V165C219.8,176.1,210.9,185,199.8,185z"/>
	<path class="st15" d="M243.8,185h-4c-11.1,0-20-8.9-20-20v-11.1h44V165C263.8,176.1,254.8,185,243.8,185z"/>
	<path class="st14" d="M287.8,185h-4c-11.1,0-20-8.9-20-20v-11.1h44V165C307.8,176.1,298.9,185,287.8,185z"/>
	<path class="st15" d="M331.8,185h-4c-11.1,0-20-8.9-20-20v-11.1h44V165C351.8,176.1,342.9,185,331.8,185z"/>
	<path class="st14" d="M375.8,185h-4c-11.1,0-20-8.9-20-20v-11.1h44V165C395.8,176.1,386.8,185,375.8,185z"/>
	<polygon class="st16" points="104.3,368 148.8,258.3 148.8,244.7 98.8,368 	"/>
	<polygon class="st16" points="148.7,232.6 132.6,232.6 92.5,331.5 92.5,368 95.2,368 148.7,235.9 	"/>
	<rect x="75.6" y="297" class="st0" width="88.9" height="7.1"/>
	<path class="st17" d="M159.7,272.9v54.6c0,1.5-1.2,2.7-2.7,2.7l0,0c-1.5,0-2.7-1.2-2.7-2.7v-54.6c0-1.5,1.2-2.7,2.7-2.7l0,0
		C158.4,270.2,159.7,271.4,159.7,272.9z"/>
	<rect x="204" y="221.5" class="st5" width="111.5" height="78.7"/>
	<polygon class="st16" points="227.3,300.2 315.5,236.4 315.5,228.5 216.4,300.2 	"/>
	<polygon class="st16" points="315.4,221.5 283.4,221.5 203.9,279 203.9,300.2 209.1,300.2 315.4,223.4 	"/>
	<rect x="203.9" y="258.7" class="st0" width="111.6" height="3.6"/>
	<polyline class="st18" points="130.1,254.7 120.3,241.7 110.2,255.7 	"/>
	
		<linearGradient id="SVGID_9_" gradientUnits="userSpaceOnUse" x1="103.4831" y1="787.4441" x2="136.8682" y2="787.4441" gradientTransform="matrix(1 0 0 1 0 -526)">
		<stop  offset="0" style="stop-color:#F543A8"/>
		<stop  offset="0.4107" style="stop-color:#F55B71"/>
		<stop  offset="0.8009" style="stop-color:#F66E44"/>
		<stop  offset="0.9963" style="stop-color:#F67632"/>
	</linearGradient>
	<rect x="101.6" y="253.2" class="st19" width="38.2" height="16.4"/>
	<text transform="matrix(1 0 0 1 104.9265 265.4401)" class="st16 st20 st21">OPEN</text>
	<text transform="matrix(1 0 0 1 104.9265 56.1842)" class="st16 st20 st22 st23">SHOP</text>
</g>
</svg>
