<?xml version="1.0" encoding="utf-8"?>
<!-- Generator: Adobe Illustrator 24.0.1, SVG Export Plug-In . SVG Version: 6.00 Build 0)  -->
<svg version="1.1" id="图层_1" xmlns="http://www.w3.org/2000/svg" xmlns:xlink="http://www.w3.org/1999/xlink" x="0px" y="0px"
	 viewBox="0 0 516 400" style="enable-background:new 0 0 516 400;" xml:space="preserve">
<style type="text/css">
	.st0{fill:#00A3B5;}
	.st1{fill:#FD2236;}
</style>
<g>
	<polygon class="st0" points="407.3,48.7 404.7,36.9 442.4,0.2 387.5,29.3 392,40.8 355.3,66.2 	"/>
	<polygon class="st0" points="363.7,149.2 418.3,117 420.6,128.9 465,110.6 469.1,125 519,119 465,146.8 460.6,132.6 420.6,151.5 
		412.4,136.4 	"/>
	<polygon class="st0" points="395.6,235.8 446.4,223.1 448.1,234 497.8,238.9 442.4,248.4 438.5,237.5 	"/>
	
		<ellipse transform="matrix(0.957 -0.2901 0.2901 0.957 -30.9448 98.3436)" class="st1" cx="316.2" cy="153.5" rx="25.5" ry="103.3"/>
	<path class="st1" d="M280.7,164.7c-15.6-51.4-18-97.1-6.6-109.1l-131.2,84.5l0,0c-9.1,5.5-9.1,33.5,0.4,64.8
		c9.7,31.7,25.5,55.3,36.1,54.1h156.2C319.4,255,296.2,215.8,280.7,164.7z"/>
	<path class="st1" d="M134.2,208.7c-7.8-26-9-49.7-4-59.3c0.7-1.2-0.6-2.7-1.9-2.3l-72,22.2c-9.8,3-10,31.4-0.6,63.4
		c9.6,32,25.2,55.5,35,52.4l72-22.2c1.3-0.4,1.5-2.3,0.3-2.9C153.7,255.2,142,234.7,134.2,208.7z"/>
	<path class="st1" d="M46.3,234.5c-8.7-29.2-8.1-55.8,0.8-62.5c-2.4,0.4-4.7,0.9-7,1.6C12,182.3-3.3,215.2,6.2,247
		s39.9,50.4,68.1,41.8c2.3-0.7,4.4-1.6,6.5-2.7C69.6,285.3,54.9,263.7,46.3,234.5z"/>
	<path class="st1" d="M218.5,344.2L218.5,344.2l-0.2-0.4c-0.4-0.6-0.8-1.1-1.2-1.7L167.5,271l-75,22l64.7,90.9
		c0.2,0.3,0.4,0.5,0.5,0.7l0.9,1.2l0,0c6.6,8.7,17.1,14.4,29.1,14.4c20.2,0,36.5-16.4,36.5-36.5C224.2,356.4,222,349.8,218.5,344.2z
		"/>
</g>
</svg>
