<?xml version="1.0" encoding="utf-8"?>
<!-- Generator: Adobe Illustrator 24.0.1, SVG Export Plug-In . SVG Version: 6.00 Build 0)  -->
<svg version="1.1" id="图层_1" xmlns="http://www.w3.org/2000/svg" xmlns:xlink="http://www.w3.org/1999/xlink" x="0px" y="0px"
	 viewBox="0 0 970 400" style="enable-background:new 0 0 970 400;" xml:space="preserve">
<style type="text/css">
	.st0{fill:#F6B758;stroke:#000000;stroke-miterlimit:10;}
	.st1{fill:#27C4C6;stroke:#000000;stroke-width:1.6;stroke-miterlimit:10;}
	.st2{fill:#FEFEFE;}
	.st3{fill:none;stroke:#000000;stroke-width:1.6;stroke-miterlimit:10;}
	.st4{fill:none;stroke:#000000;stroke-width:1.3;stroke-miterlimit:10;}
	.st5{fill:#27C4C6;stroke:#000000;stroke-miterlimit:10;}
	.st6{fill:#FEFEFE;stroke:#000000;stroke-miterlimit:10;}
	.st7{fill:#FAEE01;stroke:#000000;stroke-miterlimit:10;}
</style>
<path class="st0" d="M962.7,400.1H17.1c-3.6,0-6.6-2.9-6.6-6.6V6.6C10.5,3,13.4,0,17.1,0h945.8c3.6,0,6.6,2.9,6.6,6.6v386.8
	C969.5,397.1,966.5,400.1,962.7,400.1z"/>
<path class="st1" d="M548.9,359.8c-2.9,0-5.5-2.4-5.5-5.5V47.6c0-2.9,2.4-5.5,5.5-5.5h386.8c2.9,0,5.5,2.4,5.5,5.5v306.7
	c0,2.9-2.4,5.5-5.5,5.5H548.9L548.9,359.8z"/>
<path class="st0" d="M576.7,57.3c-4.3,0-7.8,3.5-7.8,7.8v271.8c0,4.3,3.5,7.8,7.8,7.8h331.1c4.3,0,7.8-3.5,7.8-7.8V65.1
	c0-4.3-3.5-7.8-7.8-7.8L576.7,57.3L576.7,57.3z"/>
<path class="st2" d="M576.7,342.1c-2.9,0-5.2-2.4-5.2-5.2V65c0-2.9,2.4-5.2,5.2-5.2h331.1c2.9,0,5.2,2.4,5.2,5.2v271.9
	c0,2.9-2.4,5.2-5.2,5.2H576.7z"/>
<line class="st3" x1="546.1" y1="42.5" x2="571" y2="59.8"/>
<line class="st4" x1="914.4" y1="60" x2="940" y2="43.9"/>
<line class="st4" x1="913.7" y1="341.4" x2="940.4" y2="357.5"/>
<line class="st4" x1="546.1" y1="357.6" x2="571.5" y2="342.6"/>
<polygon class="st5" points="0.1,4.9 0.1,395.2 464,361.8 464,41.4 "/>
<path class="st6" d="M514.6,361.3h-474c-3.6,0-6.6-2.9-6.6-6.6V42.1c0-3.6,2.9-6.6,6.6-6.6h473.9c3.6,0,6.6,2.9,6.6,6.6v312.4
	C521.2,358.3,518.2,361.3,514.6,361.3z"/>
<path class="st7" d="M552.7,119.9H509c-2.8,0-4.8-2.3-4.8-4.8l0,0c0-2.8,2.3-4.8,4.8-4.8h43.6c2.8,0,4.8,2.3,4.8,4.8l0,0
	C557.5,117.8,555.3,119.9,552.7,119.9z"/>
<path class="st7" d="M552.7,89.6H509c-2.8,0-4.8-2.3-4.8-4.8l0,0c0-2.8,2.3-4.8,4.8-4.8h43.6c2.8,0,4.8,2.3,4.8,4.8l0,0
	C557.5,87.3,555.3,89.6,552.7,89.6z"/>
<path class="st7" d="M552.7,150.4H509c-2.8,0-4.8-2.3-4.8-4.8l0,0c0-2.8,2.3-4.8,4.8-4.8h43.6c2.8,0,4.8,2.3,4.8,4.8l0,0
	C557.5,148.1,555.3,150.4,552.7,150.4z"/>
<path class="st7" d="M552.7,261H509c-2.8,0-4.8-2.3-4.8-4.8l0,0c0-2.8,2.3-4.8,4.8-4.8h43.6c2.8,0,4.8,2.3,4.8,4.8l0,0
	C557.5,258.8,555.3,261,552.7,261z"/>
<path class="st7" d="M552.7,291.8H509c-2.8,0-4.8-2.3-4.8-4.8l0,0c0-2.8,2.3-4.8,4.8-4.8h43.6c2.8,0,4.8,2.3,4.8,4.8l0,0
	C557.5,289.6,555.3,291.8,552.7,291.8z"/>
<path class="st7" d="M552.7,322.7H509c-2.8,0-4.8-2.3-4.8-4.8l0,0c0-2.8,2.3-4.8,4.8-4.8h43.6c2.8,0,4.8,2.3,4.8,4.8l0,0
	C557.5,320.4,555.3,322.7,552.7,322.7z"/>
</svg>
