<?xml version="1.0" encoding="utf-8"?>
<!-- Generator: Adobe Illustrator 24.0.1, SVG Export Plug-In . SVG Version: 6.00 Build 0)  -->
<svg version="1.1" id="图层_1" xmlns="http://www.w3.org/2000/svg" xmlns:xlink="http://www.w3.org/1999/xlink" x="0px" y="0px"
	 viewBox="0 0 1466 120" style="enable-background:new 0 0 1466 120;" xml:space="preserve">
<style type="text/css">
	.st0{fill:#B4E0FE;}
	.st1{fill:#6BC3FE;}
</style>
<g>
	<g>
		<path class="st0" d="M13,121.2c-3.1,0-6.1-1.2-8.6-3.7c-4.9-4.9-4.9-12.6,0-17.5l40.1-39.8L4.7,22.6C-0.2,18-0.5,10.3,4.1,5.1
			c4.6-4.9,12.3-5.2,17.5-0.6l49,46.3c2.5,2.1,3.7,5.5,4,8.9s-1.2,6.4-3.7,8.9l-49,49C19.1,120,16,121.2,13,121.2z"/>
	</g>
	<g>
		<path class="st1" d="M89.3,121.2c-3.1,0-6.1-1.2-8.6-3.7c-4.9-4.9-4.9-12.6,0-17.5l40.1-39.8L81,22.6c-4.9-4.6-5.2-12.3-0.6-17.5
			C85,0.2,92.6-0.1,97.9,4.5l49,46.3c2.5,2.1,3.7,5.5,4,8.9s-1.2,6.4-3.7,8.9l-49,49C95.4,120,92.3,121.2,89.3,121.2z"/>
	</g>
	<g>
		<path class="st1" d="M165.9,106.2c-3.1,0-6.1-1.1-8.6-3.2c-4.9-4.3-4.9-11,0-15.3l40.1-34.9l-39.8-33c-4.9-4-5.2-10.7-0.6-15.3
			c4.6-4.3,12.3-4.6,17.5-0.5l49,40.5c2.5,1.9,3.7,4.8,4,7.8s-1.2,5.6-3.7,7.8l-49,42.9C172.3,105.2,168.9,106.2,165.9,106.2z"/>
	</g>
	<g>
		<path class="st1" d="M246.8,121.2c-3.1,0-6.1-1.2-8.6-3.7c-4.9-4.9-4.9-12.6,0-17.5l40.1-39.8l-39.8-37.7
			c-4.9-4.6-5.2-12.3-0.6-17.5c4.6-4.9,12.3-5.2,17.5-0.6l49,46.3c2.5,2.1,3.7,5.5,4,8.9c0.3,3.4-1.2,6.4-3.7,8.9l-49,49
			C252.9,120,249.8,121.2,246.8,121.2z"/>
	</g>
	<g>
		<path class="st0" d="M1453.7,121.2c3.1,0,6.1-1.2,8.6-3.7c4.9-4.9,4.9-12.6,0-17.5l-40.1-39.8l39.8-37.7
			c4.9-4.6,5.2-12.3,0.6-17.5c-4.6-4.9-12.3-5.2-17.5-0.6l-49,46.3c-2.5,2.1-3.7,5.5-4,8.9s1.2,6.4,3.7,8.9l49,49
			C1447.6,120,1450.7,121.2,1453.7,121.2z"/>
	</g>
	<g>
		<path class="st1" d="M1377.4,121.2c3.1,0,6.1-1.2,8.6-3.7c4.9-4.9,4.9-12.6,0-17.5l-40.1-39.8l39.8-37.7
			c4.9-4.6,5.2-12.3,0.6-17.5c-4.6-4.9-12.3-5.2-17.5-0.6l-49,46.3c-2.5,2.1-3.7,5.5-4,8.9c-0.3,3.4,1.2,6.4,3.7,8.9l49,49
			C1371.3,120,1374.4,121.2,1377.4,121.2z"/>
	</g>
	<g>
		<path class="st1" d="M1300.8,121.2c3.1,0,6.1-1.2,8.6-3.7c4.9-4.9,4.9-12.6,0-17.5l-40.1-39.8l39.8-37.7
			c4.9-4.6,5.2-12.3,0.6-17.5c-4.6-4.9-12.3-5.2-17.5-0.6l-49,46.3c-2.5,2.1-3.7,5.5-4,8.9c-0.3,3.4,1.2,6.4,3.7,8.9l49,49
			C1294.4,120,1297.8,121.2,1300.8,121.2z"/>
	</g>
	<g>
		<path class="st1" d="M1219.9,121.2c3.1,0,6.1-1.2,8.6-3.7c4.9-4.9,4.9-12.6,0-17.5l-40.1-39.8l39.8-37.7
			c4.9-4.6,5.2-12.3,0.6-17.5c-4.6-4.9-12.3-5.2-17.5-0.6l-49,46.3c-2.5,2.1-3.7,5.5-4,8.9c-0.3,3.4,1.2,6.4,3.7,8.9l49,49
			C1213.8,120,1216.9,121.2,1219.9,121.2z"/>
	</g>
</g>
</svg>
