<?xml version="1.0" encoding="utf-8"?>
<!-- Generator: Adobe Illustrator 24.0.1, SVG Export Plug-In . SVG Version: 6.00 Build 0)  -->
<svg version="1.1" id="图层_1" xmlns="http://www.w3.org/2000/svg" xmlns:xlink="http://www.w3.org/1999/xlink" x="0px" y="0px"
	 viewBox="0 0 564 400" style="enable-background:new 0 0 564 400;" xml:space="preserve">
<style type="text/css">
	.st0{fill:#FEA03E;stroke:#651413;stroke-width:3.5;stroke-linejoin:round;}
	.st1{fill:#FFFFFF;}
	.st2{fill:none;stroke:#651413;stroke-width:3.5;stroke-linejoin:round;}
</style>
<g>
	<path id="圆角矩形_1" class="st0" d="M26,15.4h529.4c4.4,0,8,3.6,8,8v368.7c0,4.4-3.6,8-8,8H26c-4.4,0-8-3.6-8-8V23.4
		C17.9,18.9,21.5,15.4,26,15.4z"/>
	<path id="圆角矩形_1_拷贝_2" class="st0" d="M8.4,0.2h528.7c4.4,0,8,3.6,8,8V377c0,4.4-3.6,8-8,8H8.4c-4.4,0-8-3.6-8-8V8.2
		C0.3,3.9,4,0.2,8.4,0.2z"/>
	<g>
		<path id="圆角矩形_1_拷贝" class="st1" d="M33.1,28.2h481.4c4.4,0,8,3.6,8,8v322.3c0,4.4-3.6,8-8,8H33.1c-4.4,0-8-3.6-8-8
			V36.2C25.1,31.8,28.7,28.2,33.1,28.2z"/>
	</g>
	<g>
		<path id="圆角矩形_1_拷贝_1_" class="st2" d="M33.1,28.2h481.4c4.4,0,8,3.6,8,8v322.3c0,4.4-3.6,8-8,8H33.1
			c-4.4,0-8-3.6-8-8V36.2C25.1,31.8,28.7,28.2,33.1,28.2z"/>
	</g>
</g>
</svg>
