<?xml version="1.0" encoding="utf-8"?>
<!-- Generator: Adobe Illustrator 24.0.1, SVG Export Plug-In . SVG Version: 6.00 Build 0)  -->
<svg version="1.1" id="图层_1" xmlns="http://www.w3.org/2000/svg" xmlns:xlink="http://www.w3.org/1999/xlink" x="0px" y="0px"
	 viewBox="0 0 576 400" style="enable-background:new 0 0 576 400;" xml:space="preserve">
<style type="text/css">
	.st0{fill:#FE626C;}
	.st1{fill:#9DC6FB;}
	.st2{fill:#030101;}
	.st3{fill:#F1B61B;}
</style>
<g>
	<path class="st0" d="M46.5,351.4c-12.2,0-22.1-9.9-22.1-22.1V35.7c0-12.2,9.9-22.1,22.1-22.1h506.1c12.2,0,22.1,9.9,22.1,22.1
		v293.6c0,12.2-9.9,22.1-22.1,22.1L46.5,351.4L46.5,351.4z"/>
	<path d="M552.6,15c11.4,0,20.7,9.3,20.7,20.7v293.6c0,11.4-9.3,20.7-20.7,20.7H46.5c-11.4,0-20.7-9.3-20.7-20.7V35.7
		C25.7,24.3,35,15,46.5,15H552.6 M552.6,12.4H46.5c-12.9,0-23.4,10.4-23.4,23.3v293.6c0,12.9,10.4,23.3,23.3,23.3h506.1
		c12.9,0,23.3-10.4,23.3-23.3V35.7C575.9,22.8,565.5,12.4,552.6,12.4L552.6,12.4z"/>
</g>
<path class="st1" d="M534.9,365H42.2c-12.9,0-23.3-10.4-23.3-23.3V28.9C18.9,16,29.4,5.6,42.2,5.6h492.6c12.9,0,23.3,10.4,23.3,23.3
	v312.7C558.2,354.6,547.7,365,534.9,365z"/>
<rect x="-0.1" y="84.8" class="st2" width="5.5" height="47.1"/>
<rect x="-0.1" y="135.3" class="st2" width="5.5" height="8.4"/>
<rect x="-0.1" y="146.1" class="st2" width="5.5" height="7.5"/>
<rect x="497.9" y="387.2" class="st2" width="46.6" height="5.3"/>
<rect x="455.6" y="395" class="st2" width="47" height="5.3"/>
<rect x="486" y="387.2" class="st2" width="8.3" height="5.3"/>
<rect x="505.4" y="395" class="st2" width="8.3" height="5.3"/>
<rect x="476.9" y="387" class="st2" width="7.6" height="5.3"/>
<g>
	<path d="M540.4,2.8c11.4,0,20.7,9.3,20.7,20.7v323.2c0,11.4-9.3,20.7-20.7,20.7H34.3c-11.4,0-20.7-9.3-20.7-20.7V23.5
		c0-11.4,9.3-20.7,20.7-20.7L540.4,2.8 M540.4,0.2H34.3C21.4,0.2,11,10.7,11,23.5v323.2c0,12.9,10.4,23.3,23.3,23.3h506.1
		c12.9,0,23.3-10.4,23.3-23.3V23.5C563.8,10.7,553.3,0.2,540.4,0.2L540.4,0.2z"/>
</g>
<g>
	<path d="M515.7,20.1c11.4,0,20.7,9.3,20.7,20.7v288.6c0,11.4-9.3,20.7-20.7,20.7H59.3c-11.4,0-20.7-9.3-20.7-20.7V40.9
		c0-11.4,9.3-20.7,20.7-20.7h456.4 M515.7,17.6H59.3C46.4,17.6,36,28,36,40.9v288.6c0,12.9,10.4,23.3,23.3,23.3h456.4
		c12.9,0,23.3-10.4,23.3-23.3V40.9C539,28.1,528.6,17.6,515.7,17.6L515.7,17.6z"/>
</g>
<rect x="29.4" y="57.9" class="st1" width="22.3" height="63.4"/>
<rect x="67.1" y="7.8" class="st1" width="22.3" height="63.4"/>
<rect x="29.4" y="211.5" class="st1" width="22.3" height="82.6"/>
<rect x="144.4" y="340.1" class="st1" width="20.6" height="22.3"/>
<rect x="374.8" y="338.4" class="st1" width="13.9" height="22.3"/>
<rect x="529.6" y="255" class="st1" width="13.9" height="24.3"/>
<rect x="532.1" y="67.8" class="st1" width="13.9" height="13.9"/>
<rect x="454.7" y="11.6" class="st1" width="13.9" height="13.9"/>
<path class="st3" d="M536.6,255.8c0.8-0.1,1.8-0.1,2.6-0.2c8.7,0.5,13.3,10,8,16.8c-2.6,3.4-6.9,4.8-10.9,3.7
	c-4.1-1.1-7.3-4.7-7.7-9.1c-0.4-4.3,1.5-7.6,5.3-9.9C534.8,256.6,535.8,256.2,536.6,255.8z"/>
</svg>
