<?xml version="1.0" encoding="utf-8"?>
<!-- Generator: Adobe Illustrator 24.0.1, SVG Export Plug-In . SVG Version: 6.00 Build 0)  -->
<svg version="1.1" id="图层_1" xmlns="http://www.w3.org/2000/svg" xmlns:xlink="http://www.w3.org/1999/xlink" x="0px" y="0px"
	 viewBox="0 0 542 200" style="enable-background:new 0 0 542 200;" xml:space="preserve">
<style type="text/css">
	.st0{fill:#1666D0;}
	.st1{fill-rule:evenodd;clip-rule:evenodd;fill:#1666D0;}
	.st2{fill:#FFFFFF;}
</style>
<g>
	<path id="圆角矩形_3" class="st0" d="M63.1,0.5h415.4c35.1,0,63.4,28.4,63.4,63.4l0,0c0,35.1-28.4,63.4-63.4,63.4H63.1
		C28,127.4-0.4,99-0.4,63.9l0,0C-0.4,28.9,28,0.5,63.1,0.5z"/>
	<path id="圆角矩形_3_拷贝_2" class="st1" d="M71.8,60.1c2.6,0,4.8,2.1,4.8,4.8l0,0v117.3c0,2.6-2.1,4.8-4.8,4.8
		s-4.8-2.1-4.8-4.8V64.9C66.9,62.2,69.1,60.1,71.8,60.1z M475.7,62c2.6,0,4.8,2.1,4.8,4.8l0,0v117.3c0,2.6-2.1,4.8-4.8,4.8
		c-2.6,0-4.8-2.1-4.8-4.8V66.9C470.8,64.1,472.9,62,475.7,62z"/>
	<circle id="椭圆_7" class="st2" cx="475.7" cy="64.8" r="12.5"/>
	<circle id="椭圆_7_拷贝" class="st2" cx="71.8" cy="64.8" r="12.5"/>
	<path id="椭圆_7_拷贝_2" class="st1" d="M475.7,175.5c6.9,0,12.5,5.6,12.5,12.5c0,6.9-5.6,12.5-12.5,12.5
		c-6.9,0-12.5-5.6-12.5-12.5C463.2,181.1,468.8,175.5,475.7,175.5L475.7,175.5z M71.8,175.5c6.9,0,12.5,5.6,12.5,12.5
		c0,6.9-5.6,12.5-12.5,12.5c-6.9,0-12.5-5.6-12.5-12.5C59.3,181.1,64.8,175.5,71.8,175.5L71.8,175.5z"/>
</g>
</svg>
